<svg width="510" height="98" viewBox="0 0 510 98" fill="none" xmlns="http://www.w3.org/2000/svg">
<mask id="path-1-outside-1_423_7" maskUnits="userSpaceOnUse" x="0" y="0" width="510" height="98" fill="black">
<rect fill="white" width="510" height="98"/>
<path d="M2.36 79L24.28 19.4H29.64L51.56 79H45.96L40.52 63.8H13.4L7.88 79H2.36ZM15.08 59H38.76L25.96 23.4H27.88L15.08 59ZM79.1525 79.96C75.0458 79.96 71.4458 79.08 68.3525 77.32C65.2592 75.56 62.8325 73.1333 61.0725 70.04C59.3658 66.8933 58.5125 63.2933 58.5125 59.24V19.4H63.7125V59.4C63.7125 62.4933 64.3525 65.24 65.6325 67.64C66.9658 69.9867 68.7792 71.8267 71.0725 73.16C73.4192 74.4933 76.1125 75.16 79.1525 75.16C82.1925 75.16 84.8592 74.4933 87.1525 73.16C89.4992 71.8267 91.3125 69.9867 92.5925 67.64C93.8725 65.24 94.5125 62.4933 94.5125 59.4V19.4H99.7125V59.24C99.7125 63.2933 98.8592 66.8933 97.1525 70.04C95.4458 73.1333 93.0458 75.56 89.9525 77.32C86.8592 79.08 83.2592 79.96 79.1525 79.96ZM124.938 79V24.2H108.298V19.4H146.698V24.2H130.138V79H124.938ZM180.811 79.96C176.705 79.96 172.865 79.2133 169.291 77.72C165.718 76.1733 162.571 74.04 159.851 71.32C157.185 68.5467 155.078 65.2933 153.531 61.56C152.038 57.7733 151.291 53.64 151.291 49.16C151.291 44.6267 152.038 40.4933 153.531 36.76C155.078 33.0267 157.211 29.8 159.931 27.08C162.651 24.3067 165.771 22.1733 169.291 20.68C172.865 19.1867 176.705 18.44 180.811 18.44C184.865 18.44 188.678 19.1867 192.251 20.68C195.825 22.1733 198.945 24.3067 201.611 27.08C204.331 29.8 206.465 33.0533 208.011 36.84C209.558 40.5733 210.331 44.68 210.331 49.16C210.331 53.64 209.558 57.7733 208.011 61.56C206.465 65.2933 204.331 68.5467 201.611 71.32C198.945 74.04 195.825 76.1733 192.251 77.72C188.678 79.2133 184.865 79.96 180.811 79.96ZM180.811 75C184.385 75 187.665 74.3333 190.651 73C193.638 71.6667 196.198 69.8 198.331 67.4C200.518 65 202.198 62.2533 203.371 59.16C204.545 56.0133 205.131 52.68 205.131 49.16C205.131 45.6933 204.545 42.4133 203.371 39.32C202.198 36.1733 200.518 33.4 198.331 31C196.198 28.6 193.638 26.7333 190.651 25.4C187.718 24.0133 184.438 23.32 180.811 23.32C177.185 23.32 173.878 24.0133 170.891 25.4C167.958 26.7333 165.398 28.6 163.211 31C161.078 33.4 159.425 36.1733 158.251 39.32C157.078 42.4133 156.491 45.6933 156.491 49.16C156.491 52.68 157.078 56.0133 158.251 59.16C159.425 62.2533 161.078 65 163.211 67.4C165.398 69.8 167.985 71.6667 170.971 73C173.958 74.3333 177.238 75 180.811 75ZM223.52 79V19.4H227.92L250.16 52.52H248L270.32 19.4H274.72V79H269.52V27L270.8 27.72L249.2 59.96H248.96L227.36 27.72L228.72 27V79H223.52ZM283.532 79L305.452 19.4H310.812L332.732 79H327.132L321.692 63.8H294.572L289.052 79H283.532ZM296.252 59H319.932L307.132 23.4H309.052L296.252 59ZM365.945 79.96C361.838 79.96 358.052 79.2133 354.585 77.72C351.118 76.1733 348.078 74.0133 345.465 71.24C342.905 68.4667 340.905 65.2133 339.465 61.48C338.078 57.7467 337.385 53.64 337.385 49.16C337.385 44.7333 338.078 40.6533 339.465 36.92C340.905 33.1333 342.905 29.88 345.465 27.16C348.078 24.3867 351.118 22.2533 354.585 20.76C358.052 19.2133 361.838 18.44 365.945 18.44C369.945 18.44 373.545 19.16 376.745 20.6C379.945 22.04 382.638 23.88 384.825 26.12C387.012 28.36 388.585 30.68 389.545 33.08L384.665 35.24C383.065 31.6667 380.638 28.7867 377.385 26.6C374.185 24.4133 370.372 23.32 365.945 23.32C361.412 23.32 357.358 24.4133 353.785 26.6C350.265 28.7867 347.518 31.8267 345.545 35.72C343.572 39.56 342.585 44.04 342.585 49.16C342.585 54.28 343.572 58.7867 345.545 62.68C347.518 66.5733 350.265 69.6133 353.785 71.8C357.358 73.9333 361.412 75 365.945 75C370.372 75 374.185 73.9333 377.385 71.8C380.638 69.6133 383.065 66.7333 384.665 63.16L389.545 65.32C388.585 67.6667 387.012 69.96 384.825 72.2C382.638 74.44 379.945 76.3067 376.745 77.8C373.545 79.24 369.945 79.96 365.945 79.96ZM366.745 97C365.252 97 363.785 96.7333 362.345 96.2C360.905 95.6667 359.705 94.92 358.745 93.96L360.185 90.52C361.038 91.3733 361.998 92.0133 363.065 92.44C364.185 92.92 365.252 93.16 366.265 93.16C367.545 93.16 368.558 92.8133 369.305 92.12C370.052 91.48 370.425 90.68 370.425 89.72C370.425 88.3333 369.732 87.2667 368.345 86.52C367.012 85.7733 365.012 85.2667 362.345 85L364.345 78.2H368.185L367.065 82.44C369.572 82.92 371.518 83.8 372.905 85.08C374.292 86.4133 374.985 87.9867 374.985 89.8C374.985 91.9333 374.212 93.6667 372.665 95C371.118 96.3333 369.145 97 366.745 97ZM395.798 79L417.718 19.4H423.078L444.998 79H439.398L433.958 63.8H406.838L401.318 79H395.798ZM408.518 59H432.198L419.398 23.4H421.318L408.518 59ZM425.078 10.68C423.691 10.68 422.571 10.4133 421.718 9.88C420.864 9.34667 420.118 8.73333 419.478 8.04C418.891 7.29333 418.304 6.65333 417.718 6.11999C417.131 5.58666 416.384 5.31999 415.478 5.31999C414.571 5.31999 413.824 5.72 413.238 6.52C412.704 7.26667 412.438 8.54666 412.438 10.36H408.358C408.358 7.48 408.998 5.24 410.278 3.64C411.558 1.98666 413.344 1.16 415.638 1.16C416.971 1.16 418.038 1.42666 418.838 1.96C419.691 2.49333 420.411 3.13333 420.998 3.87999C421.638 4.57333 422.251 5.18666 422.838 5.71999C423.478 6.25333 424.251 6.52 425.158 6.52C426.171 6.52 426.971 6.09333 427.558 5.24C428.144 4.38666 428.438 3.13333 428.438 1.48H432.438C432.438 4.2 431.771 6.41333 430.438 8.12C429.158 9.82666 427.371 10.68 425.078 10.68ZM479.171 79.96C475.064 79.96 471.224 79.2133 467.651 77.72C464.077 76.1733 460.931 74.04 458.211 71.32C455.544 68.5467 453.437 65.2933 451.891 61.56C450.397 57.7733 449.651 53.64 449.651 49.16C449.651 44.6267 450.397 40.4933 451.891 36.76C453.437 33.0267 455.571 29.8 458.291 27.08C461.011 24.3067 464.131 22.1733 467.651 20.68C471.224 19.1867 475.064 18.44 479.171 18.44C483.224 18.44 487.037 19.1867 490.611 20.68C494.184 22.1733 497.304 24.3067 499.971 27.08C502.691 29.8 504.824 33.0533 506.371 36.84C507.917 40.5733 508.691 44.68 508.691 49.16C508.691 53.64 507.917 57.7733 506.371 61.56C504.824 65.2933 502.691 68.5467 499.971 71.32C497.304 74.04 494.184 76.1733 490.611 77.72C487.037 79.2133 483.224 79.96 479.171 79.96ZM479.171 75C482.744 75 486.024 74.3333 489.011 73C491.997 71.6667 494.557 69.8 496.691 67.4C498.877 65 500.557 62.2533 501.731 59.16C502.904 56.0133 503.491 52.68 503.491 49.16C503.491 45.6933 502.904 42.4133 501.731 39.32C500.557 36.1733 498.877 33.4 496.691 31C494.557 28.6 491.997 26.7333 489.011 25.4C486.077 24.0133 482.797 23.32 479.171 23.32C475.544 23.32 472.237 24.0133 469.251 25.4C466.317 26.7333 463.757 28.6 461.571 31C459.437 33.4 457.784 36.1733 456.611 39.32C455.437 42.4133 454.851 45.6933 454.851 49.16C454.851 52.68 455.437 56.0133 456.611 59.16C457.784 62.2533 459.437 65 461.571 67.4C463.757 69.8 466.344 71.6667 469.331 73C472.317 74.3333 475.597 75 479.171 75Z"/>
</mask>
<path d="M2.36 79L1.42146 78.6548L0.926726 80H2.36V79ZM24.28 19.4V18.4H23.5823L23.3415 19.0548L24.28 19.4ZM29.64 19.4L30.5785 19.0548L30.3377 18.4H29.64V19.4ZM51.56 79V80H52.9933L52.4985 78.6548L51.56 79ZM45.96 79L45.0185 79.337L45.2558 80H45.96V79ZM40.52 63.8L41.4615 63.463L41.2242 62.8H40.52V63.8ZM13.4 63.8V62.8H12.6993L12.4601 63.4587L13.4 63.8ZM7.88 79V80H8.58074L8.81994 79.3413L7.88 79ZM15.08 59L14.139 58.6617L13.6578 60H15.08V59ZM38.76 59V60H40.1822L39.701 58.6617L38.76 59ZM25.96 23.4V22.4H24.5378L25.019 23.7383L25.96 23.4ZM27.88 23.4L28.821 23.7383L29.3022 22.4H27.88V23.4ZM3.29854 79.3452L25.2185 19.7452L23.3415 19.0548L1.42146 78.6548L3.29854 79.3452ZM24.28 20.4H29.64V18.4H24.28V20.4ZM28.7015 19.7452L50.6215 79.3452L52.4985 78.6548L30.5785 19.0548L28.7015 19.7452ZM51.56 78H45.96V80H51.56V78ZM46.9015 78.663L41.4615 63.463L39.5785 64.137L45.0185 79.337L46.9015 78.663ZM40.52 62.8H13.4V64.8H40.52V62.8ZM12.4601 63.4587L6.94006 78.6587L8.81994 79.3413L14.3399 64.1413L12.4601 63.4587ZM7.88 78H2.36V80H7.88V78ZM15.08 60H38.76V58H15.08V60ZM39.701 58.6617L26.901 23.0617L25.019 23.7383L37.819 59.3383L39.701 58.6617ZM25.96 24.4H27.88V22.4H25.96V24.4ZM26.939 23.0617L14.139 58.6617L16.021 59.3383L28.821 23.7383L26.939 23.0617ZM68.3525 77.32L68.847 76.4508L68.847 76.4508L68.3525 77.32ZM61.0725 70.04L60.1935 70.5168L60.1983 70.5257L60.2033 70.5345L61.0725 70.04ZM58.5125 19.4V18.4H57.5125V19.4H58.5125ZM63.7125 19.4H64.7125V18.4H63.7125V19.4ZM65.6325 67.64L64.7501 68.1106L64.7564 68.1224L64.763 68.134L65.6325 67.64ZM71.0725 73.16L70.5699 74.0245L70.5785 74.0295L71.0725 73.16ZM87.1525 73.16L86.6585 72.2905L86.6499 72.2955L87.1525 73.16ZM92.5925 67.64L93.4704 68.1189L93.4749 68.1106L92.5925 67.64ZM94.5125 19.4V18.4H93.5125V19.4H94.5125ZM99.7125 19.4H100.713V18.4H99.7125V19.4ZM97.1525 70.04L98.0281 70.5231L98.0315 70.5168L97.1525 70.04ZM89.9525 77.32L89.458 76.4508L89.9525 77.32ZM79.1525 78.96C75.1922 78.96 71.7678 78.1127 68.847 76.4508L67.858 78.1892C71.1239 80.0473 74.8994 80.96 79.1525 80.96V78.96ZM68.847 76.4508C65.91 74.7798 63.6127 72.4825 61.9417 69.5455L60.2033 70.5345C62.0523 73.7841 64.6084 76.3402 67.858 78.1892L68.847 76.4508ZM61.9515 69.5632C60.3343 66.5814 59.5125 63.1491 59.5125 59.24H57.5125C57.5125 63.4375 58.3974 67.2053 60.1935 70.5168L61.9515 69.5632ZM59.5125 59.24V19.4H57.5125V59.24H59.5125ZM58.5125 20.4H63.7125V18.4H58.5125V20.4ZM62.7125 19.4V59.4H64.7125V19.4H62.7125ZM62.7125 59.4C62.7125 62.6347 63.3829 65.5469 64.7501 68.1106L66.5149 67.1694C65.3221 64.9331 64.7125 62.352 64.7125 59.4H62.7125ZM64.763 68.134C66.1821 70.6316 68.1209 72.6007 70.5699 74.0245L71.5751 72.2955C69.4375 71.0527 67.7495 69.3417 66.502 67.146L64.763 68.134ZM70.5785 74.0295C73.094 75.4587 75.9616 76.16 79.1525 76.16V74.16C76.2634 74.16 73.7443 73.5279 71.5665 72.2905L70.5785 74.0295ZM79.1525 76.16C82.3429 76.16 85.188 75.4589 87.6551 74.0245L86.6499 72.2955C84.5303 73.5278 82.0421 74.16 79.1525 74.16V76.16ZM87.6465 74.0295C90.1533 72.6051 92.1004 70.6306 93.4704 68.1189L91.7146 67.1611C90.5246 69.3428 88.845 71.0482 86.6585 72.2905L87.6465 74.0295ZM93.4749 68.1106C94.8421 65.5469 95.5125 62.6347 95.5125 59.4H93.5125C93.5125 62.352 92.9029 64.9331 91.7101 67.1694L93.4749 68.1106ZM95.5125 59.4V19.4H93.5125V59.4H95.5125ZM94.5125 20.4H99.7125V18.4H94.5125V20.4ZM98.7125 19.4V59.24H100.713V19.4H98.7125ZM98.7125 59.24C98.7125 63.1491 97.8907 66.5814 96.2735 69.5632L98.0315 70.5168C99.8276 67.2053 100.713 63.4375 100.713 59.24H98.7125ZM96.2769 69.5569C94.66 72.4877 92.3924 74.7813 89.458 76.4508L90.447 78.1892C93.6993 76.3387 96.2317 73.779 98.0281 70.5231L96.2769 69.5569ZM89.458 76.4508C86.5372 78.1127 83.1128 78.96 79.1525 78.96V80.96C83.4056 80.96 87.1811 80.0473 90.447 78.1892L89.458 76.4508ZM124.938 79H123.938V80H124.938V79ZM124.938 24.2H125.938V23.2H124.938V24.2ZM108.298 24.2H107.298V25.2H108.298V24.2ZM108.298 19.4V18.4H107.298V19.4H108.298ZM146.698 19.4H147.698V18.4H146.698V19.4ZM146.698 24.2V25.2H147.698V24.2H146.698ZM130.138 24.2V23.2H129.138V24.2H130.138ZM130.138 79V80H131.138V79H130.138ZM125.938 79V24.2H123.938V79H125.938ZM124.938 23.2H108.298V25.2H124.938V23.2ZM109.298 24.2V19.4H107.298V24.2H109.298ZM108.298 20.4H146.698V18.4H108.298V20.4ZM145.698 19.4V24.2H147.698V19.4H145.698ZM146.698 23.2H130.138V25.2H146.698V23.2ZM129.138 24.2V79H131.138V24.2H129.138ZM130.138 78H124.938V80H130.138V78ZM169.291 77.72L168.894 78.6378L168.906 78.6427L169.291 77.72ZM159.851 71.32L159.13 72.0131L159.137 72.0202L159.144 72.0271L159.851 71.32ZM153.531 61.56L152.601 61.9269L152.604 61.9348L152.607 61.9427L153.531 61.56ZM153.531 36.76L152.607 36.3772L152.603 36.3886L153.531 36.76ZM159.931 27.08L160.638 27.7871L160.645 27.7802L159.931 27.08ZM169.291 20.68L168.906 19.7573L168.901 19.7594L169.291 20.68ZM192.251 20.68L192.637 19.7573L192.637 19.7573L192.251 20.68ZM201.611 27.08L200.89 27.7731L200.897 27.7802L200.904 27.7871L201.611 27.08ZM208.011 36.84L207.085 37.2181L207.087 37.2227L208.011 36.84ZM208.011 61.56L208.935 61.9427L208.937 61.9381L208.011 61.56ZM201.611 71.32L200.897 70.6198L200.897 70.6199L201.611 71.32ZM192.251 77.72L192.637 78.6427L192.648 78.6377L192.251 77.72ZM190.651 73L190.244 72.0869L190.244 72.0869L190.651 73ZM198.331 67.4L197.592 66.7265L197.584 66.7356L198.331 67.4ZM203.371 59.16L204.306 59.5147L204.308 59.5094L203.371 59.16ZM203.371 39.32L202.434 39.6694L202.436 39.6747L203.371 39.32ZM198.331 31L197.584 31.6644L197.592 31.6735L198.331 31ZM190.651 25.4L190.224 26.3041L190.234 26.3087L190.244 26.3131L190.651 25.4ZM170.891 25.4L171.305 26.3104L171.312 26.307L170.891 25.4ZM163.211 31L162.472 30.3265L162.464 30.3356L163.211 31ZM158.251 39.32L159.186 39.6747L159.188 39.6694L158.251 39.32ZM158.251 59.16L157.314 59.5094L157.316 59.5147L158.251 59.16ZM163.211 67.4L162.464 68.0644L162.472 68.0735L163.211 67.4ZM170.971 73L171.379 72.0869L171.379 72.0869L170.971 73ZM180.811 78.96C176.829 78.96 173.121 78.2366 169.677 76.7973L168.906 78.6427C172.608 80.1901 176.58 80.96 180.811 80.96V78.96ZM169.688 76.8023C166.229 75.305 163.188 73.2427 160.558 70.6129L159.144 72.0271C161.954 74.8373 165.207 77.0416 168.894 78.6377L169.688 76.8023ZM160.572 70.6269C157.996 67.9479 155.956 64.8013 154.455 61.1773L152.607 61.9427C154.199 65.7854 156.373 69.1454 159.13 72.0131L160.572 70.6269ZM154.462 61.1931C153.019 57.5345 152.291 53.5271 152.291 49.16H150.291C150.291 53.7529 151.057 58.0122 152.601 61.9269L154.462 61.1931ZM152.291 49.16C152.291 44.7378 153.019 40.7325 154.46 37.1314L152.603 36.3886C151.057 40.2542 150.291 44.5156 150.291 49.16H152.291ZM154.455 37.1427C155.954 33.5245 158.016 30.4096 160.638 27.7871L159.224 26.3729C156.407 29.1904 154.202 32.5289 152.607 36.3773L154.455 37.1427ZM160.645 27.7802C163.274 25.0994 166.285 23.0416 169.682 21.6006L168.901 19.7594C165.257 21.305 162.028 23.514 159.217 26.3798L160.645 27.7802ZM169.677 21.6027C173.121 20.1634 176.829 19.44 180.811 19.44V17.44C176.58 17.44 172.608 18.2099 168.906 19.7573L169.677 21.6027ZM180.811 19.44C184.738 19.44 188.42 20.1627 191.866 21.6027L192.637 19.7573C188.936 18.2106 184.991 17.44 180.811 17.44V19.44ZM191.866 21.6027C195.314 23.0436 198.319 25.0991 200.89 27.7731L202.332 26.3869C199.57 23.5142 196.336 21.3031 192.637 19.7573L191.866 21.6027ZM200.904 27.7871C203.524 30.4072 205.586 33.5467 207.085 37.2181L208.937 36.4619C207.343 32.56 205.138 29.1928 202.318 26.3729L200.904 27.7871ZM207.087 37.2227C208.579 40.8222 209.331 44.7971 209.331 49.16H211.331C211.331 44.5629 210.537 40.3245 208.935 36.4573L207.087 37.2227ZM209.331 49.16C209.331 53.5227 208.579 57.5262 207.085 61.1819L208.937 61.9381C210.537 58.0204 211.331 53.7573 211.331 49.16H209.331ZM207.087 61.1773C205.588 64.7972 203.524 67.9415 200.897 70.6198L202.325 72.0202C205.138 69.1518 207.341 65.7895 208.935 61.9427L207.087 61.1773ZM200.897 70.6199C198.323 73.2455 195.311 75.3058 191.854 76.8023L192.648 78.6377C196.338 77.0408 199.566 74.8345 202.325 72.0201L200.897 70.6199ZM191.866 76.7973C188.42 78.2373 184.738 78.96 180.811 78.96V80.96C184.991 80.96 188.936 80.1894 192.637 78.6427L191.866 76.7973ZM180.811 76C184.512 76 187.932 75.3089 191.059 73.9131L190.244 72.0869C187.397 73.3578 184.257 74 180.811 74V76ZM191.059 73.9131C194.173 72.523 196.849 70.5725 199.079 68.0644L197.584 66.7356C195.547 69.0275 193.103 70.8103 190.244 72.0869L191.059 73.9131ZM199.07 68.0735C201.343 65.5787 203.089 62.7234 204.306 59.5147L202.436 58.8053C201.307 61.7833 199.692 64.4213 197.592 66.7265L199.07 68.0735ZM204.308 59.5094C205.525 56.2456 206.131 52.7935 206.131 49.16H204.131C204.131 52.5665 203.564 55.781 202.434 58.8106L204.308 59.5094ZM206.131 49.16C206.131 45.578 205.525 42.1773 204.306 38.9653L202.436 39.6747C203.565 42.6493 204.131 45.8086 204.131 49.16H206.131ZM204.308 38.9706C203.092 35.7085 201.346 32.8242 199.07 30.3265L197.592 31.6735C199.69 33.9758 201.304 36.6382 202.434 39.6694L204.308 38.9706ZM199.079 30.3356C196.849 27.8275 194.173 25.877 191.059 24.4869L190.244 26.3131C193.103 27.5897 195.547 29.3725 197.584 31.6644L199.079 30.3356ZM191.079 24.4959C187.997 23.039 184.568 22.32 180.811 22.32V24.32C184.308 24.32 187.439 24.9877 190.224 26.3041L191.079 24.4959ZM180.811 22.32C177.054 22.32 173.602 23.0391 170.47 24.493L171.312 26.307C174.154 24.9876 177.315 24.32 180.811 24.32V22.32ZM170.477 24.4896C167.42 25.8795 164.749 27.8271 162.472 30.3265L163.95 31.6735C166.047 29.3729 168.496 27.5872 171.305 26.3104L170.477 24.4896ZM162.464 30.3356C160.245 32.8322 158.529 35.7135 157.314 38.9706L159.188 39.6694C160.32 36.6331 161.911 33.9678 163.959 31.6644L162.464 30.3356ZM157.316 38.9653C156.098 42.1773 155.491 45.578 155.491 49.16H157.491C157.491 45.8086 158.058 42.6493 159.186 39.6747L157.316 38.9653ZM155.491 49.16C155.491 52.7935 156.097 56.2456 157.314 59.5094L159.188 58.8106C158.059 55.781 157.491 52.5665 157.491 49.16H155.491ZM157.316 59.5147C158.531 62.7183 160.247 65.5706 162.464 68.0644L163.959 66.7356C161.909 64.4294 160.318 61.7884 159.186 58.8053L157.316 59.5147ZM162.472 68.0735C164.752 70.5761 167.452 72.5241 170.564 73.9131L171.379 72.0869C168.517 70.8093 166.044 69.0239 163.95 66.7265L162.472 68.0735ZM170.564 73.9131C173.69 75.3089 177.111 76 180.811 76V74C177.365 74 174.226 73.3578 171.379 72.0869L170.564 73.9131ZM223.52 79H222.52V80H223.52V79ZM223.52 19.4V18.4H222.52V19.4H223.52ZM227.92 19.4L228.75 18.8425L228.453 18.4H227.92V19.4ZM250.16 52.52V53.52H252.036L250.99 51.9625L250.16 52.52ZM248 52.52L247.171 51.9611L246.12 53.52H248V52.52ZM270.32 19.4V18.4H269.788L269.491 18.8411L270.32 19.4ZM274.72 19.4H275.72V18.4H274.72V19.4ZM274.72 79V80H275.72V79H274.72ZM269.52 79H268.52V80H269.52V79ZM269.52 27L270.01 26.1284L268.52 25.2902V27H269.52ZM270.8 27.72L271.631 28.2766L272.233 27.3784L271.29 26.8484L270.8 27.72ZM249.2 59.96V60.96H249.734L250.031 60.5166L249.2 59.96ZM248.96 59.96L248.129 60.5166L248.426 60.96H248.96V59.96ZM227.36 27.72L226.892 26.8362L225.912 27.3552L226.529 28.2766L227.36 27.72ZM228.72 27H229.72V25.3391L228.252 26.1162L228.72 27ZM228.72 79V80H229.72V79H228.72ZM224.52 79V19.4H222.52V79H224.52ZM223.52 20.4H227.92V18.4H223.52V20.4ZM227.09 19.9575L249.33 53.0775L250.99 51.9625L228.75 18.8425L227.09 19.9575ZM250.16 51.52H248V53.52H250.16V51.52ZM248.829 53.0789L271.149 19.9588L269.491 18.8411L247.171 51.9611L248.829 53.0789ZM270.32 20.4H274.72V18.4H270.32V20.4ZM273.72 19.4V79H275.72V19.4H273.72ZM274.72 78H269.52V80H274.72V78ZM270.52 79V27H268.52V79H270.52ZM269.03 27.8716L270.31 28.5916L271.29 26.8484L270.01 26.1284L269.03 27.8716ZM269.969 27.1634L248.369 59.4034L250.031 60.5166L271.631 28.2766L269.969 27.1634ZM249.2 58.96H248.96V60.96H249.2V58.96ZM249.791 59.4034L228.191 27.1634L226.529 28.2766L248.129 60.5166L249.791 59.4034ZM227.828 28.6038L229.188 27.8838L228.252 26.1162L226.892 26.8362L227.828 28.6038ZM227.72 27V79H229.72V27H227.72ZM228.72 78H223.52V80H228.72V78ZM283.532 79L282.593 78.6548L282.099 80H283.532V79ZM305.452 19.4V18.4H304.754L304.513 19.0548L305.452 19.4ZM310.812 19.4L311.75 19.0548L311.51 18.4H310.812V19.4ZM332.732 79V80H334.165L333.67 78.6548L332.732 79ZM327.132 79L326.19 79.337L326.428 80H327.132V79ZM321.692 63.8L322.633 63.463L322.396 62.8H321.692V63.8ZM294.572 63.8V62.8H293.871L293.632 63.4587L294.572 63.8ZM289.052 79V80H289.753L289.992 79.3413L289.052 79ZM296.252 59L295.311 58.6617L294.83 60H296.252V59ZM319.932 59V60H321.354L320.873 58.6617L319.932 59ZM307.132 23.4V22.4H305.71L306.191 23.7383L307.132 23.4ZM309.052 23.4L309.993 23.7383L310.474 22.4H309.052V23.4ZM284.47 79.3452L306.39 19.7452L304.513 19.0548L282.593 78.6548L284.47 79.3452ZM305.452 20.4H310.812V18.4H305.452V20.4ZM309.873 19.7452L331.793 79.3452L333.67 78.6548L311.75 19.0548L309.873 19.7452ZM332.732 78H327.132V80H332.732V78ZM328.073 78.663L322.633 63.463L320.75 64.137L326.19 79.337L328.073 78.663ZM321.692 62.8H294.572V64.8H321.692V62.8ZM293.632 63.4587L288.112 78.6587L289.992 79.3413L295.512 64.1413L293.632 63.4587ZM289.052 78H283.532V80H289.052V78ZM296.252 60H319.932V58H296.252V60ZM320.873 58.6617L308.073 23.0617L306.191 23.7383L318.991 59.3383L320.873 58.6617ZM307.132 24.4H309.052V22.4H307.132V24.4ZM308.111 23.0617L295.311 58.6617L297.193 59.3383L309.993 23.7383L308.111 23.0617ZM354.585 77.72L354.178 78.6333L354.189 78.6384L354.585 77.72ZM345.465 71.24L344.73 71.9183L344.737 71.9258L345.465 71.24ZM339.465 61.48L338.528 61.8282L338.532 61.8399L339.465 61.48ZM339.465 36.92L338.53 36.5645L338.528 36.5718L339.465 36.92ZM345.465 27.16L344.737 26.4742L344.737 26.4746L345.465 27.16ZM354.585 20.76L354.981 21.6785L354.992 21.6732L354.585 20.76ZM389.545 33.08L389.95 33.9944L390.832 33.6041L390.473 32.7086L389.545 33.08ZM384.665 35.24L383.752 35.6487L384.159 36.5574L385.07 36.1544L384.665 35.24ZM377.385 26.6L376.821 27.4257L376.827 27.4299L377.385 26.6ZM353.785 26.6L353.263 25.747L353.257 25.7506L353.785 26.6ZM345.545 35.72L346.434 36.1771L346.437 36.1721L345.545 35.72ZM345.545 62.68L344.653 63.1321L345.545 62.68ZM353.785 71.8L353.257 72.6494L353.265 72.6541L353.272 72.6586L353.785 71.8ZM377.385 71.8L377.94 72.6321L377.943 72.63L377.385 71.8ZM384.665 63.16L385.07 62.2456L384.159 61.8426L383.752 62.7513L384.665 63.16ZM389.545 65.32L390.471 65.6986L390.839 64.799L389.95 64.4056L389.545 65.32ZM384.825 72.2L385.541 72.8985L385.541 72.8985L384.825 72.2ZM376.745 77.8L377.155 78.712L377.168 78.7062L376.745 77.8ZM362.345 96.2L362.692 95.2623L362.692 95.2623L362.345 96.2ZM358.745 93.96L357.823 93.5739L357.564 94.1927L358.038 94.6671L358.745 93.96ZM360.185 90.52L360.892 89.8129L359.838 88.7589L359.263 90.1339L360.185 90.52ZM363.065 92.44L363.459 91.5209L363.448 91.5161L363.436 91.5115L363.065 92.44ZM369.305 92.12L368.654 91.3607L368.639 91.3737L368.625 91.3872L369.305 92.12ZM368.345 86.52L367.856 87.3925L367.864 87.3965L367.871 87.4005L368.345 86.52ZM362.345 85L361.386 84.7178L361.045 85.875L362.245 85.995L362.345 85ZM364.345 78.2V77.2H363.597L363.386 77.9178L364.345 78.2ZM368.185 78.2L369.152 78.4554L369.483 77.2H368.185V78.2ZM367.065 82.44L366.098 82.1846L365.824 83.2206L366.877 83.4222L367.065 82.44ZM372.905 85.08L373.598 84.3592L373.591 84.3521L373.583 84.3452L372.905 85.08ZM372.665 95L372.012 94.2426L372.012 94.2426L372.665 95ZM365.945 78.96C361.962 78.96 358.312 78.2365 354.981 76.8016L354.189 78.6384C357.792 80.1902 361.714 80.96 365.945 80.96V78.96ZM354.992 76.8068C351.647 75.3142 348.716 73.2317 346.193 70.5542L344.737 71.9258C347.441 74.795 350.59 77.0325 354.178 78.6332L354.992 76.8068ZM346.2 70.5617C343.73 67.8866 341.795 64.7429 340.398 61.1201L338.532 61.8399C340.015 65.6837 342.08 69.0468 344.73 71.9183L346.2 70.5617ZM340.402 61.1318C339.062 57.5229 338.385 53.5359 338.385 49.16H336.385C336.385 53.7441 337.095 57.9704 338.528 61.8282L340.402 61.1318ZM338.385 49.16C338.385 44.839 339.062 40.8784 340.402 37.2682L338.528 36.5718C337.095 40.4283 336.385 44.6277 336.385 49.16H338.385ZM340.4 37.2754C341.797 33.6008 343.73 30.4622 346.193 27.8454L344.737 26.4746C342.08 29.2978 340.013 32.6659 338.53 36.5646L340.4 37.2754ZM346.193 27.8458C348.713 25.1709 351.641 23.1172 354.981 21.6784L354.189 19.8416C350.596 21.3895 347.443 23.6024 344.737 26.4742L346.193 27.8458ZM354.992 21.6732C358.321 20.1883 361.967 19.44 365.945 19.44V17.44C361.71 17.44 357.783 18.2383 354.178 19.8468L354.992 21.6732ZM365.945 19.44C369.823 19.44 373.281 20.1376 376.335 21.5119L377.155 19.6881C373.809 18.1824 370.067 17.44 365.945 17.44V19.44ZM376.335 21.5119C379.434 22.9067 382.02 24.6783 384.109 26.8185L385.541 25.4215C383.256 23.0817 380.456 21.1733 377.155 19.6881L376.335 21.5119ZM384.109 26.8185C386.223 28.9839 387.714 31.1962 388.617 33.4514L390.473 32.7086C389.456 30.1638 387.8 27.7361 385.541 25.4215L384.109 26.8185ZM389.14 32.1656L384.26 34.3256L385.07 36.1544L389.95 33.9944L389.14 32.1656ZM385.578 34.8313C383.901 31.0869 381.351 28.061 377.943 25.77L376.827 27.4299C379.925 29.5123 382.229 32.2464 383.752 35.6487L385.578 34.8313ZM377.949 25.7744C374.56 23.4585 370.543 22.32 365.945 22.32V24.32C370.2 24.32 373.81 25.3682 376.821 27.4256L377.949 25.7744ZM365.945 22.32C361.243 22.32 357.006 23.4563 353.263 25.747L354.307 27.453C357.71 25.3703 361.58 24.32 365.945 24.32V22.32ZM353.257 25.7506C349.573 28.0391 346.705 31.2204 344.653 35.2679L346.437 36.1721C348.332 32.433 350.957 29.5343 354.313 27.4494L353.257 25.7506ZM344.656 35.2629C342.597 39.2684 341.585 43.9104 341.585 49.16H343.585C343.585 44.1696 344.546 39.8516 346.434 36.1771L344.656 35.2629ZM341.585 49.16C341.585 54.41 342.597 59.0763 344.653 63.1321L346.437 62.2279C344.546 58.497 343.585 54.15 343.585 49.16H341.585ZM344.653 63.1321C346.705 67.1796 349.573 70.3609 353.257 72.6494L354.313 70.9506C350.957 68.8657 348.332 65.967 346.437 62.2279L344.653 63.1321ZM353.272 72.6586C357.014 74.8927 361.248 76 365.945 76V74C361.576 74 357.702 72.974 354.298 70.9414L353.272 72.6586ZM365.945 76C370.538 76 374.552 74.8907 377.94 72.6321L376.83 70.9679C373.818 72.9759 370.205 74 365.945 74V76ZM377.943 72.63C381.351 70.339 383.901 67.3131 385.578 63.5687L383.752 62.7513C382.229 66.1536 379.925 68.8877 376.827 70.97L377.943 72.63ZM384.26 64.0744L389.14 66.2344L389.95 64.4056L385.07 62.2456L384.26 64.0744ZM388.619 64.9414C387.718 67.1445 386.227 69.3327 384.109 71.5015L385.541 72.8985C387.797 70.5873 389.452 68.1888 390.471 65.6986L388.619 64.9414ZM384.109 71.5015C382.017 73.6448 379.427 75.445 376.322 76.8938L377.168 78.7062C380.463 77.1683 383.26 75.2352 385.541 72.8985L384.109 71.5015ZM376.335 76.8881C373.281 78.2624 369.823 78.96 365.945 78.96V80.96C370.067 80.96 373.809 80.2176 377.155 78.7119L376.335 76.8881ZM366.745 96C365.374 96 364.024 95.7556 362.692 95.2623L361.998 97.1377C363.546 97.7111 365.13 98 366.745 98V96ZM362.692 95.2623C361.37 94.7724 360.298 94.0984 359.452 93.2529L358.038 94.6671C359.112 95.7416 360.44 96.5609 361.998 97.1377L362.692 95.2623ZM359.667 94.3461L361.107 90.9061L359.263 90.1339L357.823 93.5739L359.667 94.3461ZM359.478 91.2271C360.422 92.1713 361.495 92.889 362.694 93.3685L363.436 91.5115C362.502 91.1377 361.655 90.5754 360.892 89.8129L359.478 91.2271ZM362.671 93.3591C363.891 93.8819 365.092 94.16 366.265 94.16V92.16C365.412 92.16 364.479 91.9581 363.459 91.5209L362.671 93.3591ZM366.265 94.16C367.73 94.16 369.01 93.7588 369.985 92.8528L368.625 91.3872C368.107 91.8678 367.36 92.16 366.265 92.16V94.16ZM369.956 92.8793C370.918 92.0546 371.425 90.98 371.425 89.72H369.425C369.425 90.38 369.185 90.9054 368.654 91.3607L369.956 92.8793ZM371.425 89.72C371.425 87.9084 370.476 86.5318 368.819 85.6395L367.871 87.4005C368.987 88.0015 369.425 88.7583 369.425 89.72H371.425ZM368.834 85.6475C367.322 84.801 365.16 84.2765 362.445 84.005L362.245 85.995C364.863 86.2568 366.701 86.7457 367.856 87.3925L368.834 85.6475ZM363.304 85.2822L365.304 78.4822L363.386 77.9178L361.386 84.7178L363.304 85.2822ZM364.345 79.2H368.185V77.2H364.345V79.2ZM367.218 77.9446L366.098 82.1846L368.032 82.6954L369.152 78.4554L367.218 77.9446ZM366.877 83.4222C369.263 83.879 371.017 84.6986 372.227 85.8148L373.583 84.3452C372.019 82.9014 369.88 81.961 367.253 81.4578L366.877 83.4222ZM372.212 85.8008C373.416 86.9584 373.985 88.2766 373.985 89.8H375.985C375.985 87.6967 375.168 85.8682 373.598 84.3592L372.212 85.8008ZM373.985 89.8C373.985 91.6573 373.327 93.1087 372.012 94.2426L373.318 95.7574C375.096 94.2246 375.985 92.2094 375.985 89.8H373.985ZM372.012 94.2426C370.678 95.3927 368.95 96 366.745 96V98C369.34 98 371.559 97.2739 373.318 95.7574L372.012 94.2426ZM395.798 79L394.859 78.6548L394.364 80H395.798V79ZM417.718 19.4V18.4H417.02L416.779 19.0548L417.718 19.4ZM423.078 19.4L424.016 19.0548L423.775 18.4H423.078V19.4ZM444.998 79V80H446.431L445.936 78.6548L444.998 79ZM439.398 79L438.456 79.337L438.693 80H439.398V79ZM433.958 63.8L434.899 63.463L434.662 62.8H433.958V63.8ZM406.838 63.8V62.8H406.137L405.898 63.4587L406.838 63.8ZM401.318 79V80H402.018L402.257 79.3413L401.318 79ZM408.518 59L407.576 58.6617L407.095 60H408.518V59ZM432.198 59V60H433.62L433.139 58.6617L432.198 59ZM419.398 23.4V22.4H417.975L418.456 23.7383L419.398 23.4ZM421.318 23.4L422.259 23.7383L422.74 22.4H421.318V23.4ZM419.478 8.04L418.691 8.65782L418.716 8.68907L418.743 8.71828L419.478 8.04ZM417.718 6.11999L418.39 5.38006L418.39 5.38005L417.718 6.11999ZM413.238 6.52L412.431 5.92859L412.424 5.93876L413.238 6.52ZM412.438 10.36V11.36H413.438V10.36H412.438ZM408.358 10.36H407.358V11.36H408.358V10.36ZM410.278 3.64L411.058 4.26469L411.063 4.25847L411.068 4.25217L410.278 3.64ZM418.838 1.96L418.283 2.79205L418.295 2.8002L418.308 2.80799L418.838 1.96ZM420.998 3.87999L420.211 4.49782L420.236 4.52907L420.263 4.55827L420.998 3.87999ZM422.838 5.71999L422.165 6.45994L422.181 6.47442L422.197 6.48821L422.838 5.71999ZM427.558 5.24L426.733 4.67347L426.733 4.67347L427.558 5.24ZM428.438 1.48V0.479997H427.438V1.48H428.438ZM432.438 1.48H433.438V0.479997H432.438V1.48ZM430.438 8.12L429.649 7.50435L429.643 7.51212L429.638 7.52L430.438 8.12ZM396.736 79.3452L418.656 19.7452L416.779 19.0548L394.859 78.6548L396.736 79.3452ZM417.718 20.4H423.078V18.4H417.718V20.4ZM422.139 19.7452L444.059 79.3452L445.936 78.6548L424.016 19.0548L422.139 19.7452ZM444.998 78H439.398V80H444.998V78ZM440.339 78.663L434.899 63.463L433.016 64.137L438.456 79.337L440.339 78.663ZM433.958 62.8H406.838V64.8H433.958V62.8ZM405.898 63.4587L400.378 78.6587L402.257 79.3413L407.777 64.1413L405.898 63.4587ZM401.318 78H395.798V80H401.318V78ZM408.518 60H432.198V58H408.518V60ZM433.139 58.6617L420.339 23.0617L418.456 23.7383L431.256 59.3383L433.139 58.6617ZM419.398 24.4H421.318V22.4H419.398V24.4ZM420.376 23.0617L407.576 58.6617L409.459 59.3383L422.259 23.7383L420.376 23.0617ZM425.078 9.68C423.81 9.68 422.893 9.43518 422.248 9.032L421.188 10.728C422.249 11.3915 423.572 11.68 425.078 11.68V9.68ZM422.248 9.032C421.465 8.54274 420.788 7.98541 420.212 7.36172L418.743 8.71828C419.447 9.48125 420.264 10.1506 421.188 10.728L422.248 9.032ZM420.264 7.42218C419.649 6.63999 419.025 5.95733 418.39 5.38006L417.045 6.85993C417.583 7.34933 418.132 7.94668 418.691 8.65782L420.264 7.42218ZM418.39 5.38005C417.593 4.65533 416.595 4.31999 415.478 4.31999V6.31999C416.174 6.31999 416.669 6.51799 417.045 6.85993L418.39 5.38005ZM415.478 4.31999C414.219 4.31999 413.186 4.89984 412.431 5.92864L414.044 7.11136C414.463 6.54015 414.923 6.31999 415.478 6.31999V4.31999ZM412.424 5.93876C411.698 6.95465 411.438 8.50855 411.438 10.36H413.438C413.438 8.58478 413.71 7.57868 414.051 7.10124L412.424 5.93876ZM412.438 9.36H408.358V11.36H412.438V9.36ZM409.358 10.36C409.358 7.61662 409.968 5.62773 411.058 4.26469L409.497 3.0153C408.027 4.85227 407.358 7.34337 407.358 10.36H409.358ZM411.068 4.25217C412.139 2.86944 413.619 2.16 415.638 2.16V0.159996C413.069 0.159996 410.976 1.10389 409.487 3.02782L411.068 4.25217ZM415.638 2.16C416.847 2.16 417.699 2.40303 418.283 2.79205L419.392 1.12794C418.376 0.450299 417.094 0.159996 415.638 0.159996V2.16ZM418.308 2.80799C419.069 3.2837 419.7 3.84744 420.211 4.49782L421.784 3.26217C421.121 2.41921 420.313 1.70296 419.367 1.112L418.308 2.80799ZM420.263 4.55827C420.919 5.26917 421.553 5.9037 422.165 6.45994L423.51 4.98005C422.949 4.46962 422.356 3.87749 421.732 3.20171L420.263 4.55827ZM422.197 6.48821C423.033 7.18492 424.039 7.52 425.158 7.52V5.52C424.463 5.52 423.922 5.32174 423.478 4.95177L422.197 6.48821ZM425.158 7.52C426.509 7.52 427.613 6.9241 428.382 5.80652L426.733 4.67347C426.328 5.26257 425.833 5.52 425.158 5.52V7.52ZM428.382 5.80652C429.133 4.714 429.438 3.22484 429.438 1.48H427.438C427.438 3.04182 427.156 4.05933 426.733 4.67347L428.382 5.80652ZM428.438 2.48H432.438V0.479997H428.438V2.48ZM431.438 1.48C431.438 4.03504 430.813 6.01442 429.649 7.50435L431.226 8.73564C432.728 6.81224 433.438 4.36495 433.438 1.48H431.438ZM429.638 7.52C428.562 8.9537 427.084 9.68 425.078 9.68V11.68C427.658 11.68 429.753 10.6996 431.238 8.72L429.638 7.52ZM467.651 77.72L467.253 78.6378L467.265 78.6427L467.651 77.72ZM458.211 71.32L457.49 72.0131L457.497 72.0202L457.504 72.0271L458.211 71.32ZM451.891 61.56L450.96 61.9269L450.963 61.9348L450.967 61.9427L451.891 61.56ZM451.891 36.76L450.967 36.3772L450.962 36.3886L451.891 36.76ZM458.291 27.08L458.998 27.7871L459.005 27.7802L458.291 27.08ZM467.651 20.68L467.265 19.7573L467.26 19.7594L467.651 20.68ZM490.611 20.68L490.996 19.7573L490.996 19.7573L490.611 20.68ZM499.971 27.08L499.25 27.7731L499.257 27.7802L499.264 27.7871L499.971 27.08ZM506.371 36.84L505.445 37.2181L505.447 37.2227L506.371 36.84ZM506.371 61.56L507.294 61.9427L507.296 61.9381L506.371 61.56ZM499.971 71.32L499.257 70.6198L499.257 70.6199L499.971 71.32ZM490.611 77.72L490.996 78.6427L491.008 78.6377L490.611 77.72ZM489.011 73L488.603 72.0869L488.603 72.0869L489.011 73ZM496.691 67.4L495.951 66.7265L495.943 66.7356L496.691 67.4ZM501.731 59.16L502.666 59.5147L502.668 59.5094L501.731 59.16ZM501.731 39.32L500.794 39.6694L500.796 39.6747L501.731 39.32ZM496.691 31L495.943 31.6644L495.951 31.6735L496.691 31ZM489.011 25.4L488.583 26.3041L488.593 26.3087L488.603 26.3131L489.011 25.4ZM469.251 25.4L469.664 26.3104L469.672 26.307L469.251 25.4ZM461.571 31L460.831 30.3265L460.823 30.3356L461.571 31ZM456.611 39.32L457.546 39.6747L457.548 39.6694L456.611 39.32ZM456.611 59.16L455.674 59.5094L455.676 59.5147L456.611 59.16ZM461.571 67.4L460.823 68.0644L460.831 68.0735L461.571 67.4ZM469.331 73L469.738 72.0869L469.738 72.0869L469.331 73ZM479.171 78.96C475.188 78.96 471.48 78.2366 468.036 76.7973L467.265 78.6427C470.968 80.1901 474.94 80.96 479.171 80.96V78.96ZM468.048 76.8023C464.589 75.305 461.548 73.2427 458.918 70.6129L457.504 72.0271C460.314 74.8373 463.566 77.0416 467.253 78.6377L468.048 76.8023ZM458.931 70.6269C456.356 67.9479 454.316 64.8013 452.814 61.1773L450.967 61.9427C452.559 65.7854 454.732 69.1454 457.49 72.0131L458.931 70.6269ZM452.821 61.1931C451.378 57.5345 450.651 53.5271 450.651 49.16H448.651C448.651 53.7529 449.417 58.0122 450.96 61.9269L452.821 61.1931ZM450.651 49.16C450.651 44.7378 451.379 40.7325 452.819 37.1314L450.962 36.3886C449.416 40.2542 448.651 44.5156 448.651 49.16H450.651ZM452.814 37.1427C454.313 33.5245 456.375 30.4096 458.998 27.7871L457.584 26.3729C454.766 29.1904 452.561 32.5289 450.967 36.3773L452.814 37.1427ZM459.005 27.7802C461.634 25.0994 464.644 23.0416 468.041 21.6006L467.26 19.7594C463.617 21.305 460.387 23.514 457.577 26.3798L459.005 27.7802ZM468.036 21.6027C471.48 20.1634 475.188 19.44 479.171 19.44V17.44C474.94 17.44 470.968 18.2099 467.265 19.7573L468.036 21.6027ZM479.171 19.44C483.098 19.44 486.78 20.1627 490.225 21.6027L490.996 19.7573C487.295 18.2106 483.35 17.44 479.171 17.44V19.44ZM490.225 21.6027C493.673 23.0436 496.679 25.0991 499.25 27.7731L500.691 26.3869C497.929 23.5142 494.695 21.3031 490.996 19.7573L490.225 21.6027ZM499.264 27.7871C501.884 30.4072 503.945 33.5467 505.445 37.2181L507.296 36.4619C505.703 32.56 503.498 29.1928 500.678 26.3729L499.264 27.7871ZM505.447 37.2227C506.938 40.8222 507.691 44.7971 507.691 49.16H509.691C509.691 44.5629 508.897 40.3245 507.294 36.4573L505.447 37.2227ZM507.691 49.16C507.691 53.5227 506.938 57.5262 505.445 61.1819L507.296 61.9381C508.897 58.0204 509.691 53.7573 509.691 49.16H507.691ZM505.447 61.1773C503.947 64.7972 501.883 67.9415 499.257 70.6198L500.685 72.0202C503.498 69.1518 505.701 65.7895 507.294 61.9427L505.447 61.1773ZM499.257 70.6199C496.682 73.2455 493.671 75.3058 490.213 76.8023L491.008 78.6377C494.697 77.0408 497.925 74.8345 500.685 72.0201L499.257 70.6199ZM490.225 76.7973C486.78 78.2373 483.098 78.96 479.171 78.96V80.96C483.35 80.96 487.295 80.1894 490.996 78.6427L490.225 76.7973ZM479.171 76C482.871 76 486.292 75.3089 489.418 73.9131L488.603 72.0869C485.756 73.3578 482.617 74 479.171 74V76ZM489.418 73.9131C492.532 72.523 495.209 70.5725 497.438 68.0644L495.943 66.7356C493.906 69.0275 491.462 70.8103 488.603 72.0869L489.418 73.9131ZM497.43 68.0735C499.703 65.5787 501.449 62.7234 502.666 59.5147L500.796 58.8053C499.666 61.7833 498.052 64.4213 495.951 66.7265L497.43 68.0735ZM502.668 59.5094C503.885 56.2456 504.491 52.7935 504.491 49.16H502.491C502.491 52.5665 501.923 55.781 500.794 58.8106L502.668 59.5094ZM504.491 49.16C504.491 45.578 503.884 42.1773 502.666 38.9653L500.796 39.6747C501.924 42.6493 502.491 45.8086 502.491 49.16H504.491ZM502.668 38.9706C501.451 35.7085 499.705 32.8242 497.43 30.3265L495.951 31.6735C498.049 33.9758 499.663 36.6382 500.794 39.6694L502.668 38.9706ZM497.438 30.3356C495.209 27.8275 492.532 25.877 489.418 24.4869L488.603 26.3131C491.462 27.5897 493.906 29.3725 495.943 31.6644L497.438 30.3356ZM489.438 24.4959C486.356 23.039 482.928 22.32 479.171 22.32V24.32C482.667 24.32 485.799 24.9877 488.583 26.3041L489.438 24.4959ZM479.171 22.32C475.413 22.32 471.961 23.0391 468.83 24.493L469.672 26.307C472.514 24.9876 475.675 24.32 479.171 24.32V22.32ZM468.837 24.4896C465.779 25.8795 463.109 27.8271 460.831 30.3265L462.31 31.6735C464.406 29.3729 466.855 27.5872 469.664 26.3104L468.837 24.4896ZM460.823 30.3356C458.604 32.8322 456.888 35.7135 455.674 38.9706L457.548 39.6694C458.68 36.6331 460.271 33.9678 462.318 31.6644L460.823 30.3356ZM455.676 38.9653C454.457 42.1773 453.851 45.578 453.851 49.16H455.851C455.851 45.8086 456.417 42.6493 457.546 39.6747L455.676 38.9653ZM453.851 49.16C453.851 52.7935 454.457 56.2456 455.674 59.5094L457.548 58.8106C456.418 55.781 455.851 52.5665 455.851 49.16H453.851ZM455.676 59.5147C456.891 62.7183 458.607 65.5706 460.823 68.0644L462.318 66.7356C460.268 64.4294 458.677 61.7884 457.546 58.8053L455.676 59.5147ZM460.831 68.0735C463.112 70.5761 465.811 72.5241 468.923 73.9131L469.738 72.0869C466.877 70.8093 464.403 69.0239 462.31 66.7265L460.831 68.0735ZM468.923 73.9131C472.049 75.3089 475.47 76 479.171 76V74C475.725 74 472.585 73.3578 469.738 72.0869L468.923 73.9131Z" fill="url(#paint0_linear_423_7)" mask="url(#path-1-outside-1_423_7)"/>
<defs>
<linearGradient id="paint0_linear_423_7" x1="258" y1="-4" x2="258" y2="97" gradientUnits="userSpaceOnUse">
<stop stop-color="#1D0DB1"/>
<stop offset="1" stop-color="#F8F8F8"/>
</linearGradient>
</defs>
</svg>
