<svg width="418" height="64" viewBox="0 0 418 64" fill="none" xmlns="http://www.w3.org/2000/svg">
<mask id="path-1-outside-1_404_12369" maskUnits="userSpaceOnUse" x="0" y="0" width="418" height="64" fill="black">
<rect fill="white" width="418" height="64"/>
<path d="M1.52 62V2.39999H26.08C29.3333 2.39999 32.16 3.04 34.56 4.32C37.0133 5.6 38.9067 7.36 40.24 9.6C41.6267 11.84 42.32 14.4267 42.32 17.36C42.32 20.4533 41.52 23.2 39.92 25.6C38.32 28 36.08 29.7333 33.2 30.8V29.44C35.5467 30.1867 37.5733 31.3333 39.28 32.88C41.04 34.3733 42.3733 36.16 43.28 38.24C44.24 40.32 44.72 42.56 44.72 44.96C44.72 50.1333 43.0667 54.2667 39.76 57.36C36.5067 60.4533 31.9467 62 26.08 62H1.52ZM6.72 57.2H25.76C29.9733 57.2 33.3067 56.1067 35.76 53.92C38.2667 51.7333 39.52 48.7733 39.52 45.04C39.52 41.36 38.2933 38.4267 35.84 36.24C33.44 34 30.2133 32.88 26.16 32.88H6.72V57.2ZM6.72 28.16H25.6C29.0667 28.16 31.84 27.1733 33.92 25.2C36.0533 23.2267 37.12 20.64 37.12 17.44C37.12 14.24 36.08 11.7333 34 9.92C31.9733 8.10666 29.1733 7.2 25.6 7.2H6.72V28.16ZM50.9069 62L72.8269 2.39999H78.1869L100.107 62H94.5069L89.0669 46.8H61.9469L56.4269 62H50.9069ZM63.6269 42H87.3069L74.5069 6.4H76.4269L63.6269 42ZM133.32 62.96C129.213 62.96 125.427 62.2133 121.96 60.72C118.493 59.1733 115.453 57.0133 112.84 54.24C110.28 51.4667 108.28 48.2133 106.84 44.48C105.453 40.7467 104.76 36.64 104.76 32.16C104.76 27.7333 105.453 23.6533 106.84 19.92C108.28 16.1333 110.28 12.88 112.84 10.16C115.453 7.38666 118.493 5.25333 121.96 3.76C125.427 2.21333 129.213 1.44 133.32 1.44C137.32 1.44 140.92 2.16 144.12 3.6C147.32 5.04 150.013 6.88 152.2 9.12C154.387 11.36 155.96 13.68 156.92 16.08L152.04 18.24C150.44 14.6667 148.013 11.7867 144.76 9.6C141.56 7.41333 137.747 6.32 133.32 6.32C128.787 6.32 124.733 7.41333 121.16 9.6C117.64 11.7867 114.893 14.8267 112.92 18.72C110.947 22.56 109.96 27.04 109.96 32.16C109.96 37.28 110.947 41.7867 112.92 45.68C114.893 49.5733 117.64 52.6133 121.16 54.8C124.733 56.9333 128.787 58 133.32 58C137.747 58 141.56 56.9333 144.76 54.8C148.013 52.6133 150.44 49.7333 152.04 46.16L156.92 48.32C155.96 50.6667 154.387 52.96 152.2 55.2C150.013 57.44 147.32 59.3067 144.12 60.8C140.92 62.24 137.32 62.96 133.32 62.96ZM169.333 62V2.39999H174.533V38.16L173.013 37.44L204.373 2.39999H211.093L186.933 29.52L187.173 25.84L212.693 62H206.373L184.853 31.68L174.533 43.36V62H169.333ZM219.998 43.04V38.4H246.798V43.04H219.998ZM260.27 62V2.39999H297.87V7.2H265.47V29.68H296.27V34.48H265.47V57.2H297.87V62H260.27ZM309.333 62V2.39999H313.733L349.813 54.16H348.133V2.39999H353.333V62H348.933L312.693 9.92H314.533V62H309.333ZM368.317 62V2.39999H387.597C393.464 2.39999 398.53 3.62666 402.797 6.08C407.117 8.48 410.45 11.92 412.797 16.4C415.144 20.8267 416.317 26.08 416.317 32.16C416.317 38.1867 415.144 43.44 412.797 47.92C410.45 52.4 407.117 55.8667 402.797 58.32C398.53 60.7733 393.464 62 387.597 62H368.317ZM373.517 57.2H387.517C392.264 57.2 396.37 56.16 399.837 54.08C403.357 52 406.077 49.0933 407.997 45.36C409.97 41.5733 410.957 37.1733 410.957 32.16C410.957 27.0933 409.97 22.6933 407.997 18.96C406.077 15.2267 403.357 12.3467 399.837 10.32C396.317 8.24 392.21 7.2 387.517 7.2H373.517V57.2Z"/>
</mask>
<path d="M1.52 62H0.52V63H1.52V62ZM1.52 2.39999V1.39999H0.52V2.39999H1.52ZM34.56 4.32L34.0894 5.20239L34.0974 5.20658L34.56 4.32ZM40.24 9.6L39.3807 10.1115L39.3852 10.119L39.3897 10.1264L40.24 9.6ZM39.92 25.6L39.088 25.0453H39.0879L39.92 25.6ZM33.2 30.8H32.2V32.2368L33.5473 31.7377L33.2 30.8ZM33.2 29.44L33.5032 28.4871L32.2 28.0724V29.44H33.2ZM39.28 32.88L38.6085 33.621L38.6206 33.6319L38.633 33.6425L39.28 32.88ZM43.28 38.24L42.3633 38.6396L42.3676 38.6494L42.372 38.6591L43.28 38.24ZM39.76 57.36L39.0768 56.6297L39.0709 56.6353L39.76 57.36ZM6.72 57.2H5.72V58.2H6.72V57.2ZM35.76 53.92L35.1026 53.1664L35.0946 53.1735L35.76 53.92ZM35.84 36.24L35.1577 36.9711L35.1661 36.9789L35.1746 36.9865L35.84 36.24ZM6.72 32.88V31.88H5.72V32.88H6.72ZM6.72 28.16H5.72V29.16H6.72V28.16ZM33.92 25.2L33.2409 24.4658L33.2317 24.4745L33.92 25.2ZM34 9.92L33.3331 10.6653L33.3429 10.6738L34 9.92ZM6.72 7.2V6.2H5.72V7.2H6.72ZM2.52 62V2.39999H0.52V62H2.52ZM1.52 3.39999H26.08V1.39999H1.52V3.39999ZM26.08 3.39999C29.2012 3.39999 31.8601 4.01338 34.0894 5.20235L35.0306 3.43765C32.4599 2.06661 29.4654 1.39999 26.08 1.39999V3.39999ZM34.0974 5.20658C36.3969 6.40628 38.1482 8.04083 39.3807 10.1115L41.0993 9.08851C39.6652 6.67917 37.6298 4.79372 35.0226 3.43341L34.0974 5.20658ZM39.3897 10.1264C40.6677 12.1907 41.32 14.5909 41.32 17.36H43.32C43.32 14.2624 42.5857 11.4893 41.0903 9.07364L39.3897 10.1264ZM41.32 17.36C41.32 20.2709 40.5704 22.8216 39.088 25.0453L40.752 26.1547C42.4696 23.5784 43.32 20.6358 43.32 17.36H41.32ZM39.0879 25.0453C37.6128 27.258 35.5483 28.8639 32.8527 29.8623L33.5473 31.7377C36.6117 30.6028 39.0272 28.742 40.7521 26.1547L39.0879 25.0453ZM34.2 30.8V29.44H32.2V30.8H34.2ZM32.8968 30.3929C35.1165 31.0992 37.0152 32.1771 38.6085 33.621L39.9515 32.139C38.1315 30.4896 35.9768 29.2741 33.5032 28.4871L32.8968 30.3929ZM38.633 33.6425C40.2787 35.0388 41.5187 36.702 42.3633 38.6396L44.1967 37.8404C43.2279 35.618 41.8013 33.7079 39.927 32.1175L38.633 33.6425ZM42.372 38.6591C43.2685 40.6014 43.72 42.6976 43.72 44.96H45.72C45.72 42.4224 45.2115 40.0386 44.188 37.8209L42.372 38.6591ZM43.72 44.96C43.72 49.8999 42.1518 53.7532 39.0768 56.6297L40.4432 58.0903C43.9816 54.7802 45.72 50.3668 45.72 44.96H43.72ZM39.0709 56.6353C36.055 59.5029 31.7714 61 26.08 61V63C32.1219 63 36.9583 61.4038 40.4491 58.0847L39.0709 56.6353ZM26.08 61H1.52V63H26.08V61ZM6.72 58.2H25.76V56.2H6.72V58.2ZM25.76 58.2C30.1475 58.2 33.7419 57.0583 36.4254 54.6665L35.0946 53.1735C32.8715 55.155 29.7992 56.2 25.76 56.2V58.2ZM36.4174 54.6736C39.1698 52.2725 40.52 49.0227 40.52 45.04H38.52C38.52 48.5239 37.3635 51.1942 35.1026 53.1664L36.4174 54.6736ZM40.52 45.04C40.52 41.1129 39.1984 37.8938 36.5054 35.4935L35.1746 36.9865C37.3882 38.9595 38.52 41.6071 38.52 45.04H40.52ZM36.5223 35.5089C33.8961 33.0578 30.4042 31.88 26.16 31.88V33.88C30.0224 33.88 32.9839 34.9422 35.1577 36.9711L36.5223 35.5089ZM26.16 31.88H6.72V33.88H26.16V31.88ZM5.72 32.88V57.2H7.72V32.88H5.72ZM6.72 29.16H25.6V27.16H6.72V29.16ZM25.6 29.16C29.2661 29.16 32.305 28.1106 34.6083 25.9255L33.2317 24.4745C31.375 26.2361 28.8673 27.16 25.6 27.16V29.16ZM34.599 25.9341C36.9589 23.7512 38.12 20.8874 38.12 17.44H36.12C36.12 20.3926 35.1477 22.7021 33.241 24.4659L34.599 25.9341ZM38.12 17.44C38.12 14.002 36.9907 11.2006 34.6571 9.16623L33.3429 10.6738C35.1693 12.266 36.12 14.4779 36.12 17.44H38.12ZM34.6668 9.17476C32.4054 7.15143 29.3405 6.2 25.6 6.2V8.2C29.0062 8.2 31.5412 9.06189 33.3332 10.6652L34.6668 9.17476ZM25.6 6.2H6.72V8.2H25.6V6.2ZM5.72 7.2V28.16H7.72V7.2H5.72ZM50.9069 62L49.9683 61.6548L49.4736 63H50.9069V62ZM72.8269 2.39999V1.39999H72.1292L71.8883 2.05482L72.8269 2.39999ZM78.1869 2.39999L79.1254 2.05482L78.8846 1.39999H78.1869V2.39999ZM100.107 62V63H101.54L101.045 61.6548L100.107 62ZM94.5069 62L93.5654 62.337L93.8027 63H94.5069V62ZM89.0669 46.8L90.0084 46.463L89.7711 45.8H89.0669V46.8ZM61.9469 46.8V45.8H61.2461L61.0069 46.4587L61.9469 46.8ZM56.4269 62V63H57.1276L57.3668 62.3413L56.4269 62ZM63.6269 42L62.6859 41.6617L62.2047 43H63.6269V42ZM87.3069 42V43H88.7291L88.2479 41.6617L87.3069 42ZM74.5069 6.4V5.4H73.0846L73.5659 6.73834L74.5069 6.4ZM76.4269 6.4L77.3679 6.73834L77.8491 5.4H76.4269V6.4ZM51.8454 62.3452L73.7654 2.74517L71.8883 2.05482L49.9683 61.6548L51.8454 62.3452ZM72.8269 3.39999H78.1869V1.39999H72.8269V3.39999ZM77.2483 2.74517L99.1683 62.3452L101.045 61.6548L79.1254 2.05482L77.2483 2.74517ZM100.107 61H94.5069V63H100.107V61ZM95.4484 61.663L90.0084 46.463L88.1254 47.137L93.5654 62.337L95.4484 61.663ZM89.0669 45.8H61.9469V47.8H89.0669V45.8ZM61.0069 46.4587L55.4869 61.6587L57.3668 62.3413L62.8868 47.1413L61.0069 46.4587ZM56.4269 61H50.9069V63H56.4269V61ZM63.6269 43H87.3069V41H63.6269V43ZM88.2479 41.6617L75.4479 6.06165L73.5659 6.73834L86.3659 42.3383L88.2479 41.6617ZM74.5069 7.4H76.4269V5.4H74.5069V7.4ZM75.4859 6.06165L62.6859 41.6617L64.5679 42.3383L77.3679 6.73834L75.4859 6.06165ZM121.96 60.72L121.553 61.6333L121.564 61.6384L121.96 60.72ZM112.84 54.24L112.105 54.9183L112.112 54.9258L112.84 54.24ZM106.84 44.48L105.903 44.8282L105.907 44.8399L106.84 44.48ZM106.84 19.92L105.905 19.5645L105.903 19.5718L106.84 19.92ZM112.84 10.16L112.112 9.4742L112.112 9.47463L112.84 10.16ZM121.96 3.76L122.356 4.67849L122.367 4.67323L121.96 3.76ZM156.92 16.08L157.325 16.9944L158.207 16.6041L157.848 15.7086L156.92 16.08ZM152.04 18.24L151.127 18.6487L151.534 19.5574L152.445 19.1544L152.04 18.24ZM144.76 9.6L144.196 10.4257L144.202 10.4299L144.76 9.6ZM121.16 9.6L120.638 8.74701L120.632 8.75056L121.16 9.6ZM112.92 18.72L113.809 19.1771L113.812 19.1721L112.92 18.72ZM112.92 45.68L112.028 46.1321L112.92 45.68ZM121.16 54.8L120.632 55.6494L120.64 55.6541L120.647 55.6586L121.16 54.8ZM144.76 54.8L145.315 55.6321L145.318 55.63L144.76 54.8ZM152.04 46.16L152.445 45.2456L151.534 44.8426L151.127 45.7513L152.04 46.16ZM156.92 48.32L157.846 48.6986L158.214 47.799L157.325 47.4056L156.92 48.32ZM152.2 55.2L152.916 55.8985L152.2 55.2ZM144.12 60.8L144.53 61.712L144.543 61.7062L144.12 60.8ZM133.32 61.96C129.337 61.96 125.687 61.2365 122.356 59.8016L121.564 61.6384C125.167 63.1902 129.089 63.96 133.32 63.96V61.96ZM122.367 59.8068C119.022 58.3142 116.091 56.2317 113.568 53.5542L112.112 54.9258C114.816 57.795 117.965 60.0325 121.553 61.6332L122.367 59.8068ZM113.575 53.5617C111.105 50.8866 109.17 47.7429 107.773 44.1201L105.907 44.8399C107.39 48.6837 109.455 52.0468 112.105 54.9183L113.575 53.5617ZM107.777 44.1318C106.437 40.5229 105.76 36.5359 105.76 32.16H103.76C103.76 36.7441 104.47 40.9704 105.903 44.8282L107.777 44.1318ZM105.76 32.16C105.76 27.839 106.437 23.8784 107.777 20.2682L105.903 19.5718C104.47 23.4283 103.76 27.6277 103.76 32.16H105.76ZM107.775 20.2754C109.172 16.6008 111.105 13.4622 113.568 10.8454L112.112 9.47463C109.455 12.2978 107.388 15.6659 105.905 19.5645L107.775 20.2754ZM113.568 10.8458C116.088 8.1709 119.016 6.11718 122.356 4.67841L121.564 2.84158C117.971 4.38948 114.818 6.60243 112.112 9.4742L113.568 10.8458ZM122.367 4.67323C125.696 3.18832 129.342 2.44 133.32 2.44V0.439999C129.085 0.439999 125.158 1.23834 121.553 2.84677L122.367 4.67323ZM133.32 2.44C137.198 2.44 140.656 3.13757 143.71 4.51192L144.53 2.68808C141.184 1.18242 137.442 0.439999 133.32 0.439999V2.44ZM143.71 4.51192C146.809 5.90672 149.395 7.67834 151.484 9.81853L152.916 8.42146C150.631 6.08165 147.831 4.17328 144.53 2.68808L143.71 4.51192ZM151.484 9.81853C153.598 11.9839 155.089 14.1962 155.992 16.4514L157.848 15.7086C156.831 13.1638 155.175 10.7361 152.916 8.42146L151.484 9.81853ZM156.515 15.1656L151.635 17.3256L152.445 19.1544L157.325 16.9944L156.515 15.1656ZM152.953 17.8313C151.276 14.0869 148.726 11.061 145.318 8.77005L144.202 10.4299C147.3 12.5123 149.604 15.2464 151.127 18.6487L152.953 17.8313ZM145.324 8.77435C141.935 6.45849 137.918 5.32 133.32 5.32V7.32C137.575 7.32 141.185 8.36817 144.196 10.4256L145.324 8.77435ZM133.32 5.32C128.618 5.32 124.381 6.45634 120.638 8.74703L121.682 10.453C125.085 8.37032 128.955 7.32 133.32 7.32V5.32ZM120.632 8.75056C116.948 11.0391 114.08 14.2204 112.028 18.2679L113.812 19.1721C115.707 15.433 118.332 12.5343 121.688 10.4494L120.632 8.75056ZM112.031 18.2629C109.972 22.2684 108.96 26.9104 108.96 32.16H110.96C110.96 27.1696 111.921 22.8516 113.809 19.1771L112.031 18.2629ZM108.96 32.16C108.96 37.41 109.972 42.0763 112.028 46.1321L113.812 45.2279C111.921 41.497 110.96 37.15 110.96 32.16H108.96ZM112.028 46.1321C114.08 50.1796 116.948 53.3609 120.632 55.6494L121.688 53.9506C118.332 51.8657 115.707 48.967 113.812 45.2279L112.028 46.1321ZM120.647 55.6586C124.389 57.8927 128.623 59 133.32 59V57C128.951 57 125.077 55.974 121.673 53.9414L120.647 55.6586ZM133.32 59C137.913 59 141.927 57.8907 145.315 55.632L144.205 53.9679C141.193 55.9759 137.58 57 133.32 57V59ZM145.318 55.63C148.726 53.339 151.276 50.3131 152.953 46.5687L151.127 45.7513C149.604 49.1536 147.3 51.8877 144.202 53.97L145.318 55.63ZM151.635 47.0744L156.515 49.2344L157.325 47.4056L152.445 45.2456L151.635 47.0744ZM155.994 47.9414C155.093 50.1445 153.602 52.3326 151.484 54.5015L152.916 55.8985C155.172 53.5873 156.827 51.1888 157.846 48.6986L155.994 47.9414ZM151.484 54.5015C149.392 56.6448 146.802 58.445 143.697 59.8938L144.543 61.7062C147.838 60.1683 150.635 58.2352 152.916 55.8985L151.484 54.5015ZM143.71 59.8881C140.656 61.2624 137.198 61.96 133.32 61.96V63.96C137.442 63.96 141.184 63.2176 144.53 61.7119L143.71 59.8881ZM169.333 62H168.333V63H169.333V62ZM169.333 2.39999V1.39999H168.333V2.39999H169.333ZM174.533 2.39999H175.533V1.39999H174.533V2.39999ZM174.533 38.16L174.104 39.0637L175.533 39.7402V38.16H174.533ZM173.012 37.44L172.267 36.7731L171.375 37.7707L172.584 38.3437L173.012 37.44ZM204.372 2.39999V1.39999H203.925L203.627 1.7331L204.372 2.39999ZM211.092 2.39999L211.839 3.06518L213.323 1.39999H211.092V2.39999ZM186.932 29.52L185.935 29.4549L185.745 32.3559L187.679 30.1852L186.932 29.52ZM187.173 25.84L187.99 25.2634L186.359 22.9526L186.175 25.7749L187.173 25.84ZM212.693 62V63H214.622L213.51 61.4234L212.693 62ZM206.372 62L205.557 62.5788L205.856 63H206.372V62ZM184.853 31.68L185.668 31.1012L184.938 30.0729L184.103 31.0179L184.853 31.68ZM174.533 43.36L173.783 42.6979L173.533 42.9815V43.36H174.533ZM174.533 62V63H175.533V62H174.533ZM170.333 62V2.39999H168.333V62H170.333ZM169.333 3.39999H174.533V1.39999H169.333V3.39999ZM173.533 2.39999V38.16H175.533V2.39999H173.533ZM174.961 37.2563L173.441 36.5363L172.584 38.3437L174.104 39.0637L174.961 37.2563ZM173.758 38.1069L205.118 3.06689L203.627 1.7331L172.267 36.7731L173.758 38.1069ZM204.372 3.39999H211.092V1.39999H204.372V3.39999ZM210.346 1.73481L186.186 28.8548L187.679 30.1852L211.839 3.06518L210.346 1.73481ZM187.93 29.5851L188.17 25.9051L186.175 25.7749L185.935 29.4549L187.93 29.5851ZM186.355 26.4166L211.875 62.5766L213.51 61.4234L187.99 25.2634L186.355 26.4166ZM212.693 61H206.372V63H212.693V61ZM207.188 61.4212L185.668 31.1012L184.037 32.2588L205.557 62.5788L207.188 61.4212ZM184.103 31.0179L173.783 42.6979L175.282 44.0221L185.602 32.3421L184.103 31.0179ZM173.533 43.36V62H175.533V43.36H173.533ZM174.533 61H169.333V63H174.533V61ZM219.998 43.04H218.998V44.04H219.998V43.04ZM219.998 38.4V37.4H218.998V38.4H219.998ZM246.798 38.4H247.798V37.4H246.798V38.4ZM246.798 43.04V44.04H247.798V43.04H246.798ZM220.998 43.04V38.4H218.998V43.04H220.998ZM219.998 39.4H246.798V37.4H219.998V39.4ZM245.798 38.4V43.04H247.798V38.4H245.798ZM246.798 42.04H219.998V44.04H246.798V42.04ZM260.27 62H259.27V63H260.27V62ZM260.27 2.39999V1.39999H259.27V2.39999H260.27ZM297.87 2.39999H298.87V1.39999H297.87V2.39999ZM297.87 7.2V8.2H298.87V7.2H297.87ZM265.47 7.2V6.2H264.47V7.2H265.47ZM265.47 29.68H264.47V30.68H265.47V29.68ZM296.27 29.68H297.27V28.68H296.27V29.68ZM296.27 34.48V35.48H297.27V34.48H296.27ZM265.47 34.48V33.48H264.47V34.48H265.47ZM265.47 57.2H264.47V58.2H265.47V57.2ZM297.87 57.2H298.87V56.2H297.87V57.2ZM297.87 62V63H298.87V62H297.87ZM261.27 62V2.39999H259.27V62H261.27ZM260.27 3.39999H297.87V1.39999H260.27V3.39999ZM296.87 2.39999V7.2H298.87V2.39999H296.87ZM297.87 6.2H265.47V8.2H297.87V6.2ZM264.47 7.2V29.68H266.47V7.2H264.47ZM265.47 30.68H296.27V28.68H265.47V30.68ZM295.27 29.68V34.48H297.27V29.68H295.27ZM296.27 33.48H265.47V35.48H296.27V33.48ZM264.47 34.48V57.2H266.47V34.48H264.47ZM265.47 58.2H297.87V56.2H265.47V58.2ZM296.87 57.2V62H298.87V57.2H296.87ZM297.87 61H260.27V63H297.87V61ZM309.332 62H308.332V63H309.332V62ZM309.332 2.39999V1.39999H308.332V2.39999H309.332ZM313.733 2.39999L314.553 1.82815L314.254 1.39999H313.733V2.39999ZM349.812 54.16V55.16H351.729L350.633 53.5882L349.812 54.16ZM348.133 54.16H347.133V55.16H348.133V54.16ZM348.133 2.39999V1.39999H347.133V2.39999H348.133ZM353.333 2.39999H354.333V1.39999H353.333V2.39999ZM353.333 62V63H354.333V62H353.333ZM348.932 62L348.112 62.5712L348.41 63H348.932V62ZM312.693 9.92V8.92H310.778L311.872 10.4912L312.693 9.92ZM314.533 9.92H315.533V8.92H314.533V9.92ZM314.533 62V63H315.533V62H314.533ZM310.332 62V2.39999H308.332V62H310.332ZM309.332 3.39999H313.733V1.39999H309.332V3.39999ZM312.912 2.97184L348.992 54.7318L350.633 53.5882L314.553 1.82815L312.912 2.97184ZM349.812 53.16H348.133V55.16H349.812V53.16ZM349.133 54.16V2.39999H347.133V54.16H349.133ZM348.133 3.39999H353.333V1.39999H348.133V3.39999ZM352.333 2.39999V62H354.333V2.39999H352.333ZM353.333 61H348.932V63H353.333V61ZM349.753 61.4288L313.513 9.34882L311.872 10.4912L348.112 62.5712L349.753 61.4288ZM312.693 10.92H314.533V8.92H312.693V10.92ZM313.533 9.92V62H315.533V9.92H313.533ZM314.533 61H309.332V63H314.533V61ZM368.317 62H367.317V63H368.317V62ZM368.317 2.39999V1.39999H367.317V2.39999H368.317ZM402.797 6.07999L402.298 6.9469L402.305 6.95057L402.311 6.95415L402.797 6.07999ZM412.797 16.4L411.911 16.864L411.913 16.8684L412.797 16.4ZM412.797 47.92L413.683 48.384L412.797 47.92ZM402.797 58.32L402.303 57.4504L402.298 57.4531L402.797 58.32ZM373.517 57.2H372.517V58.2H373.517V57.2ZM399.837 54.08L399.328 53.2191L399.322 53.2225L399.837 54.08ZM407.997 45.36L407.11 44.8979L407.108 44.9026L407.997 45.36ZM407.997 18.96L407.108 19.4174L407.113 19.4273L407.997 18.96ZM399.837 10.32L399.328 11.181L399.338 11.1866L399.837 10.32ZM373.517 7.2V6.2H372.517V7.2H373.517ZM369.317 62V2.39999H367.317V62H369.317ZM368.317 3.39999H387.597V1.39999H368.317V3.39999ZM387.597 3.39999C393.322 3.39999 398.21 4.59615 402.298 6.9469L403.295 5.21309C398.85 2.65718 393.605 1.39999 387.597 1.39999V3.39999ZM402.311 6.95415C406.457 9.25708 409.653 12.5525 411.911 16.864L413.683 15.936C411.248 11.2874 407.777 7.70291 403.283 5.20584L402.311 6.95415ZM411.913 16.8684C414.169 21.1231 415.317 26.2088 415.317 32.16H417.317C417.317 25.9512 416.118 20.5303 413.68 15.9316L411.913 16.8684ZM415.317 32.16C415.317 38.0559 414.17 43.1442 411.911 47.456L413.683 48.384C416.117 43.7358 417.317 38.3175 417.317 32.16H415.317ZM411.911 47.456C409.652 51.7692 406.453 55.0937 402.303 57.4504L403.291 59.1896C407.781 56.6397 411.249 53.0308 413.683 48.384L411.911 47.456ZM402.298 57.4531C398.21 59.8038 393.322 61 387.597 61V63C393.605 63 398.85 61.7428 403.295 59.1869L402.298 57.4531ZM387.597 61H368.317V63H387.597V61ZM373.517 58.2H387.517V56.2H373.517V58.2ZM387.517 58.2C392.413 58.2 396.704 57.1259 400.351 54.9375L399.322 53.2225C396.036 55.1941 392.114 56.2 387.517 56.2V58.2ZM400.346 54.9409C404.033 52.7623 406.882 49.7137 408.886 45.8173L407.108 44.9026C405.271 48.473 402.681 51.2377 399.328 53.2191L400.346 54.9409ZM408.884 45.8221C410.943 41.8699 411.957 37.3062 411.957 32.16H409.957C409.957 37.0404 408.997 41.2768 407.11 44.8979L408.884 45.8221ZM411.957 32.16C411.957 26.9628 410.944 22.3961 408.881 18.4927L407.113 19.4273C408.996 22.9905 409.957 27.2239 409.957 32.16H411.957ZM408.886 18.5026C406.881 14.6042 404.028 11.5794 400.336 9.45337L399.338 11.1866C402.685 13.1139 405.272 15.8491 407.108 19.4173L408.886 18.5026ZM400.346 9.45907C396.65 7.27525 392.362 6.2 387.517 6.2V8.2C392.058 8.2 395.984 9.20475 399.328 11.1809L400.346 9.45907ZM387.517 6.2H373.517V8.2H387.517V6.2ZM372.517 7.2V57.2H374.517V7.2H372.517Z" fill="url(#paint0_linear_404_12369)" mask="url(#path-1-outside-1_404_12369)"/>
<defs>
<linearGradient id="paint0_linear_404_12369" x1="207.5" y1="-21" x2="207.5" y2="80" gradientUnits="userSpaceOnUse">
<stop stop-color="#1D0DB1"/>
<stop offset="1" stop-color="#F8F8F8"/>
</linearGradient>
</defs>
</svg>
