<svg width="425" height="64" viewBox="0 0 425 64" fill="none" xmlns="http://www.w3.org/2000/svg">
<mask id="path-1-outside-1_423_3" maskUnits="userSpaceOnUse" x="0" y="0" width="425" height="64" fill="black">
<rect fill="white" width="425" height="64"/>
<path d="M1.52 62V2.39999H20.8C26.6667 2.39999 31.7333 3.62666 36 6.08C40.32 8.48 43.6533 11.92 46 16.4C48.3467 20.8267 49.52 26.08 49.52 32.16C49.52 38.1867 48.3467 43.44 46 47.92C43.6533 52.4 40.32 55.8667 36 58.32C31.7333 60.7733 26.6667 62 20.8 62H1.52ZM6.72 57.2H20.72C25.4667 57.2 29.5733 56.16 33.04 54.08C36.56 52 39.28 49.0933 41.2 45.36C43.1733 41.5733 44.16 37.1733 44.16 32.16C44.16 27.0933 43.1733 22.6933 41.2 18.96C39.28 15.2267 36.56 12.3467 33.04 10.32C29.52 8.24 25.4133 7.2 20.72 7.2H6.72V57.2ZM60.9731 62V2.39999H85.5331C88.7865 2.39999 91.6131 3.04 94.0131 4.32C96.4665 5.6 98.3598 7.36 99.6931 9.6C101.08 11.84 101.773 14.4267 101.773 17.36C101.773 20.4533 100.973 23.2 99.3731 25.6C97.7731 28 95.5331 29.7333 92.6531 30.8V29.44C94.9998 30.1867 97.0265 31.3333 98.7331 32.88C100.493 34.3733 101.826 36.16 102.733 38.24C103.693 40.32 104.173 42.56 104.173 44.96C104.173 50.1333 102.52 54.2667 99.2131 57.36C95.9598 60.4533 91.3998 62 85.5331 62H60.9731ZM66.1731 57.2H85.2131C89.4265 57.2 92.7598 56.1067 95.2131 53.92C97.7198 51.7333 98.9731 48.7733 98.9731 45.04C98.9731 41.36 97.7465 38.4267 95.2931 36.24C92.8931 34 89.6665 32.88 85.6131 32.88H66.1731V57.2ZM66.1731 28.16H85.0531C88.5198 28.16 91.2931 27.1733 93.3731 25.2C95.5065 23.2267 96.5731 20.64 96.5731 17.44C96.5731 14.24 95.5331 11.7333 93.4531 9.92C91.4265 8.10666 88.6265 7.2 85.0531 7.2H66.1731V28.16ZM149.083 62.96C145.296 62.96 141.883 62.24 138.843 60.8C135.856 59.36 133.35 57.4667 131.323 55.12C129.35 52.7733 127.936 50.24 127.083 47.52L131.723 45.84C133.216 49.8933 135.43 52.9867 138.363 55.12C141.35 57.2533 144.896 58.32 149.003 58.32C151.723 58.32 154.096 57.8667 156.123 56.96C158.203 56.0533 159.83 54.7733 161.003 53.12C162.176 51.4667 162.763 49.52 162.763 47.28C162.763 44.1867 161.883 41.7867 160.123 40.08C158.416 38.3733 156.176 37.1467 153.403 36.4L142.523 33.2C138.096 31.92 134.816 29.8667 132.683 27.04C130.603 24.16 129.563 20.9067 129.563 17.28C129.563 14.1333 130.31 11.3867 131.803 9.04C133.35 6.64 135.43 4.77333 138.043 3.44C140.656 2.10666 143.616 1.44 146.923 1.44C150.39 1.44 153.483 2.10666 156.203 3.44C158.976 4.72 161.296 6.42667 163.163 8.56C165.083 10.64 166.443 12.96 167.243 15.52L162.683 17.2C161.35 13.52 159.296 10.7467 156.523 8.88C153.75 6.96 150.576 6 147.003 6C144.656 6 142.55 6.45333 140.683 7.36C138.816 8.26667 137.35 9.54666 136.283 11.2C135.216 12.8533 134.683 14.8 134.683 17.04C134.683 19.76 135.456 22.08 137.003 24C138.55 25.92 141.136 27.44 144.763 28.56L154.523 31.44C158.79 32.72 162.07 34.6933 164.363 37.36C166.71 39.9733 167.883 43.2 167.883 47.04C167.883 50.1867 167.083 52.96 165.483 55.36C163.883 57.7067 161.643 59.5733 158.763 60.96C155.936 62.2933 152.71 62.96 149.083 62.96ZM181.129 62V2.39999H218.729V7.2H186.329V29.68H217.129V34.48H186.329V57.2H218.729V62H181.129ZM230.192 62V2.39999H250.192C253.979 2.39999 257.312 3.14666 260.192 4.64C263.072 6.13333 265.312 8.24 266.912 10.96C268.565 13.68 269.392 16.8267 269.392 20.4C269.392 24.6667 268.219 28.32 265.872 31.36C263.579 34.3467 260.485 36.4 256.592 37.52L270.672 62H264.512L249.712 35.92L254.032 38.4H235.392V62H230.192ZM235.392 33.6H250.352C253.072 33.6 255.472 33.0667 257.552 32C259.632 30.88 261.259 29.3333 262.432 27.36C263.605 25.3333 264.192 22.9867 264.192 20.32C264.192 17.6533 263.605 15.36 262.432 13.44C261.259 11.4667 259.632 9.94666 257.552 8.88C255.472 7.76 253.072 7.2 250.352 7.2H235.392V33.6ZM296.817 62L274.657 2.39999H280.177L300.177 57.28H298.737L318.657 2.39999H324.257L302.097 62H296.817ZM333.083 62V2.39999H370.683V7.2H338.283V29.68H369.083V34.48H338.283V57.2H370.683V62H333.083ZM382.145 62V2.39999H402.145C405.932 2.39999 409.265 3.14666 412.145 4.64C415.025 6.13333 417.265 8.24 418.865 10.96C420.518 13.68 421.345 16.8267 421.345 20.4C421.345 24.6667 420.172 28.32 417.825 31.36C415.532 34.3467 412.438 36.4 408.545 37.52L422.625 62H416.465L401.665 35.92L405.985 38.4H387.345V62H382.145ZM387.345 33.6H402.305C405.025 33.6 407.425 33.0667 409.505 32C411.585 30.88 413.212 29.3333 414.385 27.36C415.558 25.3333 416.145 22.9867 416.145 20.32C416.145 17.6533 415.558 15.36 414.385 13.44C413.212 11.4667 411.585 9.94666 409.505 8.88C407.425 7.76 405.025 7.2 402.305 7.2H387.345V33.6Z"/>
</mask>
<path d="M1.52 62H0.52V63H1.52V62ZM1.52 2.39999V1.39999H0.52V2.39999H1.52ZM36 6.08L35.5015 6.9469L35.5079 6.95057L35.5144 6.95415L36 6.08ZM46 16.4L45.1142 16.864L45.1165 16.8684L46 16.4ZM46 47.92L46.8858 48.384L46.8858 48.384L46 47.92ZM36 58.32L35.5062 57.4504L35.5015 57.4531L36 58.32ZM6.72 57.2H5.72V58.2H6.72V57.2ZM33.04 54.08L32.5313 53.2191L32.5255 53.2225L33.04 54.08ZM41.2 45.36L40.3132 44.8979L40.3107 44.9027L41.2 45.36ZM41.2 18.96L40.3107 19.4174L40.3159 19.4273L41.2 18.96ZM33.04 10.32L32.5312 11.181L32.541 11.1866L33.04 10.32ZM6.72 7.2V6.2H5.72V7.2H6.72ZM2.52 62V2.39999H0.52V62H2.52ZM1.52 3.39999H20.8V1.39999H1.52V3.39999ZM20.8 3.39999C26.5254 3.39999 31.4133 4.59615 35.5015 6.9469L36.4985 5.21309C32.0534 2.65717 26.8079 1.39999 20.8 1.39999V3.39999ZM35.5144 6.95415C39.6596 9.25708 42.8558 12.5525 45.1142 16.864L46.8858 15.936C44.4509 11.2874 40.9804 7.70291 36.4856 5.20584L35.5144 6.95415ZM45.1165 16.8684C47.372 21.1231 48.52 26.2088 48.52 32.16H50.52C50.52 25.9512 49.3214 20.5303 46.8835 15.9316L45.1165 16.8684ZM48.52 32.16C48.52 38.0559 47.3727 43.1442 45.1142 47.456L46.8858 48.384C49.3206 43.7358 50.52 38.3175 50.52 32.16H48.52ZM45.1142 47.456C42.8549 51.7692 39.6561 55.0937 35.5062 57.4504L36.4938 59.1896C40.9839 56.6397 44.4518 53.0308 46.8858 48.384L45.1142 47.456ZM35.5015 57.4531C31.4133 59.8038 26.5254 61 20.8 61V63C26.8079 63 32.0534 61.7428 36.4985 59.1869L35.5015 57.4531ZM20.8 61H1.52V63H20.8V61ZM6.72 58.2H20.72V56.2H6.72V58.2ZM20.72 58.2C25.616 58.2 29.9072 57.1259 33.5545 54.9375L32.5255 53.2225C29.2395 55.1941 25.3173 56.2 20.72 56.2V58.2ZM33.5487 54.9409C37.2356 52.7623 40.0855 49.7137 42.0893 45.8173L40.3107 44.9027C38.4745 48.473 35.8844 51.2377 32.5313 53.2191L33.5487 54.9409ZM42.0868 45.8221C44.1464 41.8699 45.16 37.3062 45.16 32.16H43.16C43.16 37.0404 42.2002 41.2768 40.3132 44.8979L42.0868 45.8221ZM45.16 32.16C45.16 26.9628 44.1474 22.3961 42.0841 18.4927L40.3159 19.4273C42.1993 22.9905 43.16 27.2239 43.16 32.16H45.16ZM42.0893 18.5026C40.0844 14.6042 37.2316 11.5794 33.539 9.45338L32.541 11.1866C35.8884 13.1139 38.4756 15.8491 40.3107 19.4173L42.0893 18.5026ZM33.5487 9.45907C29.853 7.27525 25.5654 6.2 20.72 6.2V8.2C25.2613 8.2 29.187 9.20475 32.5313 11.1809L33.5487 9.45907ZM20.72 6.2H6.72V8.2H20.72V6.2ZM5.72 7.2V57.2H7.72V7.2H5.72ZM60.9731 62H59.9731V63H60.9731V62ZM60.9731 2.39999V1.39999H59.9731V2.39999H60.9731ZM94.0131 4.32L93.5425 5.20239L93.5506 5.20658L94.0131 4.32ZM99.6931 9.6L98.8338 10.1115L98.8383 10.119L98.8429 10.1264L99.6931 9.6ZM99.3731 25.6L98.5411 25.0453L98.5411 25.0453L99.3731 25.6ZM92.6531 30.8H91.6531V32.2368L93.0004 31.7377L92.6531 30.8ZM92.6531 29.44L92.9563 28.4871L91.6531 28.0724V29.44H92.6531ZM98.7331 32.88L98.0616 33.621L98.0737 33.6319L98.0862 33.6425L98.7331 32.88ZM102.733 38.24L101.816 38.6396L101.821 38.6494L101.825 38.6591L102.733 38.24ZM99.2131 57.36L98.5299 56.6297L98.5241 56.6353L99.2131 57.36ZM66.1731 57.2H65.1731V58.2H66.1731V57.2ZM95.2131 53.92L94.5557 53.1664L94.5478 53.1735L95.2131 53.92ZM95.2931 36.24L94.6108 36.9711L94.6192 36.9789L94.6278 36.9865L95.2931 36.24ZM66.1731 32.88V31.88H65.1731V32.88H66.1731ZM66.1731 28.16H65.1731V29.16H66.1731V28.16ZM93.3731 25.2L92.694 24.4658L92.6849 24.4745L93.3731 25.2ZM93.4531 9.92L92.7863 10.6653L92.796 10.6738L93.4531 9.92ZM66.1731 7.2V6.2H65.1731V7.2H66.1731ZM61.9731 62V2.39999H59.9731V62H61.9731ZM60.9731 3.39999H85.5331V1.39999H60.9731V3.39999ZM85.5331 3.39999C88.6544 3.39999 91.3132 4.01338 93.5425 5.20235L94.4837 3.43765C91.913 2.06661 88.9186 1.39999 85.5331 1.39999V3.39999ZM93.5506 5.20658C95.85 6.40628 97.6013 8.04083 98.8338 10.1115L100.552 9.08851C99.1183 6.67917 97.0829 4.79372 94.4757 3.43341L93.5506 5.20658ZM98.8429 10.1264C100.121 12.1907 100.773 14.5909 100.773 17.36H102.773C102.773 14.2624 102.039 11.4893 100.543 9.07364L98.8429 10.1264ZM100.773 17.36C100.773 20.2709 100.024 22.8216 98.5411 25.0453L100.205 26.1547C101.923 23.5784 102.773 20.6358 102.773 17.36H100.773ZM98.5411 25.0453C97.066 27.258 95.0015 28.8639 92.3058 29.8623L93.0004 31.7377C96.0648 30.6028 98.4803 28.742 100.205 26.1547L98.5411 25.0453ZM93.6531 30.8V29.44H91.6531V30.8H93.6531ZM92.3499 30.3929C94.5697 31.0992 96.4683 32.1771 98.0616 33.621L99.4046 32.139C97.5846 30.4896 95.4299 29.2741 92.9563 28.4871L92.3499 30.3929ZM98.0862 33.6425C99.7318 35.0388 100.972 36.702 101.816 38.6396L103.65 37.8404C102.681 35.618 101.254 33.7079 99.3801 32.1175L98.0862 33.6425ZM101.825 38.6591C102.722 40.6014 103.173 42.6976 103.173 44.96H105.173C105.173 42.4224 104.665 40.0386 103.641 37.8209L101.825 38.6591ZM103.173 44.96C103.173 49.8999 101.605 53.7532 98.53 56.6297L99.8963 58.0903C103.435 54.7802 105.173 50.3668 105.173 44.96H103.173ZM98.5241 56.6353C95.5082 59.5029 91.2246 61 85.5331 61V63C91.575 63 96.4114 61.4038 99.9022 58.0847L98.5241 56.6353ZM85.5331 61H60.9731V63H85.5331V61ZM66.1731 58.2H85.2131V56.2H66.1731V58.2ZM85.2131 58.2C89.6006 58.2 93.195 57.0583 95.8785 54.6665L94.5478 53.1735C92.3246 55.155 89.2523 56.2 85.2131 56.2V58.2ZM95.8705 54.6736C98.6229 52.2725 99.9731 49.0227 99.9731 45.04H97.9731C97.9731 48.5239 96.8166 51.1942 94.5558 53.1664L95.8705 54.6736ZM99.9731 45.04C99.9731 41.1129 98.6515 37.8938 95.9585 35.4935L94.6278 36.9865C96.8414 38.9595 97.9731 41.6071 97.9731 45.04H99.9731ZM95.9754 35.5089C93.3492 33.0578 89.8574 31.88 85.6131 31.88V33.88C89.4755 33.88 92.437 34.9422 94.6108 36.9711L95.9754 35.5089ZM85.6131 31.88H66.1731V33.88H85.6131V31.88ZM65.1731 32.88V57.2H67.1731V32.88H65.1731ZM66.1731 29.16H85.0531V27.16H66.1731V29.16ZM85.0531 29.16C88.7192 29.16 91.7582 28.1106 94.0614 25.9255L92.6849 24.4745C90.8281 26.2361 88.3204 27.16 85.0531 27.16V29.16ZM94.0522 25.9341C96.4121 23.7512 97.5731 20.8874 97.5731 17.44H95.5731C95.5731 20.3926 94.6009 22.7021 92.6941 24.4659L94.0522 25.9341ZM97.5731 17.44C97.5731 14.002 96.4438 11.2006 94.1103 9.16622L92.796 10.6738C94.6224 12.266 95.5731 14.4779 95.5731 17.44H97.5731ZM94.1199 9.17476C91.8586 7.15143 88.7936 6.2 85.0531 6.2V8.2C88.4593 8.2 90.9944 9.06189 92.7863 10.6652L94.1199 9.17476ZM85.0531 6.2H66.1731V8.2H85.0531V6.2ZM65.1731 7.2V28.16H67.1731V7.2H65.1731ZM138.843 60.8L138.409 61.7008L138.415 61.7037L138.843 60.8ZM131.323 55.12L130.558 55.7637L130.566 55.7736L131.323 55.12ZM127.083 47.52L126.743 46.5797L125.842 46.9057L126.129 47.8193L127.083 47.52ZM131.723 45.84L132.661 45.4943L132.318 44.5612L131.383 44.8997L131.723 45.84ZM138.363 55.12L137.775 55.9288L137.782 55.9337L138.363 55.12ZM156.123 56.96L155.724 56.0433L155.715 56.0472L156.123 56.96ZM161.003 53.12L160.188 52.5413L160.188 52.5413L161.003 53.12ZM160.123 40.08L159.416 40.7871L159.421 40.7925L159.427 40.7979L160.123 40.08ZM153.403 36.4L153.121 37.3594L153.132 37.3626L153.143 37.3656L153.403 36.4ZM142.523 33.2L142.805 32.2406L142.801 32.2394L142.523 33.2ZM132.683 27.04L131.872 27.6255L131.879 27.634L131.885 27.6424L132.683 27.04ZM131.803 9.04L130.963 8.49828L130.959 8.50312L131.803 9.04ZM138.043 3.44L137.589 2.54923L137.589 2.54923L138.043 3.44ZM156.203 3.44L155.763 4.33792L155.773 4.34306L155.784 4.34795L156.203 3.44ZM163.163 8.56L162.411 9.2185L162.419 9.22851L162.428 9.23828L163.163 8.56ZM167.243 15.52L167.589 16.4583L168.481 16.1295L168.198 15.2217L167.243 15.52ZM162.683 17.2L161.743 17.5406L162.085 18.4859L163.029 18.1383L162.683 17.2ZM156.523 8.88L155.954 9.70226L155.965 9.70958L156.523 8.88ZM136.283 11.2L135.443 10.6579L135.443 10.6579L136.283 11.2ZM137.003 24L136.224 24.6273L136.224 24.6273L137.003 24ZM144.763 28.56L144.468 29.5155L144.48 29.5191L144.763 28.56ZM154.523 31.44L154.81 30.4822L154.806 30.4809L154.523 31.44ZM164.363 37.36L163.605 38.012L163.612 38.0202L163.619 38.0281L164.363 37.36ZM165.483 55.36L166.309 55.9234L166.315 55.9147L165.483 55.36ZM158.763 60.96L159.19 61.8645L159.197 61.861L158.763 60.96ZM149.083 61.96C145.426 61.96 142.161 61.2653 139.271 59.8963L138.415 61.7037C141.605 63.2147 145.167 63.96 149.083 63.96V61.96ZM139.277 59.8992C136.405 58.5145 134.011 56.7024 132.08 54.4664L130.566 55.7736C132.689 58.2309 135.308 60.2055 138.409 61.7008L139.277 59.8992ZM132.088 54.4764C130.194 52.2232 128.848 49.8053 128.037 47.2207L126.129 47.8193C127.025 50.6747 128.506 53.3235 130.558 55.7636L132.088 54.4764ZM127.424 48.4603L132.064 46.7803L131.383 44.8997L126.743 46.5797L127.424 48.4603ZM130.785 46.1857C132.333 50.3886 134.653 53.6584 137.775 55.9287L138.951 54.3113C136.206 52.315 134.1 49.3981 132.661 45.4943L130.785 46.1857ZM137.782 55.9337C140.958 58.2024 144.714 59.32 149.003 59.32V57.32C145.079 57.32 141.742 56.3042 138.944 54.3063L137.782 55.9337ZM149.003 59.32C151.833 59.32 154.351 58.8484 156.531 57.8728L155.715 56.0472C153.842 56.885 151.613 57.32 149.003 57.32V59.32ZM156.523 57.8767C158.749 56.9062 160.528 55.5176 161.819 53.6987L160.188 52.5413C159.132 54.029 157.657 55.2005 155.724 56.0433L156.523 57.8767ZM161.819 53.6987C163.125 51.8586 163.763 49.7046 163.763 47.28H161.763C161.763 49.3354 161.228 51.0747 160.188 52.5413L161.819 53.6987ZM163.763 47.28C163.763 43.991 162.821 41.3036 160.819 39.3621L159.427 40.7979C160.945 42.2698 161.763 44.3823 161.763 47.28H163.763ZM160.83 39.3729C158.978 37.5207 156.573 36.2179 153.663 35.4344L153.143 37.3656C155.78 38.0754 157.855 39.2259 159.416 40.7871L160.83 39.3729ZM153.685 35.4406L142.805 32.2406L142.241 34.1594L153.121 37.3594L153.685 35.4406ZM142.801 32.2394C138.519 31.0013 135.45 29.0461 133.481 26.4376L131.885 27.6424C134.183 30.6872 137.674 32.8387 142.245 34.1606L142.801 32.2394ZM133.494 26.4545C131.54 23.7487 130.563 20.7012 130.563 17.28H128.563C128.563 21.1122 129.667 24.5713 131.872 27.6255L133.494 26.4545ZM130.563 17.28C130.563 14.2978 131.269 11.7427 132.647 9.57687L130.959 8.50312C129.351 11.0306 128.563 13.9688 128.563 17.28H130.563ZM132.644 9.5817C134.092 7.33431 136.037 5.58617 138.498 4.33076L137.589 2.54923C134.823 3.96049 132.608 5.94568 130.963 8.49829L132.644 9.5817ZM138.498 4.33076C140.953 3.07791 143.754 2.44 146.923 2.44V0.439998C143.479 0.439998 140.36 1.13542 137.589 2.54923L138.498 4.33076ZM146.923 2.44C150.259 2.44 153.199 3.08084 155.763 4.33792L156.643 2.54207C153.768 1.13249 150.52 0.439998 146.923 0.439998V2.44ZM155.784 4.34795C158.44 5.57376 160.643 7.19881 162.411 9.2185L163.916 7.90149C161.95 5.65452 159.513 3.86624 156.622 2.53204L155.784 4.34795ZM162.428 9.23828C164.254 11.2156 165.535 13.4075 166.289 15.8183L168.198 15.2217C167.351 12.5125 165.913 10.0644 163.898 7.88172L162.428 9.23828ZM166.897 14.5817L162.337 16.2617L163.029 18.1383L167.589 16.4583L166.897 14.5817ZM163.623 16.8594C162.231 13.0152 160.059 10.0548 157.082 8.05041L155.965 9.70958C158.534 11.4386 160.469 14.0248 161.743 17.5406L163.623 16.8594ZM157.092 8.05781C154.142 6.01497 150.767 5 147.003 5V7C150.386 7 153.358 7.90502 155.954 9.70219L157.092 8.05781ZM147.003 5C144.525 5 142.266 5.47951 140.246 6.46049L141.12 8.25951C142.834 7.42715 144.788 7 147.003 7V5ZM140.246 6.46049C138.224 7.44256 136.614 8.84219 135.443 10.6579L137.123 11.7421C138.085 10.2511 139.409 9.09077 141.12 8.25951L140.246 6.46049ZM135.443 10.6579C134.258 12.4944 133.683 14.6351 133.683 17.04H135.683C135.683 14.9649 136.175 13.2123 137.123 11.7421L135.443 10.6579ZM133.683 17.04C133.683 19.9632 134.52 22.511 136.224 24.6273L137.782 23.3727C136.393 21.649 135.683 19.5568 135.683 17.04H133.683ZM136.224 24.6273C137.947 26.7653 140.747 28.3662 144.468 29.5155L145.058 27.6045C141.526 26.5138 139.153 25.0747 137.782 23.3727L136.224 24.6273ZM144.48 29.5191L154.24 32.3991L154.806 30.4809L145.046 27.6009L144.48 29.5191ZM154.236 32.3978C158.368 33.6375 161.465 35.5242 163.605 38.012L165.121 36.708C162.674 33.8624 159.212 31.8025 154.81 30.4822L154.236 32.3978ZM163.619 38.0281C165.785 40.4402 166.883 43.4217 166.883 47.04H168.883C168.883 42.9783 167.635 39.5065 165.107 36.6919L163.619 38.0281ZM166.883 47.04C166.883 50.008 166.132 52.5845 164.651 54.8053L166.315 55.9147C168.035 53.3355 168.883 50.3654 168.883 47.04H166.883ZM164.657 54.7967C163.168 56.9808 161.071 58.7387 158.329 60.059L159.197 61.861C162.215 60.4079 164.599 58.4326 166.309 55.9233L164.657 54.7967ZM158.337 60.0556C155.663 61.3166 152.586 61.96 149.083 61.96V63.96C152.834 63.96 156.21 63.27 159.19 61.8644L158.337 60.0556ZM181.129 62H180.129V63H181.129V62ZM181.129 2.39999V1.39999H180.129V2.39999H181.129ZM218.729 2.39999H219.729V1.39999H218.729V2.39999ZM218.729 7.2V8.2H219.729V7.2H218.729ZM186.329 7.2V6.2H185.329V7.2H186.329ZM186.329 29.68H185.329V30.68H186.329V29.68ZM217.129 29.68H218.129V28.68H217.129V29.68ZM217.129 34.48V35.48H218.129V34.48H217.129ZM186.329 34.48V33.48H185.329V34.48H186.329ZM186.329 57.2H185.329V58.2H186.329V57.2ZM218.729 57.2H219.729V56.2H218.729V57.2ZM218.729 62V63H219.729V62H218.729ZM182.129 62V2.39999H180.129V62H182.129ZM181.129 3.39999H218.729V1.39999H181.129V3.39999ZM217.729 2.39999V7.2H219.729V2.39999H217.729ZM218.729 6.2H186.329V8.2H218.729V6.2ZM185.329 7.2V29.68H187.329V7.2H185.329ZM186.329 30.68H217.129V28.68H186.329V30.68ZM216.129 29.68V34.48H218.129V29.68H216.129ZM217.129 33.48H186.329V35.48H217.129V33.48ZM185.329 34.48V57.2H187.329V34.48H185.329ZM186.329 58.2H218.729V56.2H186.329V58.2ZM217.729 57.2V62H219.729V57.2H217.729ZM218.729 61H181.129V63H218.729V61ZM230.192 62H229.192V63H230.192V62ZM230.192 2.39999V1.39999H229.192V2.39999H230.192ZM260.192 4.64L259.732 5.52775L259.732 5.52775L260.192 4.64ZM266.912 10.96L266.05 11.467L266.054 11.4732L266.057 11.4794L266.912 10.96ZM265.872 31.36L265.08 30.7489L265.079 30.751L265.872 31.36ZM256.592 37.52L256.315 36.559L255.089 36.9119L255.725 38.0186L256.592 37.52ZM270.672 62V63H272.401L271.539 61.5014L270.672 62ZM264.512 62L263.642 62.4936L263.93 63H264.512V62ZM249.712 35.92L250.21 35.0527L247.036 33.2308L248.842 36.4136L249.712 35.92ZM254.032 38.4V39.4H257.782L254.53 37.5327L254.032 38.4ZM235.392 38.4V37.4H234.392V38.4H235.392ZM235.392 62V63H236.392V62H235.392ZM235.392 33.6H234.392V34.6H235.392V33.6ZM257.552 32L258.008 32.8898L258.017 32.8852L258.026 32.8805L257.552 32ZM262.432 27.36L263.291 27.8711L263.297 27.861L262.432 27.36ZM262.432 13.44L261.572 13.9511L261.579 13.9614L262.432 13.44ZM257.552 8.88L257.078 9.76047L257.087 9.76523L257.096 9.76981L257.552 8.88ZM235.392 7.2V6.2H234.392V7.2H235.392ZM231.192 62V2.39999H229.192V62H231.192ZM230.192 3.39999H250.192V1.39999H230.192V3.39999ZM250.192 3.39999C253.845 3.39999 257.016 4.11959 259.732 5.52775L260.652 3.75225C257.608 2.17373 254.112 1.39999 250.192 1.39999V3.39999ZM259.732 5.52775C262.449 6.93704 264.548 8.91391 266.05 11.467L267.774 10.453C266.076 7.56609 263.694 5.32962 260.652 3.75224L259.732 5.52775ZM266.057 11.4794C267.604 14.0243 268.392 16.9868 268.392 20.4H270.392C270.392 16.6665 269.526 13.3357 267.766 10.4406L266.057 11.4794ZM268.392 20.4C268.392 24.4715 267.277 27.9035 265.08 30.7489L266.663 31.9711C269.16 28.7365 270.392 24.8619 270.392 20.4H268.392ZM265.079 30.751C262.926 33.555 260.02 35.4933 256.315 36.559L256.868 38.481C260.951 37.3067 264.231 35.1384 266.665 31.969L265.079 30.751ZM255.725 38.0186L269.805 62.4986L271.539 61.5014L257.459 37.0214L255.725 38.0186ZM270.672 61H264.512V63H270.672V61ZM265.382 61.5064L250.582 35.4264L248.842 36.4136L263.642 62.4936L265.382 61.5064ZM249.214 36.7873L253.534 39.2673L254.53 37.5327L250.21 35.0527L249.214 36.7873ZM254.032 37.4H235.392V39.4H254.032V37.4ZM234.392 38.4V62H236.392V38.4H234.392ZM235.392 61H230.192V63H235.392V61ZM235.392 34.6H250.352V32.6H235.392V34.6ZM250.352 34.6C253.205 34.6 255.766 34.0399 258.008 32.8898L257.096 31.1102C255.178 32.0934 252.939 32.6 250.352 32.6V34.6ZM258.026 32.8805C260.261 31.6772 262.023 30.0049 263.291 27.8711L261.572 26.8489C260.494 28.6618 259.003 30.0828 257.078 31.1195L258.026 32.8805ZM263.297 27.861C264.57 25.662 265.192 23.1378 265.192 20.32H263.192C263.192 22.8355 262.64 25.0047 261.566 26.859L263.297 27.861ZM265.192 20.32C265.192 17.5037 264.571 15.0225 263.285 12.9185L261.579 13.9614C262.639 15.6975 263.192 17.8029 263.192 20.32H265.192ZM263.291 12.9289C262.02 10.7909 260.252 9.14102 258.008 7.99018L257.096 9.76981C259.011 10.7523 260.497 12.1425 261.572 13.9511L263.291 12.9289ZM258.026 7.99953C255.78 6.78991 253.212 6.2 250.352 6.2V8.2C252.932 8.2 255.164 8.73008 257.078 9.76047L258.026 7.99953ZM250.352 6.2H235.392V8.2H250.352V6.2ZM234.392 7.2V33.6H236.392V7.2H234.392ZM296.817 62L295.88 62.3485L296.122 63H296.817V62ZM274.657 2.39999V1.39999H273.218L273.72 2.7485L274.657 2.39999ZM280.177 2.39999L281.116 2.05759L280.877 1.39999H280.177V2.39999ZM300.177 57.28V58.28H301.606L301.116 56.9376L300.177 57.28ZM298.737 57.28L297.797 56.9388L297.31 58.28H298.737V57.28ZM318.657 2.39999V1.39999H317.956L317.717 2.0588L318.657 2.39999ZM324.257 2.39999L325.194 2.7485L325.696 1.39999H324.257V2.39999ZM302.097 62V63H302.792L303.034 62.3485L302.097 62ZM297.754 61.6515L275.594 2.05149L273.72 2.7485L295.88 62.3485L297.754 61.6515ZM274.657 3.39999H280.177V1.39999H274.657V3.39999ZM279.237 2.7424L299.237 57.6224L301.116 56.9376L281.116 2.05759L279.237 2.7424ZM300.177 56.28H298.737V58.28H300.177V56.28ZM299.677 57.6212L319.597 2.74119L317.717 2.0588L297.797 56.9388L299.677 57.6212ZM318.657 3.39999H324.257V1.39999H318.657V3.39999ZM323.32 2.05149L301.16 61.6515L303.034 62.3485L325.194 2.7485L323.32 2.05149ZM302.097 61H296.817V63H302.097V61ZM333.083 62H332.083V63H333.083V62ZM333.083 2.39999V1.39999H332.083V2.39999H333.083ZM370.683 2.39999H371.683V1.39999H370.683V2.39999ZM370.683 7.2V8.2H371.683V7.2H370.683ZM338.283 7.2V6.2H337.283V7.2H338.283ZM338.283 29.68H337.283V30.68H338.283V29.68ZM369.083 29.68H370.083V28.68H369.083V29.68ZM369.083 34.48V35.48H370.083V34.48H369.083ZM338.283 34.48V33.48H337.283V34.48H338.283ZM338.283 57.2H337.283V58.2H338.283V57.2ZM370.683 57.2H371.683V56.2H370.683V57.2ZM370.683 62V63H371.683V62H370.683ZM334.083 62V2.39999H332.083V62H334.083ZM333.083 3.39999H370.683V1.39999H333.083V3.39999ZM369.683 2.39999V7.2H371.683V2.39999H369.683ZM370.683 6.2H338.283V8.2H370.683V6.2ZM337.283 7.2V29.68H339.283V7.2H337.283ZM338.283 30.68H369.083V28.68H338.283V30.68ZM368.083 29.68V34.48H370.083V29.68H368.083ZM369.083 33.48H338.283V35.48H369.083V33.48ZM337.283 34.48V57.2H339.283V34.48H337.283ZM338.283 58.2H370.683V56.2H338.283V58.2ZM369.683 57.2V62H371.683V57.2H369.683ZM370.683 61H333.083V63H370.683V61ZM382.145 62H381.145V63H382.145V62ZM382.145 2.39999V1.39999H381.145V2.39999H382.145ZM412.145 4.64L411.685 5.52775L411.685 5.52775L412.145 4.64ZM418.865 10.96L418.003 11.467L418.007 11.4732L418.01 11.4794L418.865 10.96ZM417.825 31.36L417.033 30.7489L417.032 30.751L417.825 31.36ZM408.545 37.52L408.269 36.559L407.042 36.9119L407.678 38.0186L408.545 37.52ZM422.625 62V63H424.354L423.492 61.5014L422.625 62ZM416.465 62L415.595 62.4936L415.883 63H416.465V62ZM401.665 35.92L402.163 35.0527L398.989 33.2308L400.795 36.4136L401.665 35.92ZM405.985 38.4V39.4H409.736L406.483 37.5327L405.985 38.4ZM387.345 38.4V37.4H386.345V38.4H387.345ZM387.345 62V63H388.345V62H387.345ZM387.345 33.6H386.345V34.6H387.345V33.6ZM409.505 32L409.961 32.8898L409.97 32.8852L409.979 32.8805L409.505 32ZM414.385 27.36L415.245 27.8711L415.25 27.861L414.385 27.36ZM414.385 13.44L413.525 13.9511L413.532 13.9614L414.385 13.44ZM409.505 8.88L409.031 9.76047L409.04 9.76523L409.049 9.76981L409.505 8.88ZM387.345 7.2V6.2H386.345V7.2H387.345ZM383.145 62V2.39999H381.145V62H383.145ZM382.145 3.39999H402.145V1.39999H382.145V3.39999ZM402.145 3.39999C405.798 3.39999 408.969 4.11959 411.685 5.52775L412.605 3.75225C409.561 2.17373 406.065 1.39999 402.145 1.39999V3.39999ZM411.685 5.52775C414.403 6.93704 416.501 8.91391 418.003 11.467L419.727 10.453C418.029 7.56609 415.647 5.32962 412.605 3.75224L411.685 5.52775ZM418.01 11.4794C419.557 14.0243 420.345 16.9868 420.345 20.4H422.345C422.345 16.6665 421.479 13.3357 419.72 10.4406L418.01 11.4794ZM420.345 20.4C420.345 24.4715 419.23 27.9035 417.033 30.7489L418.617 31.9711C421.113 28.7365 422.345 24.8619 422.345 20.4H420.345ZM417.032 30.751C414.879 33.555 411.973 35.4933 408.269 36.559L408.821 38.481C412.904 37.3067 416.185 35.1384 418.618 31.969L417.032 30.751ZM407.678 38.0186L421.758 62.4986L423.492 61.5014L409.412 37.0214L407.678 38.0186ZM422.625 61H416.465V63H422.625V61ZM417.335 61.5064L402.535 35.4264L400.795 36.4136L415.595 62.4936L417.335 61.5064ZM401.167 36.7873L405.487 39.2673L406.483 37.5327L402.163 35.0527L401.167 36.7873ZM405.985 37.4H387.345V39.4H405.985V37.4ZM386.345 38.4V62H388.345V38.4H386.345ZM387.345 61H382.145V63H387.345V61ZM387.345 34.6H402.305V32.6H387.345V34.6ZM402.305 34.6C405.158 34.6 407.719 34.0399 409.961 32.8898L409.049 31.1102C407.131 32.0934 404.892 32.6 402.305 32.6V34.6ZM409.979 32.8805C412.214 31.6772 413.976 30.0049 415.245 27.8711L413.525 26.8489C412.448 28.6618 410.956 30.0828 409.031 31.1195L409.979 32.8805ZM415.25 27.861C416.524 25.662 417.145 23.1378 417.145 20.32H415.145C415.145 22.8355 414.593 25.0047 413.52 26.859L415.25 27.861ZM417.145 20.32C417.145 17.5037 416.524 15.0225 415.238 12.9185L413.532 13.9614C414.593 15.6975 415.145 17.8029 415.145 20.32H417.145ZM415.245 12.9289C413.973 10.7909 412.205 9.14102 409.961 7.99018L409.049 9.76981C410.965 10.7523 412.45 12.1425 413.525 13.9511L415.245 12.9289ZM409.979 7.99953C407.733 6.78991 405.165 6.2 402.305 6.2V8.2C404.885 8.2 407.117 8.73008 409.031 9.76047L409.979 7.99953ZM402.305 6.2H387.345V8.2H402.305V6.2ZM386.345 7.2V33.6H388.345V7.2H386.345Z" fill="url(#paint0_linear_423_3)" mask="url(#path-1-outside-1_423_3)"/>
<defs>
<linearGradient id="paint0_linear_423_3" x1="210" y1="-21" x2="210" y2="80" gradientUnits="userSpaceOnUse">
<stop stop-color="#1D0DB1"/>
<stop offset="1" stop-color="#F8F8F8"/>
</linearGradient>
</defs>
</svg>
