<svg width="525" height="73" viewBox="0 0 525 73" fill="none" xmlns="http://www.w3.org/2000/svg">
<mask id="path-1-outside-1_423_5" maskUnits="userSpaceOnUse" x="0" y="0" width="525" height="73" fill="black">
<rect fill="white" width="525" height="73"/>
<path d="M1.52 62V2.39999H20.8C26.6667 2.39999 31.7333 3.62666 36 6.08C40.32 8.48 43.6533 11.92 46 16.4C48.3467 20.8267 49.52 26.08 49.52 32.16C49.52 38.1867 48.3467 43.44 46 47.92C43.6533 52.4 40.32 55.8667 36 58.32C31.7333 60.7733 26.6667 62 20.8 62H1.52ZM6.72 57.2H20.72C25.4667 57.2 29.5733 56.16 33.04 54.08C36.56 52 39.28 49.0933 41.2 45.36C43.1733 41.5733 44.16 37.1733 44.16 32.16C44.16 27.0933 43.1733 22.6933 41.2 18.96C39.28 15.2267 36.56 12.3467 33.04 10.32C29.52 8.24 25.4133 7.2 20.72 7.2H6.72V57.2ZM60.9731 62V2.39999H98.5731V7.2H66.1731V29.68H96.9731V34.48H66.1731V57.2H98.5731V62H60.9731ZM129.396 62.96C125.609 62.96 122.196 62.24 119.156 60.8C116.169 59.36 113.662 57.4667 111.636 55.12C109.662 52.7733 108.249 50.24 107.396 47.52L112.036 45.84C113.529 49.8933 115.742 52.9867 118.676 55.12C121.662 57.2533 125.209 58.32 129.316 58.32C132.036 58.32 134.409 57.8667 136.436 56.96C138.516 56.0533 140.142 54.7733 141.316 53.12C142.489 51.4667 143.076 49.52 143.076 47.28C143.076 44.1867 142.196 41.7867 140.436 40.08C138.729 38.3733 136.489 37.1467 133.716 36.4L122.836 33.2C118.409 31.92 115.129 29.8667 112.996 27.04C110.916 24.16 109.876 20.9067 109.876 17.28C109.876 14.1333 110.622 11.3867 112.116 9.04C113.662 6.64 115.742 4.77333 118.356 3.44C120.969 2.10666 123.929 1.44 127.236 1.44C130.702 1.44 133.796 2.10666 136.516 3.44C139.289 4.72 141.609 6.42667 143.476 8.56C145.396 10.64 146.756 12.96 147.556 15.52L142.996 17.2C141.662 13.52 139.609 10.7467 136.836 8.88C134.062 6.96 130.889 6 127.316 6C124.969 6 122.862 6.45333 120.996 7.36C119.129 8.26667 117.662 9.54666 116.596 11.2C115.529 12.8533 114.996 14.8 114.996 17.04C114.996 19.76 115.769 22.08 117.316 24C118.862 25.92 121.449 27.44 125.076 28.56L134.836 31.44C139.102 32.72 142.382 34.6933 144.676 37.36C147.022 39.9733 148.196 43.2 148.196 47.04C148.196 50.1867 147.396 52.96 145.796 55.36C144.196 57.7067 141.956 59.5733 139.076 60.96C136.249 62.2933 133.022 62.96 129.396 62.96ZM161.442 62V2.39999H166.642V62H161.442ZM208.558 62.96C204.345 62.96 200.478 62.2133 196.958 60.72C193.491 59.1733 190.478 57.04 187.918 54.32C185.358 51.5467 183.358 48.2933 181.918 44.56C180.531 40.8267 179.838 36.72 179.838 32.24C179.838 27.76 180.531 23.6533 181.918 19.92C183.358 16.1867 185.358 12.9333 187.918 10.16C190.531 7.38666 193.571 5.25333 197.038 3.76C200.558 2.21333 204.398 1.44 208.558 1.44C212.665 1.44 216.318 2.16 219.518 3.6C222.771 5.04 225.491 6.88 227.678 9.12C229.918 11.36 231.518 13.68 232.478 16.08L227.678 18.32C226.078 14.64 223.625 11.7333 220.318 9.6C217.065 7.41333 213.145 6.32 208.558 6.32C204.025 6.32 199.971 7.41333 196.398 9.6C192.825 11.7867 190.025 14.8267 187.998 18.72C186.025 22.56 185.038 27.0667 185.038 32.24C185.038 37.36 186.025 41.8667 187.998 45.76C190.025 49.6533 192.798 52.6667 196.318 54.8C199.891 56.9333 203.971 58 208.558 58C212.665 58 216.345 57.0933 219.598 55.28C222.905 53.4133 225.491 50.9067 227.358 47.76C229.278 44.56 230.238 40.9067 230.238 36.8V34L232.558 36.48H208.558V31.84H235.438V36.32C235.438 40.0533 234.745 43.5467 233.358 46.8C232.025 50 230.158 52.8267 227.758 55.28C225.358 57.68 222.505 59.5733 219.198 60.96C215.945 62.2933 212.398 62.96 208.558 62.96ZM247.848 62V2.39999H252.248L288.328 54.16H286.648V2.39999H291.848V62H287.448L251.208 9.92H253.048V62H247.848ZM340.356 62.96C336.249 62.96 332.649 62.08 329.556 60.32C326.462 58.56 324.036 56.1333 322.276 53.04C320.569 49.8933 319.716 46.2933 319.716 42.24V2.39999H324.916V42.4C324.916 45.4933 325.556 48.24 326.836 50.64C328.169 52.9867 329.982 54.8267 332.276 56.16C334.622 57.4933 337.316 58.16 340.356 58.16C343.396 58.16 346.062 57.4933 348.356 56.16C350.702 54.8267 352.516 52.9867 353.796 50.64C355.076 48.24 355.716 45.4933 355.716 42.4V2.39999H360.916V42.24C360.916 46.2933 360.062 49.8933 358.356 53.04C356.649 56.1333 354.249 58.56 351.156 60.32C348.062 62.08 344.462 62.96 340.356 62.96ZM375.661 62V2.39999H380.861V62H375.661ZM388.457 71.6L415.497 5.6H421.177L394.137 71.6H388.457ZM449.184 62.96C445.077 62.96 441.477 62.08 438.384 60.32C435.29 58.56 432.864 56.1333 431.104 53.04C429.397 49.8933 428.544 46.2933 428.544 42.24V2.39999H433.744V42.4C433.744 45.4933 434.384 48.24 435.664 50.64C436.997 52.9867 438.81 54.8267 441.104 56.16C443.45 57.4933 446.144 58.16 449.184 58.16C452.224 58.16 454.89 57.4933 457.184 56.16C459.53 54.8267 461.344 52.9867 462.624 50.64C463.904 48.24 464.544 45.4933 464.544 42.4V2.39999H469.744V42.24C469.744 46.2933 468.89 49.8933 467.184 53.04C465.477 56.1333 463.077 58.56 459.984 60.32C456.89 62.08 453.29 62.96 449.184 62.96ZM478.329 62L497.609 31.52L479.049 2.39999H485.129L501.369 28.08H500.009L516.249 2.39999H522.249L503.689 31.52L523.129 62H517.049L500.009 34.96H501.369L484.329 62H478.329Z"/>
</mask>
<path d="M1.52 62H0.52V63H1.52V62ZM1.52 2.39999V1.39999H0.52V2.39999H1.52ZM36 6.08L35.5015 6.9469L35.5079 6.95057L35.5144 6.95415L36 6.08ZM46 16.4L45.1142 16.864L45.1165 16.8684L46 16.4ZM46 47.92L46.8858 48.384L46.8858 48.384L46 47.92ZM36 58.32L35.5062 57.4504L35.5015 57.4531L36 58.32ZM6.72 57.2H5.72V58.2H6.72V57.2ZM33.04 54.08L32.5313 53.2191L32.5255 53.2225L33.04 54.08ZM41.2 45.36L40.3132 44.8979L40.3107 44.9027L41.2 45.36ZM41.2 18.96L40.3107 19.4174L40.3159 19.4273L41.2 18.96ZM33.04 10.32L32.5312 11.181L32.541 11.1866L33.04 10.32ZM6.72 7.2V6.2H5.72V7.2H6.72ZM2.52 62V2.39999H0.52V62H2.52ZM1.52 3.39999H20.8V1.39999H1.52V3.39999ZM20.8 3.39999C26.5254 3.39999 31.4133 4.59615 35.5015 6.9469L36.4985 5.21309C32.0534 2.65717 26.8079 1.39999 20.8 1.39999V3.39999ZM35.5144 6.95415C39.6596 9.25708 42.8558 12.5525 45.1142 16.864L46.8858 15.936C44.4509 11.2874 40.9804 7.70291 36.4856 5.20584L35.5144 6.95415ZM45.1165 16.8684C47.372 21.1231 48.52 26.2088 48.52 32.16H50.52C50.52 25.9512 49.3214 20.5303 46.8835 15.9316L45.1165 16.8684ZM48.52 32.16C48.52 38.0559 47.3727 43.1442 45.1142 47.456L46.8858 48.384C49.3206 43.7358 50.52 38.3175 50.52 32.16H48.52ZM45.1142 47.456C42.8549 51.7692 39.6561 55.0937 35.5062 57.4504L36.4938 59.1896C40.9839 56.6397 44.4518 53.0308 46.8858 48.384L45.1142 47.456ZM35.5015 57.4531C31.4133 59.8038 26.5254 61 20.8 61V63C26.8079 63 32.0534 61.7428 36.4985 59.1869L35.5015 57.4531ZM20.8 61H1.52V63H20.8V61ZM6.72 58.2H20.72V56.2H6.72V58.2ZM20.72 58.2C25.616 58.2 29.9072 57.1259 33.5545 54.9375L32.5255 53.2225C29.2395 55.1941 25.3173 56.2 20.72 56.2V58.2ZM33.5487 54.9409C37.2356 52.7623 40.0855 49.7137 42.0893 45.8173L40.3107 44.9027C38.4745 48.473 35.8844 51.2377 32.5313 53.2191L33.5487 54.9409ZM42.0868 45.8221C44.1464 41.8699 45.16 37.3062 45.16 32.16H43.16C43.16 37.0404 42.2002 41.2768 40.3132 44.8979L42.0868 45.8221ZM45.16 32.16C45.16 26.9628 44.1474 22.3961 42.0841 18.4927L40.3159 19.4273C42.1993 22.9905 43.16 27.2239 43.16 32.16H45.16ZM42.0893 18.5026C40.0844 14.6042 37.2316 11.5794 33.539 9.45338L32.541 11.1866C35.8884 13.1139 38.4756 15.8491 40.3107 19.4173L42.0893 18.5026ZM33.5487 9.45907C29.853 7.27525 25.5654 6.2 20.72 6.2V8.2C25.2613 8.2 29.187 9.20475 32.5313 11.1809L33.5487 9.45907ZM20.72 6.2H6.72V8.2H20.72V6.2ZM5.72 7.2V57.2H7.72V7.2H5.72ZM60.9731 62H59.9731V63H60.9731V62ZM60.9731 2.39999V1.39999H59.9731V2.39999H60.9731ZM98.5731 2.39999H99.5731V1.39999H98.5731V2.39999ZM98.5731 7.2V8.2H99.5731V7.2H98.5731ZM66.1731 7.2V6.2H65.1731V7.2H66.1731ZM66.1731 29.68H65.1731V30.68H66.1731V29.68ZM96.9731 29.68H97.9731V28.68H96.9731V29.68ZM96.9731 34.48V35.48H97.9731V34.48H96.9731ZM66.1731 34.48V33.48H65.1731V34.48H66.1731ZM66.1731 57.2H65.1731V58.2H66.1731V57.2ZM98.5731 57.2H99.5731V56.2H98.5731V57.2ZM98.5731 62V63H99.5731V62H98.5731ZM61.9731 62V2.39999H59.9731V62H61.9731ZM60.9731 3.39999H98.5731V1.39999H60.9731V3.39999ZM97.5731 2.39999V7.2H99.5731V2.39999H97.5731ZM98.5731 6.2H66.1731V8.2H98.5731V6.2ZM65.1731 7.2V29.68H67.1731V7.2H65.1731ZM66.1731 30.68H96.9731V28.68H66.1731V30.68ZM95.9731 29.68V34.48H97.9731V29.68H95.9731ZM96.9731 33.48H66.1731V35.48H96.9731V33.48ZM65.1731 34.48V57.2H67.1731V34.48H65.1731ZM66.1731 58.2H98.5731V56.2H66.1731V58.2ZM97.5731 57.2V62H99.5731V57.2H97.5731ZM98.5731 61H60.9731V63H98.5731V61ZM119.156 60.8L118.721 61.7008L118.728 61.7037L119.156 60.8ZM111.636 55.12L110.87 55.7637L110.879 55.7736L111.636 55.12ZM107.396 47.52L107.055 46.5797L106.155 46.9057L106.441 47.8193L107.396 47.52ZM112.036 45.84L112.974 45.4943L112.63 44.5612L111.695 44.8997L112.036 45.84ZM118.676 55.12L118.087 55.9288L118.094 55.9337L118.676 55.12ZM136.436 56.96L136.036 56.0433L136.027 56.0472L136.436 56.96ZM141.316 53.12L140.5 52.5413L140.5 52.5413L141.316 53.12ZM140.436 40.08L139.729 40.7871L139.734 40.7925L139.739 40.7979L140.436 40.08ZM133.716 36.4L133.433 37.3594L133.445 37.3626L133.456 37.3656L133.716 36.4ZM122.836 33.2L123.118 32.2406L123.113 32.2394L122.836 33.2ZM112.996 27.04L112.185 27.6255L112.191 27.634L112.197 27.6424L112.996 27.04ZM112.116 9.04L111.275 8.49828L111.272 8.50312L112.116 9.04ZM118.356 3.44L117.901 2.54923L117.901 2.54923L118.356 3.44ZM136.516 3.44L136.075 4.33792L136.086 4.34306L136.097 4.34795L136.516 3.44ZM143.476 8.56L142.723 9.2185L142.732 9.22851L142.741 9.23828L143.476 8.56ZM147.556 15.52L147.901 16.4583L148.794 16.1295L148.51 15.2217L147.556 15.52ZM142.996 17.2L142.055 17.5406L142.398 18.4859L143.341 18.1383L142.996 17.2ZM136.836 8.88L136.266 9.70226L136.277 9.70958L136.836 8.88ZM116.596 11.2L115.755 10.6579L115.755 10.6579L116.596 11.2ZM117.316 24L116.537 24.6273L116.537 24.6273L117.316 24ZM125.076 28.56L124.781 29.5155L124.793 29.5191L125.076 28.56ZM134.836 31.44L135.123 30.4822L135.119 30.4809L134.836 31.44ZM144.676 37.36L143.917 38.012L143.924 38.0202L143.932 38.0281L144.676 37.36ZM145.796 55.36L146.622 55.9234L146.628 55.9147L145.796 55.36ZM139.076 60.96L139.502 61.8645L139.509 61.861L139.076 60.96ZM129.396 61.96C125.738 61.96 122.474 61.2653 119.584 59.8963L118.728 61.7037C121.917 63.2147 125.48 63.96 129.396 63.96V61.96ZM119.59 59.8992C116.718 58.5145 114.324 56.7024 112.392 54.4664L110.879 55.7736C113.001 58.2309 115.62 60.2055 118.721 61.7008L119.59 59.8992ZM112.401 54.4764C110.506 52.2232 109.161 49.8053 108.35 47.2207L106.441 47.8193C107.337 50.6747 108.818 53.3235 110.87 55.7636L112.401 54.4764ZM107.736 48.4603L112.376 46.7803L111.695 44.8997L107.055 46.5797L107.736 48.4603ZM111.097 46.1857C112.646 50.3886 114.966 53.6584 118.087 55.9287L119.264 54.3113C116.519 52.315 114.412 49.3981 112.974 45.4943L111.097 46.1857ZM118.094 55.9337C121.271 58.2024 125.026 59.32 129.316 59.32V57.32C125.392 57.32 122.054 56.3042 119.257 54.3063L118.094 55.9337ZM129.316 59.32C132.145 59.32 134.663 58.8484 136.844 57.8728L136.027 56.0472C134.155 56.885 131.926 57.32 129.316 57.32V59.32ZM136.835 57.8767C139.062 56.9062 140.84 55.5176 142.131 53.6987L140.5 52.5413C139.444 54.029 137.97 55.2005 136.036 56.0433L136.835 57.8767ZM142.131 53.6987C143.437 51.8586 144.076 49.7046 144.076 47.28H142.076C142.076 49.3354 141.541 51.0747 140.5 52.5413L142.131 53.6987ZM144.076 47.28C144.076 43.991 143.134 41.3036 141.132 39.3621L139.739 40.7979C141.257 42.2698 142.076 44.3823 142.076 47.28H144.076ZM141.143 39.3729C139.291 37.5207 136.886 36.2179 133.976 35.4344L133.456 37.3656C136.092 38.0754 138.167 39.2259 139.729 40.7871L141.143 39.3729ZM133.998 35.4406L123.118 32.2406L122.553 34.1594L133.433 37.3594L133.998 35.4406ZM123.113 32.2394C118.832 31.0013 115.763 29.0461 113.794 26.4376L112.197 27.6424C114.495 30.6872 117.986 32.8387 122.558 34.1606L123.113 32.2394ZM113.806 26.4545C111.852 23.7487 110.876 20.7012 110.876 17.28H108.876C108.876 21.1122 109.979 24.5713 112.185 27.6255L113.806 26.4545ZM110.876 17.28C110.876 14.2978 111.581 11.7427 112.959 9.57687L111.272 8.50312C109.664 11.0306 108.876 13.9688 108.876 17.28H110.876ZM112.956 9.5817C114.405 7.33431 116.349 5.58617 118.81 4.33076L117.901 2.54923C115.135 3.96049 112.92 5.94568 111.275 8.49829L112.956 9.5817ZM118.81 4.33076C121.266 3.07791 124.067 2.44 127.236 2.44V0.439998C123.791 0.439998 120.672 1.13542 117.901 2.54923L118.81 4.33076ZM127.236 2.44C130.572 2.44 133.511 3.08084 136.075 4.33792L136.956 2.54207C134.08 1.13249 130.833 0.439998 127.236 0.439998V2.44ZM136.097 4.34795C138.752 5.57376 140.956 7.19881 142.723 9.2185L144.228 7.90149C142.262 5.65452 139.825 3.86624 136.935 2.53204L136.097 4.34795ZM142.741 9.23828C144.566 11.2156 145.848 13.4075 146.601 15.8183L148.51 15.2217C147.663 12.5125 146.225 10.0644 144.21 7.88172L142.741 9.23828ZM147.21 14.5817L142.65 16.2617L143.341 18.1383L147.901 16.4583L147.21 14.5817ZM143.936 16.8594C142.543 13.0152 140.372 10.0548 137.394 8.05041L136.277 9.70958C138.846 11.4386 140.782 14.0248 142.055 17.5406L143.936 16.8594ZM137.405 8.05781C134.454 6.01497 131.08 5 127.316 5V7C130.698 7 133.671 7.90502 136.266 9.70219L137.405 8.05781ZM127.316 5C124.838 5 122.578 5.47951 120.559 6.46049L121.433 8.25951C123.146 7.42715 125.1 7 127.316 7V5ZM120.559 6.46049C118.537 7.44256 116.927 8.84219 115.755 10.6579L117.436 11.7421C118.398 10.2511 119.721 9.09077 121.433 8.25951L120.559 6.46049ZM115.755 10.6579C114.571 12.4944 113.996 14.6351 113.996 17.04H115.996C115.996 14.9649 116.487 13.2123 117.436 11.7421L115.755 10.6579ZM113.996 17.04C113.996 19.9632 114.832 22.511 116.537 24.6273L118.094 23.3727C116.706 21.649 115.996 19.5568 115.996 17.04H113.996ZM116.537 24.6273C118.259 26.7653 121.059 28.3662 124.781 29.5155L125.371 27.6045C121.839 26.5138 119.465 25.0747 118.094 23.3727L116.537 24.6273ZM124.793 29.5191L134.553 32.3991L135.119 30.4809L125.359 27.6009L124.793 29.5191ZM134.548 32.3978C138.68 33.6375 141.778 35.5242 143.917 38.012L145.434 36.708C142.987 33.8624 139.524 31.8025 135.123 30.4822L134.548 32.3978ZM143.932 38.0281C146.098 40.4402 147.196 43.4217 147.196 47.04H149.196C149.196 42.9783 147.947 39.5065 145.42 36.6919L143.932 38.0281ZM147.196 47.04C147.196 50.008 146.444 52.5845 144.964 54.8053L146.628 55.9147C148.347 53.3355 149.196 50.3654 149.196 47.04H147.196ZM144.969 54.7967C143.48 56.9808 141.384 58.7387 138.642 60.059L139.509 61.861C142.527 60.4079 144.911 58.4326 146.622 55.9233L144.969 54.7967ZM138.649 60.0556C135.976 61.3166 132.898 61.96 129.396 61.96V63.96C133.146 63.96 136.522 63.27 139.502 61.8644L138.649 60.0556ZM161.442 62H160.442V63H161.442V62ZM161.442 2.39999V1.39999H160.442V2.39999H161.442ZM166.642 2.39999H167.642V1.39999H166.642V2.39999ZM166.642 62V63H167.642V62H166.642ZM162.442 62V2.39999H160.442V62H162.442ZM161.442 3.39999H166.642V1.39999H161.442V3.39999ZM165.642 2.39999V62H167.642V2.39999H165.642ZM166.642 61H161.442V63H166.642V61ZM196.958 60.72L196.551 61.6332L196.559 61.637L196.568 61.6406L196.958 60.72ZM187.918 54.32L187.183 54.9983L187.19 55.0054L187.918 54.32ZM181.918 44.56L180.981 44.9082L180.985 44.9199L181.918 44.56ZM181.918 19.92L180.985 19.5601L180.981 19.5718L181.918 19.92ZM187.918 10.16L187.19 9.47416L187.183 9.48172L187.918 10.16ZM197.038 3.76L197.434 4.67843L197.44 4.67552L197.038 3.76ZM219.518 3.6L219.108 4.51194L219.113 4.51443L219.518 3.6ZM227.678 9.12L226.963 9.81859L226.971 9.82711L227.678 9.12ZM232.478 16.08L232.901 16.9862L233.758 16.5864L233.407 15.7086L232.478 16.08ZM227.678 18.32L226.761 18.7187L227.17 19.6604L228.101 19.2262L227.678 18.32ZM220.318 9.6L219.76 10.4299L219.768 10.4352L219.776 10.4403L220.318 9.6ZM187.998 18.72L187.111 18.2583L187.109 18.2629L187.998 18.72ZM187.998 45.76L187.106 46.2121L187.111 46.2217L187.998 45.76ZM196.318 54.8L195.8 55.6552L195.806 55.6586L196.318 54.8ZM219.598 55.28L220.085 56.1535L220.09 56.1508L219.598 55.28ZM227.358 47.76L226.501 47.2455L226.498 47.2498L227.358 47.76ZM230.238 34L230.968 33.3168L229.238 31.4672V34H230.238ZM232.558 36.48V37.48H234.863L233.288 35.7968L232.558 36.48ZM208.558 36.48H207.558V37.48H208.558V36.48ZM208.558 31.84V30.84H207.558V31.84H208.558ZM235.438 31.84H236.438V30.84H235.438V31.84ZM233.358 46.8L232.438 46.4079L232.435 46.4154L233.358 46.8ZM227.758 55.28L228.465 55.9871L228.473 55.9793L227.758 55.28ZM219.198 60.96L219.577 61.8853L219.585 61.8822L219.198 60.96ZM208.558 61.96C204.465 61.96 200.733 61.2352 197.349 59.7994L196.568 61.6406C200.223 63.1914 204.224 63.96 208.558 63.96V61.96ZM197.366 59.8068C194.018 58.3132 191.114 56.2566 188.646 53.6346L187.19 55.0054C189.842 57.8234 192.965 60.0335 196.551 61.6332L197.366 59.8068ZM188.653 53.6417C186.184 50.9666 184.248 47.8229 182.851 44.2001L180.985 44.9199C182.468 48.7637 184.533 52.1268 187.183 54.9983L188.653 53.6417ZM182.856 44.2118C181.515 40.6029 180.838 36.6159 180.838 32.24H178.838C178.838 36.8241 179.548 41.0504 180.981 44.9082L182.856 44.2118ZM180.838 32.24C180.838 27.8641 181.515 23.8771 182.856 20.2682L180.981 19.5718C179.548 23.4296 178.838 27.6559 178.838 32.24H180.838ZM182.851 20.2799C184.248 16.6571 186.184 13.5134 188.653 10.8383L187.183 9.48172C184.533 12.3532 182.468 15.7163 180.985 19.5601L182.851 20.2799ZM188.646 10.8458C191.166 8.1709 194.094 6.11718 197.434 4.67841L196.643 2.84158C193.049 4.38948 189.896 6.60243 187.19 9.4742L188.646 10.8458ZM197.44 4.67552C200.823 3.18901 204.525 2.44 208.558 2.44V0.439998C204.271 0.439998 200.293 1.23766 196.636 2.84448L197.44 4.67552ZM208.558 2.44C212.547 2.44 216.057 3.13903 219.108 4.51192L219.928 2.68808C216.579 1.18096 212.782 0.439998 208.558 0.439998V2.44ZM219.113 4.51443C222.266 5.90989 224.876 7.68121 226.963 9.81854L228.394 8.42146C226.107 6.07879 223.277 4.17011 219.923 2.68557L219.113 4.51443ZM226.971 9.82711C229.136 11.9924 230.65 14.2021 231.55 16.4514L233.407 15.7086C232.386 13.1579 230.7 10.7276 228.385 8.41289L226.971 9.82711ZM232.055 15.1738L227.255 17.4138L228.101 19.2262L232.901 16.9862L232.055 15.1738ZM228.595 17.9213C226.918 14.0641 224.336 11.0022 220.86 8.7597L219.776 10.4403C222.913 12.4644 225.238 15.2159 226.761 18.7187L228.595 17.9213ZM220.876 8.77005C217.431 6.45469 213.309 5.32 208.558 5.32V7.32C212.981 7.32 216.698 8.37198 219.76 10.4299L220.876 8.77005ZM208.558 5.32C203.856 5.32 199.619 6.45634 195.876 8.74703L196.92 10.453C200.323 8.37032 204.193 7.32 208.558 7.32V5.32ZM195.876 8.74703C192.14 11.0331 189.217 14.2118 187.111 18.2583L188.885 19.1817C190.832 15.4415 193.509 12.5402 196.92 10.453L195.876 8.74703ZM187.109 18.2629C185.05 22.2697 184.038 26.939 184.038 32.24H186.038C186.038 27.1944 187 22.8503 188.888 19.1771L187.109 18.2629ZM184.038 32.24C184.038 37.49 185.05 42.1563 187.106 46.2121L188.89 45.3079C186.999 41.577 186.038 37.23 186.038 32.24H184.038ZM187.111 46.2217C189.216 50.2663 192.113 53.4206 195.8 55.6552L196.836 53.9448C193.484 51.9127 190.833 49.0404 188.885 45.2983L187.111 46.2217ZM195.806 55.6586C199.549 57.8937 203.81 59 208.558 59V57C204.133 57 200.234 55.9729 196.831 53.9414L195.806 55.6586ZM208.558 59C212.817 59 216.668 58.0581 220.085 56.1535L219.111 54.4065C216.022 56.1286 212.512 57 208.558 57V59ZM220.09 56.1508C223.543 54.2016 226.259 51.573 228.218 48.2702L226.498 47.2498C224.724 50.2403 222.267 52.6251 219.107 54.4092L220.09 56.1508ZM228.216 48.2745C230.238 44.9037 231.238 41.0691 231.238 36.8H229.238C229.238 40.7442 228.318 44.2163 226.501 47.2455L228.216 48.2745ZM231.238 36.8V34H229.238V36.8H231.238ZM229.508 34.6832L231.828 37.1632L233.288 35.7968L230.968 33.3168L229.508 34.6832ZM232.558 35.48H208.558V37.48H232.558V35.48ZM209.558 36.48V31.84H207.558V36.48H209.558ZM208.558 32.84H235.438V30.84H208.558V32.84ZM234.438 31.84V36.32H236.438V31.84H234.438ZM234.438 36.32C234.438 39.9262 233.769 43.2854 232.438 46.4079L234.278 47.1921C235.72 43.808 236.438 40.1805 236.438 36.32H234.438ZM232.435 46.4154C231.15 49.4994 229.354 52.219 227.043 54.5807L228.473 55.9793C230.963 53.4343 232.9 50.5006 234.281 47.1846L232.435 46.4154ZM227.051 54.5729C224.748 56.876 222.005 58.6985 218.811 60.0378L219.585 61.8822C223.004 60.4482 225.968 58.484 228.465 55.9871L227.051 54.5729ZM218.819 60.0347C215.697 61.3143 212.28 61.96 208.558 61.96V63.96C212.516 63.96 216.193 63.2723 219.577 61.8853L218.819 60.0347ZM247.848 62H246.848V63H247.848V62ZM247.848 2.39999V1.39999H246.848V2.39999H247.848ZM252.248 2.39999L253.068 1.82815L252.77 1.39999H252.248V2.39999ZM288.328 54.16V55.16H290.244L289.148 53.5882L288.328 54.16ZM286.648 54.16H285.648V55.16H286.648V54.16ZM286.648 2.39999V1.39999H285.648V2.39999H286.648ZM291.848 2.39999H292.848V1.39999H291.848V2.39999ZM291.848 62V63H292.848V62H291.848ZM287.448 62L286.627 62.5712L286.926 63H287.448V62ZM251.208 9.92V8.92H249.294L250.387 10.4912L251.208 9.92ZM253.048 9.92H254.048V8.92H253.048V9.92ZM253.048 62V63H254.048V62H253.048ZM248.848 62V2.39999H246.848V62H248.848ZM247.848 3.39999H252.248V1.39999H247.848V3.39999ZM251.428 2.97184L287.508 54.7318L289.148 53.5882L253.068 1.82815L251.428 2.97184ZM288.328 53.16H286.648V55.16H288.328V53.16ZM287.648 54.16V2.39999H285.648V54.16H287.648ZM286.648 3.39999H291.848V1.39999H286.648V3.39999ZM290.848 2.39999V62H292.848V2.39999H290.848ZM291.848 61H287.448V63H291.848V61ZM288.269 61.4288L252.029 9.34882L250.387 10.4912L286.627 62.5712L288.269 61.4288ZM251.208 10.92H253.048V8.92H251.208V10.92ZM252.048 9.92V62H254.048V9.92H252.048ZM253.048 61H247.848V63H253.048V61ZM329.556 60.32L330.05 59.4508L330.05 59.4508L329.556 60.32ZM322.276 53.04L321.397 53.5168L321.401 53.5257L321.406 53.5345L322.276 53.04ZM319.716 2.39999V1.39999H318.716V2.39999H319.716ZM324.916 2.39999H325.916V1.39999H324.916V2.39999ZM326.836 50.64L325.953 51.1106L325.96 51.1224L325.966 51.134L326.836 50.64ZM332.276 56.16L331.773 57.0245L331.782 57.0295L332.276 56.16ZM348.356 56.16L347.862 55.2905L347.853 55.2955L348.356 56.16ZM353.796 50.64L354.674 51.1189L354.678 51.1106L353.796 50.64ZM355.716 2.39999V1.39999H354.716V2.39999H355.716ZM360.916 2.39999H361.916V1.39999H360.916V2.39999ZM358.356 53.04L359.231 53.5231L359.235 53.5168L358.356 53.04ZM351.156 60.32L350.661 59.4508L351.156 60.32ZM340.356 61.96C336.395 61.96 332.971 61.1127 330.05 59.4508L329.061 61.1892C332.327 63.0473 336.103 63.96 340.356 63.96V61.96ZM330.05 59.4508C327.113 57.7798 324.816 55.4825 323.145 52.5455L321.406 53.5345C323.255 56.7841 325.811 59.3402 329.061 61.1892L330.05 59.4508ZM323.155 52.5632C321.537 49.5814 320.716 46.1491 320.716 42.24H318.716C318.716 46.4375 319.601 50.2053 321.397 53.5168L323.155 52.5632ZM320.716 42.24V2.39999H318.716V42.24H320.716ZM319.716 3.39999H324.916V1.39999H319.716V3.39999ZM323.916 2.39999V42.4H325.916V2.39999H323.916ZM323.916 42.4C323.916 45.6347 324.586 48.5469 325.953 51.1106L327.718 50.1694C326.525 47.9331 325.916 45.352 325.916 42.4H323.916ZM325.966 51.134C327.385 53.6316 329.324 55.6007 331.773 57.0245L332.778 55.2955C330.641 54.0527 328.953 52.3417 327.705 50.146L325.966 51.134ZM331.782 57.0295C334.297 58.4587 337.165 59.16 340.356 59.16V57.16C337.467 57.16 334.947 56.5279 332.77 55.2905L331.782 57.0295ZM340.356 59.16C343.546 59.16 346.391 58.4589 348.858 57.0245L347.853 55.2955C345.733 56.5278 343.245 57.16 340.356 57.16V59.16ZM348.85 57.0295C351.356 55.6051 353.303 53.6306 354.674 51.1189L352.918 50.1611C351.728 52.3428 350.048 54.0482 347.862 55.2905L348.85 57.0295ZM354.678 51.1106C356.045 48.5469 356.716 45.6347 356.716 42.4H354.716C354.716 45.352 354.106 47.9331 352.913 50.1694L354.678 51.1106ZM356.716 42.4V2.39999H354.716V42.4H356.716ZM355.716 3.39999H360.916V1.39999H355.716V3.39999ZM359.916 2.39999V42.24H361.916V2.39999H359.916ZM359.916 42.24C359.916 46.1491 359.094 49.5814 357.477 52.5632L359.235 53.5168C361.031 50.2053 361.916 46.4375 361.916 42.24H359.916ZM357.48 52.5569C355.863 55.4877 353.596 57.7813 350.661 59.4508L351.65 61.1892C354.902 59.3387 357.435 56.779 359.231 53.5231L357.48 52.5569ZM350.661 59.4508C347.74 61.1127 344.316 61.96 340.356 61.96V63.96C344.609 63.96 348.384 63.0473 351.65 61.1892L350.661 59.4508ZM375.661 62H374.661V63H375.661V62ZM375.661 2.39999V1.39999H374.661V2.39999H375.661ZM380.861 2.39999H381.861V1.39999H380.861V2.39999ZM380.861 62V63H381.861V62H380.861ZM376.661 62V2.39999H374.661V62H376.661ZM375.661 3.39999H380.861V1.39999H375.661V3.39999ZM379.861 2.39999V62H381.861V2.39999H379.861ZM380.861 61H375.661V63H380.861V61ZM388.457 71.6L387.532 71.2209L386.967 72.6H388.457V71.6ZM415.497 5.6V4.6H414.826L414.572 5.22088L415.497 5.6ZM421.177 5.6L422.102 5.97911L422.667 4.6H421.177V5.6ZM394.137 71.6V72.6H394.808L395.062 71.9791L394.137 71.6ZM389.382 71.9791L416.422 5.97911L414.572 5.22088L387.532 71.2209L389.382 71.9791ZM415.497 6.6H421.177V4.6H415.497V6.6ZM420.252 5.22088L393.212 71.2209L395.062 71.9791L422.102 5.97911L420.252 5.22088ZM394.137 70.6H388.457V72.6H394.137V70.6ZM438.384 60.32L438.878 59.4508L438.878 59.4508L438.384 60.32ZM431.104 53.04L430.225 53.5168L430.23 53.5257L430.235 53.5345L431.104 53.04ZM428.544 2.39999V1.39999H427.544V2.39999H428.544ZM433.744 2.39999H434.744V1.39999H433.744V2.39999ZM435.664 50.64L434.781 51.1106L434.788 51.1224L434.794 51.134L435.664 50.64ZM441.104 56.16L440.601 57.0245L440.61 57.0295L441.104 56.16ZM457.184 56.16L456.69 55.2905L456.681 55.2955L457.184 56.16ZM462.624 50.64L463.502 51.1189L463.506 51.1106L462.624 50.64ZM464.544 2.39999V1.39999H463.544V2.39999H464.544ZM469.744 2.39999H470.744V1.39999H469.744V2.39999ZM467.184 53.04L468.059 53.5231L468.063 53.5168L467.184 53.04ZM459.984 60.32L459.489 59.4508L459.984 60.32ZM449.184 61.96C445.223 61.96 441.799 61.1127 438.878 59.4508L437.889 61.1892C441.155 63.0473 444.931 63.96 449.184 63.96V61.96ZM438.878 59.4508C435.941 57.7798 433.644 55.4825 431.973 52.5455L430.235 53.5345C432.084 56.7841 434.64 59.3402 437.889 61.1892L438.878 59.4508ZM431.983 52.5632C430.366 49.5814 429.544 46.1491 429.544 42.24H427.544C427.544 46.4375 428.429 50.2053 430.225 53.5168L431.983 52.5632ZM429.544 42.24V2.39999H427.544V42.24H429.544ZM428.544 3.39999H433.744V1.39999H428.544V3.39999ZM432.744 2.39999V42.4H434.744V2.39999H432.744ZM432.744 42.4C432.744 45.6347 433.414 48.5469 434.781 51.1106L436.546 50.1694C435.353 47.9331 434.744 45.352 434.744 42.4H432.744ZM434.794 51.134C436.213 53.6316 438.152 55.6007 440.601 57.0245L441.606 55.2955C439.469 54.0527 437.781 52.3417 436.533 50.146L434.794 51.134ZM440.61 57.0295C443.125 58.4587 445.993 59.16 449.184 59.16V57.16C446.295 57.16 443.776 56.5279 441.598 55.2905L440.61 57.0295ZM449.184 59.16C452.374 59.16 455.219 58.4589 457.686 57.0245L456.681 55.2955C454.562 56.5278 452.073 57.16 449.184 57.16V59.16ZM457.678 57.0295C460.185 55.6051 462.132 53.6306 463.502 51.1189L461.746 50.1611C460.556 52.3428 458.876 54.0482 456.69 55.2905L457.678 57.0295ZM463.506 51.1106C464.873 48.5469 465.544 45.6347 465.544 42.4H463.544C463.544 45.352 462.934 47.9331 461.741 50.1694L463.506 51.1106ZM465.544 42.4V2.39999H463.544V42.4H465.544ZM464.544 3.39999H469.744V1.39999H464.544V3.39999ZM468.744 2.39999V42.24H470.744V2.39999H468.744ZM468.744 42.24C468.744 46.1491 467.922 49.5814 466.305 52.5632L468.063 53.5168C469.859 50.2053 470.744 46.4375 470.744 42.24H468.744ZM466.308 52.5569C464.691 55.4877 462.424 57.7813 459.489 59.4508L460.478 61.1892C463.731 59.3387 466.263 56.779 468.059 53.5231L466.308 52.5569ZM459.489 59.4508C456.568 61.1127 453.144 61.96 449.184 61.96V63.96C453.437 63.96 457.212 63.0473 460.478 61.1892L459.489 59.4508ZM478.329 62L477.484 61.4654L476.513 63H478.329V62ZM497.609 31.52L498.454 32.0546L498.793 31.518L498.452 30.9825L497.609 31.52ZM479.049 2.39999V1.39999H477.226L478.205 2.93747L479.049 2.39999ZM485.129 2.39999L485.974 1.86551L485.68 1.39999H485.129V2.39999ZM501.369 28.08V29.08H503.184L502.214 27.5455L501.369 28.08ZM500.009 28.08L499.164 27.5455L498.193 29.08H500.009V28.08ZM516.249 2.39999V1.39999H515.698L515.404 1.86551L516.249 2.39999ZM522.249 2.39999L523.092 2.93747L524.072 1.39999H522.249V2.39999ZM503.689 31.52L502.845 30.9825L502.503 31.5202L502.846 32.0577L503.689 31.52ZM523.129 62V63H524.953L523.972 61.4623L523.129 62ZM517.049 62L516.203 62.5331L516.497 63H517.049V62ZM500.009 34.96V33.96H498.197L499.163 35.4931L500.009 34.96ZM501.369 34.96L502.215 35.4931L503.181 33.96H501.369V34.96ZM484.329 62V63H484.881L485.175 62.5331L484.329 62ZM479.174 62.5346L498.454 32.0546L496.764 30.9854L477.484 61.4654L479.174 62.5346ZM498.452 30.9825L479.892 1.86252L478.205 2.93747L496.765 32.0575L498.452 30.9825ZM479.049 3.39999H485.129V1.39999H479.049V3.39999ZM484.284 2.93448L500.524 28.6145L502.214 27.5455L485.974 1.86551L484.284 2.93448ZM501.369 27.08H500.009V29.08H501.369V27.08ZM500.854 28.6145L517.094 2.93448L515.404 1.86551L499.164 27.5455L500.854 28.6145ZM516.249 3.39999H522.249V1.39999H516.249V3.39999ZM521.405 1.86252L502.845 30.9825L504.532 32.0575L523.092 2.93747L521.405 1.86252ZM502.846 32.0577L522.286 62.5377L523.972 61.4623L504.532 30.9823L502.846 32.0577ZM523.129 61H517.049V63H523.129V61ZM517.895 61.4669L500.855 34.4269L499.163 35.4931L516.203 62.5331L517.895 61.4669ZM500.009 35.96H501.369V33.96H500.009V35.96ZM500.523 34.4269L483.483 61.4669L485.175 62.5331L502.215 35.4931L500.523 34.4269ZM484.329 61H478.329V63H484.329V61Z" fill="url(#paint0_linear_423_5)" mask="url(#path-1-outside-1_423_5)"/>
<defs>
<linearGradient id="paint0_linear_423_5" x1="259.5" y1="-21" x2="259.5" y2="80" gradientUnits="userSpaceOnUse">
<stop stop-color="#1D0DB1"/>
<stop offset="1" stop-color="#F8F8F8"/>
</linearGradient>
</defs>
</svg>
