<svg width="24" height="34" viewBox="0 0 24 34" fill="none" xmlns="http://www.w3.org/2000/svg">
<path d="M18.0009 11.3355C19.5919 11.3355 21.1178 10.7384 22.2429 9.6755C23.368 8.61258 24 7.17096 24 5.66777C24 4.16459 23.368 2.72297 22.2429 1.66005C21.1178 0.597139 19.5919 0 18.0009 0L6.00264 0C4.4125 0 2.8875 0.596789 1.7631 1.65908C0.638709 2.72137 0.00703048 4.16215 0.00703048 5.66445C0.00703048 7.16676 0.638709 8.60754 1.7631 9.66983C2.8875 10.7321 4.4125 11.3289 6.00264 11.3289C4.41157 11.3289 2.88567 11.926 1.76062 12.989C0.635565 14.0519 0.00351611 15.4935 0.00351611 16.9967C0.00351611 18.4999 0.635565 19.9415 1.76062 21.0044C2.88567 22.0673 4.41157 22.6645 6.00264 22.6645C4.81612 22.6638 3.65605 22.9956 2.66911 23.6178C1.68218 24.24 0.912705 25.1248 0.458004 26.1602C0.00330305 27.1956 -0.116206 28.3351 0.11459 29.4347C0.345385 30.5343 0.91612 31.5445 1.75462 32.3376C2.59312 33.1307 3.66173 33.6711 4.82531 33.8904C5.98889 34.1098 7.19518 33.9982 8.29164 33.5698C9.3881 33.1415 10.3255 32.4155 10.9853 31.4838C11.645 30.5521 11.9975 29.4565 11.9982 28.3355V11.3355H18.0009ZM18.0009 11.3355C16.8151 11.3355 15.6559 11.6678 14.6699 12.2902C13.6839 12.9126 12.9155 13.7973 12.4617 14.8323C12.0079 15.8674 11.8891 17.0063 12.1205 18.1051C12.3518 19.2039 12.9228 20.2132 13.7613 21.0054C14.5998 21.7976 15.6682 22.337 16.8312 22.5556C17.9942 22.7742 19.1997 22.662 20.2953 22.2333C21.3909 21.8045 22.3272 21.0785 22.986 20.147C23.6448 19.2155 23.9965 18.1203 23.9965 17C23.9963 15.4977 23.3646 14.0571 22.2402 12.9948C21.1159 11.9326 19.591 11.3357 18.0009 11.3355Z" fill="white" fill-opacity="0.25"/>
</svg>
