<svg width="466" height="64" viewBox="0 0 466 64" fill="none" xmlns="http://www.w3.org/2000/svg">
<mask id="path-1-outside-1_404_12368" maskUnits="userSpaceOnUse" x="0" y="0" width="466" height="64" fill="black">
<rect fill="white" width="466" height="64"/>
<path d="M1.52 62V2.39999H37.92V7.2H6.72V29.68H35.12V34.48H6.72V62H1.52ZM48.4731 62V2.39999H68.4731C72.2598 2.39999 75.5931 3.14666 78.4731 4.64C81.3531 6.13333 83.5931 8.24 85.1931 10.96C86.8465 13.68 87.6731 16.8267 87.6731 20.4C87.6731 24.6667 86.4998 28.32 84.1531 31.36C81.8598 34.3467 78.7665 36.4 74.8731 37.52L88.9531 62H82.7931L67.9931 35.92L72.3131 38.4H53.6731V62H48.4731ZM53.6731 33.6H68.6331C71.3531 33.6 73.7531 33.0667 75.8331 32C77.9131 30.88 79.5398 29.3333 80.7131 27.36C81.8865 25.3333 82.4731 22.9867 82.4731 20.32C82.4731 17.6533 81.8865 15.36 80.7131 13.44C79.5398 11.4667 77.9131 9.94666 75.8331 8.88C73.7531 7.76 71.3531 7.2 68.6331 7.2H53.6731V33.6ZM127.249 62.96C123.142 62.96 119.302 62.2133 115.729 60.72C112.155 59.1733 109.009 57.04 106.289 54.32C103.622 51.5467 101.515 48.2933 99.9688 44.56C98.4754 40.7733 97.7288 36.64 97.7288 32.16C97.7288 27.6267 98.4754 23.4933 99.9688 19.76C101.515 16.0267 103.649 12.8 106.369 10.08C109.089 7.30666 112.209 5.17333 115.729 3.68C119.302 2.18666 123.142 1.44 127.249 1.44C131.302 1.44 135.115 2.18666 138.689 3.68C142.262 5.17333 145.382 7.30666 148.049 10.08C150.769 12.8 152.902 16.0533 154.449 19.84C155.995 23.5733 156.769 27.68 156.769 32.16C156.769 36.64 155.995 40.7733 154.449 44.56C152.902 48.2933 150.769 51.5467 148.049 54.32C145.382 57.04 142.262 59.1733 138.689 60.72C135.115 62.2133 131.302 62.96 127.249 62.96ZM127.249 58C130.822 58 134.102 57.3333 137.089 56C140.075 54.6667 142.635 52.8 144.769 50.4C146.955 48 148.635 45.2533 149.809 42.16C150.982 39.0133 151.569 35.68 151.569 32.16C151.569 28.6933 150.982 25.4133 149.809 22.32C148.635 19.1733 146.955 16.4 144.769 14C142.635 11.6 140.075 9.73333 137.089 8.4C134.155 7.01333 130.875 6.32 127.249 6.32C123.622 6.32 120.315 7.01333 117.329 8.4C114.395 9.73333 111.835 11.6 109.649 14C107.515 16.4 105.862 19.1733 104.689 22.32C103.515 25.4133 102.929 28.6933 102.929 32.16C102.929 35.68 103.515 39.0133 104.689 42.16C105.862 45.2533 107.515 48 109.649 50.4C111.835 52.8 114.422 54.6667 117.409 56C120.395 57.3333 123.675 58 127.249 58ZM169.958 62V2.39999H174.358L210.438 54.16H208.758V2.39999H213.958V62H209.558L173.318 9.92H175.158V62H169.958ZM239.422 62V7.2H222.782V2.39999H261.182V7.2H244.622V62H239.422ZM268.358 43.04V38.4H295.158V43.04H268.358ZM308.629 62V2.39999H346.229V7.2H313.829V29.68H344.629V34.48H313.829V57.2H346.229V62H308.629ZM357.692 62V2.39999H362.092L398.172 54.16H396.492V2.39999H401.692V62H397.292L361.052 9.92H362.892V62H357.692ZM416.676 62V2.39999H435.956C441.823 2.39999 446.89 3.62666 451.156 6.08C455.476 8.48 458.81 11.92 461.156 16.4C463.503 20.8267 464.676 26.08 464.676 32.16C464.676 38.1867 463.503 43.44 461.156 47.92C458.81 52.4 455.476 55.8667 451.156 58.32C446.89 60.7733 441.823 62 435.956 62H416.676ZM421.876 57.2H435.876C440.623 57.2 444.73 56.16 448.196 54.08C451.716 52 454.436 49.0933 456.356 45.36C458.33 41.5733 459.316 37.1733 459.316 32.16C459.316 27.0933 458.33 22.6933 456.356 18.96C454.436 15.2267 451.716 12.3467 448.196 10.32C444.676 8.24 440.57 7.2 435.876 7.2H421.876V57.2Z"/>
</mask>
<path d="M1.52 62H0.52V63H1.52V62ZM1.52 2.39999V1.39999H0.52V2.39999H1.52ZM37.92 2.39999H38.92V1.39999H37.92V2.39999ZM37.92 7.2V8.2H38.92V7.2H37.92ZM6.72 7.2V6.2H5.72V7.2H6.72ZM6.72 29.68H5.72V30.68H6.72V29.68ZM35.12 29.68H36.12V28.68H35.12V29.68ZM35.12 34.48V35.48H36.12V34.48H35.12ZM6.72 34.48V33.48H5.72V34.48H6.72ZM6.72 62V63H7.72V62H6.72ZM2.52 62V2.39999H0.52V62H2.52ZM1.52 3.39999H37.92V1.39999H1.52V3.39999ZM36.92 2.39999V7.2H38.92V2.39999H36.92ZM37.92 6.2H6.72V8.2H37.92V6.2ZM5.72 7.2V29.68H7.72V7.2H5.72ZM6.72 30.68H35.12V28.68H6.72V30.68ZM34.12 29.68V34.48H36.12V29.68H34.12ZM35.12 33.48H6.72V35.48H35.12V33.48ZM5.72 34.48V62H7.72V34.48H5.72ZM6.72 61H1.52V63H6.72V61ZM48.4731 62H47.4731V63H48.4731V62ZM48.4731 2.39999V1.39999H47.4731V2.39999H48.4731ZM78.4731 4.64L78.0128 5.52775L78.4731 4.64ZM85.1931 10.96L84.3312 11.467L84.3349 11.4732L84.3386 11.4794L85.1931 10.96ZM84.1531 31.36L83.3615 30.7489L83.36 30.751L84.1531 31.36ZM74.8731 37.52L74.5967 36.559L73.3698 36.9119L74.0063 38.0186L74.8731 37.52ZM88.9531 62V63H90.6819L89.82 61.5014L88.9531 62ZM82.7931 62L81.9234 62.4936L82.2108 63H82.7931V62ZM67.9931 35.92L68.491 35.0527L65.3172 33.2308L67.1234 36.4136L67.9931 35.92ZM72.3131 38.4V39.4H76.0636L72.811 37.5327L72.3131 38.4ZM53.6731 38.4V37.4H52.6731V38.4H53.6731ZM53.6731 62V63H54.6731V62H53.6731ZM53.6731 33.6H52.6731V34.6H53.6731V33.6ZM75.8331 32L76.2894 32.8898L76.2984 32.8852L76.3072 32.8805L75.8331 32ZM80.7131 27.36L81.5727 27.8711L81.5786 27.861L80.7131 27.36ZM80.7131 13.44L79.8535 13.9511L79.8598 13.9614L80.7131 13.44ZM75.8331 8.88L75.359 9.76047L75.3679 9.76523L75.3768 9.76982L75.8331 8.88ZM53.6731 7.2V6.2H52.6731V7.2H53.6731ZM49.4731 62V2.39999H47.4731V62H49.4731ZM48.4731 3.39999H68.4731V1.39999H48.4731V3.39999ZM68.4731 3.39999C72.1264 3.39999 75.2971 4.11959 78.0128 5.52775L78.9334 3.75224C75.8892 2.17373 72.3932 1.39999 68.4731 1.39999V3.39999ZM78.0128 5.52775C80.7307 6.93704 82.8294 8.91391 84.3312 11.467L86.0551 10.453C84.3569 7.56609 81.9755 5.32962 78.9334 3.75224L78.0128 5.52775ZM84.3386 11.4794C85.8855 14.0243 86.6731 16.9868 86.6731 20.4H88.6731C88.6731 16.6665 87.8074 13.3357 86.0477 10.4406L84.3386 11.4794ZM86.6731 20.4C86.6731 24.4715 85.5581 27.9035 83.3615 30.7489L84.9447 31.9711C87.4415 28.7365 88.6731 24.8619 88.6731 20.4H86.6731ZM83.36 30.751C81.2069 33.555 78.3011 35.4933 74.5967 36.559L75.1496 38.481C79.2318 37.3067 82.5127 35.1384 84.9463 31.969L83.36 30.751ZM74.0063 38.0186L88.0863 62.4986L89.82 61.5014L75.74 37.0214L74.0063 38.0186ZM88.9531 61H82.7931V63H88.9531V61ZM83.6628 61.5064L68.8628 35.4264L67.1234 36.4136L81.9234 62.4936L83.6628 61.5064ZM67.4953 36.7873L71.8153 39.2673L72.811 37.5327L68.491 35.0527L67.4953 36.7873ZM72.3131 37.4H53.6731V39.4H72.3131V37.4ZM52.6731 38.4V62H54.6731V38.4H52.6731ZM53.6731 61H48.4731V63H53.6731V61ZM53.6731 34.6H68.6331V32.6H53.6731V34.6ZM68.6331 34.6C71.4858 34.6 74.0468 34.0399 76.2894 32.8898L75.3768 31.1102C73.4595 32.0934 71.2204 32.6 68.6331 32.6V34.6ZM76.3072 32.8805C78.542 31.6772 80.3039 30.0049 81.5727 27.8711L79.8536 26.8489C78.7757 28.6618 77.2843 30.0828 75.359 31.1195L76.3072 32.8805ZM81.5786 27.861C82.8517 25.662 83.4731 23.1378 83.4731 20.32H81.4731C81.4731 22.8355 80.9212 25.0047 79.8477 26.859L81.5786 27.861ZM83.4731 20.32C83.4731 17.5037 82.8522 15.0225 81.5664 12.9185L79.8598 13.9614C80.9207 15.6975 81.4731 17.8029 81.4731 20.32H83.4731ZM81.5727 12.9289C80.3014 10.7909 78.5336 9.14102 76.2894 7.99018L75.3768 9.76982C77.2927 10.7523 78.7782 12.1425 79.8536 13.9511L81.5727 12.9289ZM76.3072 7.99953C74.0608 6.78991 71.4934 6.2 68.6331 6.2V8.2C71.2129 8.2 73.4455 8.73008 75.359 9.76047L76.3072 7.99953ZM68.6331 6.2H53.6731V8.2H68.6331V6.2ZM52.6731 7.2V33.6H54.6731V7.2H52.6731ZM115.729 60.72L115.331 61.6378L115.343 61.6427L115.729 60.72ZM106.289 54.32L105.568 55.0131L105.575 55.0202L105.582 55.0271L106.289 54.32ZM99.9688 44.56L99.0385 44.9269L99.0416 44.9348L99.0449 44.9427L99.9688 44.56ZM99.9688 19.76L99.0448 19.3772L99.0403 19.3886L99.9688 19.76ZM106.369 10.08L107.076 10.7871L107.083 10.7802L106.369 10.08ZM115.729 3.68L115.343 2.75731L115.338 2.75941L115.729 3.68ZM138.689 3.68L139.074 2.75733L138.689 3.68ZM148.049 10.08L147.328 10.7731L147.335 10.7802L147.342 10.7871L148.049 10.08ZM154.449 19.84L153.523 20.2181L153.525 20.2227L154.449 19.84ZM154.449 44.56L155.373 44.9427L155.375 44.9381L154.449 44.56ZM148.049 54.32L147.335 53.6198L147.335 53.6199L148.049 54.32ZM138.689 60.72L139.074 61.6427L139.086 61.6377L138.689 60.72ZM137.089 56L136.681 55.0869L137.089 56ZM144.769 50.4L144.029 49.7265L144.021 49.7356L144.769 50.4ZM149.809 42.16L150.744 42.5147L150.746 42.5094L149.809 42.16ZM149.809 22.32L148.872 22.6694L148.874 22.6747L149.809 22.32ZM144.769 14L144.021 14.6644L144.03 14.6735L144.769 14ZM137.089 8.4L136.661 9.30407L136.671 9.30871L136.681 9.31314L137.089 8.4ZM117.329 8.4L117.743 9.31039L117.75 9.30701L117.329 8.4ZM109.649 14L108.91 13.3265L108.901 13.3356L109.649 14ZM104.689 22.32L105.624 22.6747L105.626 22.6694L104.689 22.32ZM104.689 42.16L103.752 42.5094L103.754 42.5147L104.689 42.16ZM109.649 50.4L108.901 51.0644L108.91 51.0735L109.649 50.4ZM117.409 56L117.816 55.0869L117.409 56ZM127.249 61.96C123.266 61.96 119.558 61.2366 116.114 59.7973L115.343 61.6427C119.046 63.1901 123.018 63.96 127.249 63.96V61.96ZM116.126 59.8023C112.667 58.305 109.626 56.2427 106.996 53.6129L105.582 55.0271C108.392 57.8373 111.644 60.0416 115.332 61.6377L116.126 59.8023ZM107.01 53.6269C104.434 50.9479 102.394 47.8013 100.893 44.1773L99.0449 44.9427C100.637 48.7854 102.811 52.1454 105.568 55.0131L107.01 53.6269ZM100.899 44.1931C99.4562 40.5345 98.7288 36.5271 98.7288 32.16H96.7288C96.7288 36.7529 97.4947 41.0122 99.0385 44.9269L100.899 44.1931ZM98.7288 32.16C98.7288 27.7378 99.4568 23.7325 100.897 20.1314L99.0403 19.3886C97.494 23.2542 96.7288 27.5156 96.7288 32.16H98.7288ZM100.893 20.1427C102.392 16.5245 104.453 13.4096 107.076 10.7871L105.662 9.37289C102.844 12.1904 100.639 15.5289 99.0449 19.3773L100.893 20.1427ZM107.083 10.7802C109.712 8.09937 112.723 6.04164 116.119 4.60058L115.338 2.75941C111.695 4.30503 108.466 6.51395 105.655 9.37979L107.083 10.7802ZM116.114 4.60267C119.558 3.16342 123.266 2.44 127.249 2.44V0.439999C123.018 0.439999 119.046 1.20991 115.343 2.75733L116.114 4.60267ZM127.249 2.44C131.176 2.44 134.858 3.16275 138.303 4.60267L139.074 2.75733C135.373 1.21058 131.428 0.439999 127.249 0.439999V2.44ZM138.303 4.60267C141.751 6.04359 144.757 8.0991 147.328 10.7731L148.77 9.38689C146.007 6.51423 142.773 4.30308 139.074 2.75733L138.303 4.60267ZM147.342 10.7871C149.962 13.4072 152.023 16.5467 153.523 20.2181L155.375 19.4619C153.781 15.56 151.576 12.1928 148.756 9.37289L147.342 10.7871ZM153.525 20.2227C155.016 23.8222 155.769 27.7971 155.769 32.16H157.769C157.769 27.5629 156.975 23.3245 155.373 19.4573L153.525 20.2227ZM155.769 32.16C155.769 36.5227 155.016 40.5262 153.523 44.1819L155.375 44.9381C156.975 41.0204 157.769 36.7573 157.769 32.16H155.769ZM153.525 44.1773C152.025 47.7972 149.962 50.9415 147.335 53.6198L148.763 55.0202C151.576 52.1518 153.779 48.7895 155.373 44.9427L153.525 44.1773ZM147.335 53.6199C144.761 56.2455 141.749 58.3058 138.292 59.8023L139.086 61.6377C142.775 60.0408 146.004 57.8345 148.763 55.0201L147.335 53.6199ZM138.303 59.7973C134.858 61.2373 131.176 61.96 127.249 61.96V63.96C131.428 63.96 135.373 63.1894 139.074 61.6427L138.303 59.7973ZM127.249 59C130.949 59 134.37 58.3089 137.496 56.9131L136.681 55.0869C133.834 56.3578 130.695 57 127.249 57V59ZM137.496 56.9131C140.61 55.523 143.287 53.5725 145.516 51.0644L144.021 49.7356C141.984 52.0275 139.541 53.8103 136.681 55.0869L137.496 56.9131ZM145.508 51.0735C147.781 48.5787 149.527 45.7234 150.744 42.5147L148.874 41.8053C147.744 44.7833 146.13 47.4213 144.03 49.7265L145.508 51.0735ZM150.746 42.5094C151.963 39.2456 152.569 35.7935 152.569 32.16H150.569C150.569 35.5665 150.001 38.781 148.872 41.8106L150.746 42.5094ZM152.569 32.16C152.569 28.578 151.962 25.1773 150.744 21.9653L148.874 22.6747C150.002 25.6493 150.569 28.8086 150.569 32.16H152.569ZM150.746 21.9706C149.529 18.7085 147.784 15.8242 145.508 13.3265L144.03 14.6735C146.127 16.9758 147.742 19.6382 148.872 22.6694L150.746 21.9706ZM145.516 13.3356C143.287 10.8275 140.61 8.87696 137.496 7.48686L136.681 9.31314C139.541 10.5897 141.984 12.3725 144.021 14.6644L145.516 13.3356ZM137.516 7.49593C134.434 6.03901 131.006 5.32 127.249 5.32V7.32C130.745 7.32 133.877 7.98766 136.661 9.30407L137.516 7.49593ZM127.249 5.32C123.492 5.32 120.039 6.03909 116.908 7.49299L117.75 9.30701C120.592 7.98757 123.753 7.32 127.249 7.32V5.32ZM116.915 7.48963C113.857 8.87949 111.187 10.8271 108.91 13.3265L110.388 14.6735C112.484 12.3729 114.934 10.5872 117.743 9.31037L116.915 7.48963ZM108.901 13.3356C106.682 15.8322 104.966 18.7135 103.752 21.9706L105.626 22.6694C106.758 19.6331 108.349 16.9678 110.396 14.6644L108.901 13.3356ZM103.754 21.9653C102.535 25.1773 101.929 28.578 101.929 32.16H103.929C103.929 28.8086 104.495 25.6493 105.624 22.6747L103.754 21.9653ZM101.929 32.16C101.929 35.7935 102.535 39.2456 103.752 42.5094L105.626 41.8106C104.496 38.781 103.929 35.5665 103.929 32.16H101.929ZM103.754 42.5147C104.969 45.7183 106.685 48.5706 108.901 51.0644L110.396 49.7356C108.346 47.4294 106.755 44.7884 105.624 41.8053L103.754 42.5147ZM108.91 51.0735C111.19 53.5761 113.89 55.524 117.001 56.9131L117.816 55.0869C114.955 53.8093 112.481 52.0239 110.388 49.7265L108.91 51.0735ZM117.001 56.9131C120.128 58.3089 123.548 59 127.249 59V57C123.803 57 120.663 56.3578 117.816 55.0869L117.001 56.9131ZM169.958 62H168.958V63H169.958V62ZM169.958 2.39999V1.39999H168.958V2.39999H169.958ZM174.357 2.39999L175.178 1.82815L174.879 1.39999H174.357V2.39999ZM210.438 54.16V55.16H212.354L211.258 53.5882L210.438 54.16ZM208.758 54.16H207.758V55.16H208.758V54.16ZM208.758 2.39999V1.39999H207.758V2.39999H208.758ZM213.958 2.39999H214.958V1.39999H213.958V2.39999ZM213.958 62V63H214.958V62H213.958ZM209.558 62L208.737 62.5712L209.035 63H209.558V62ZM173.318 9.92V8.92H171.403L172.497 10.4912L173.318 9.92ZM175.158 9.92H176.158V8.92H175.158V9.92ZM175.158 62V63H176.158V62H175.158ZM170.958 62V2.39999H168.958V62H170.958ZM169.958 3.39999H174.357V1.39999H169.958V3.39999ZM173.537 2.97184L209.617 54.7318L211.258 53.5882L175.178 1.82815L173.537 2.97184ZM210.438 53.16H208.758V55.16H210.438V53.16ZM209.758 54.16V2.39999H207.758V54.16H209.758ZM208.758 3.39999H213.958V1.39999H208.758V3.39999ZM212.958 2.39999V62H214.958V2.39999H212.958ZM213.958 61H209.558V63H213.958V61ZM210.378 61.4288L174.138 9.34882L172.497 10.4912L208.737 62.5712L210.378 61.4288ZM173.318 10.92H175.158V8.92H173.318V10.92ZM174.158 9.92V62H176.158V9.92H174.158ZM175.158 61H169.958V63H175.158V61ZM239.422 62H238.422V63H239.422V62ZM239.422 7.2H240.422V6.2H239.422V7.2ZM222.782 7.2H221.782V8.2H222.782V7.2ZM222.782 2.39999V1.39999H221.782V2.39999H222.782ZM261.182 2.39999H262.182V1.39999H261.182V2.39999ZM261.182 7.2V8.2H262.182V7.2H261.182ZM244.622 7.2V6.2H243.622V7.2H244.622ZM244.622 62V63H245.622V62H244.622ZM240.422 62V7.2H238.422V62H240.422ZM239.422 6.2H222.782V8.2H239.422V6.2ZM223.782 7.2V2.39999H221.782V7.2H223.782ZM222.782 3.39999H261.182V1.39999H222.782V3.39999ZM260.182 2.39999V7.2H262.182V2.39999H260.182ZM261.182 6.2H244.622V8.2H261.182V6.2ZM243.622 7.2V62H245.622V7.2H243.622ZM244.622 61H239.422V63H244.622V61ZM268.358 43.04H267.358V44.04H268.358V43.04ZM268.358 38.4V37.4H267.358V38.4H268.358ZM295.158 38.4H296.158V37.4H295.158V38.4ZM295.158 43.04V44.04H296.158V43.04H295.158ZM269.358 43.04V38.4H267.358V43.04H269.358ZM268.358 39.4H295.158V37.4H268.358V39.4ZM294.158 38.4V43.04H296.158V38.4H294.158ZM295.158 42.04H268.358V44.04H295.158V42.04ZM308.629 62H307.629V63H308.629V62ZM308.629 2.39999V1.39999H307.629V2.39999H308.629ZM346.229 2.39999H347.229V1.39999H346.229V2.39999ZM346.229 7.2V8.2H347.229V7.2H346.229ZM313.829 7.2V6.2H312.829V7.2H313.829ZM313.829 29.68H312.829V30.68H313.829V29.68ZM344.629 29.68H345.629V28.68H344.629V29.68ZM344.629 34.48V35.48H345.629V34.48H344.629ZM313.829 34.48V33.48H312.829V34.48H313.829ZM313.829 57.2H312.829V58.2H313.829V57.2ZM346.229 57.2H347.229V56.2H346.229V57.2ZM346.229 62V63H347.229V62H346.229ZM309.629 62V2.39999H307.629V62H309.629ZM308.629 3.39999H346.229V1.39999H308.629V3.39999ZM345.229 2.39999V7.2H347.229V2.39999H345.229ZM346.229 6.2H313.829V8.2H346.229V6.2ZM312.829 7.2V29.68H314.829V7.2H312.829ZM313.829 30.68H344.629V28.68H313.829V30.68ZM343.629 29.68V34.48H345.629V29.68H343.629ZM344.629 33.48H313.829V35.48H344.629V33.48ZM312.829 34.48V57.2H314.829V34.48H312.829ZM313.829 58.2H346.229V56.2H313.829V58.2ZM345.229 57.2V62H347.229V57.2H345.229ZM346.229 61H308.629V63H346.229V61ZM357.692 62H356.692V63H357.692V62ZM357.692 2.39999V1.39999H356.692V2.39999H357.692ZM362.092 2.39999L362.912 1.82815L362.614 1.39999H362.092V2.39999ZM398.172 54.16V55.16H400.088L398.992 53.5882L398.172 54.16ZM396.492 54.16H395.492V55.16H396.492V54.16ZM396.492 2.39999V1.39999H395.492V2.39999H396.492ZM401.692 2.39999H402.692V1.39999H401.692V2.39999ZM401.692 62V63H402.692V62H401.692ZM397.292 62L396.471 62.5712L396.769 63H397.292V62ZM361.052 9.92V8.92H359.138L360.231 10.4912L361.052 9.92ZM362.892 9.92H363.892V8.92H362.892V9.92ZM362.892 62V63H363.892V62H362.892ZM358.692 62V2.39999H356.692V62H358.692ZM357.692 3.39999H362.092V1.39999H357.692V3.39999ZM361.272 2.97184L397.352 54.7318L398.992 53.5882L362.912 1.82815L361.272 2.97184ZM398.172 53.16H396.492V55.16H398.172V53.16ZM397.492 54.16V2.39999H395.492V54.16H397.492ZM396.492 3.39999H401.692V1.39999H396.492V3.39999ZM400.692 2.39999V62H402.692V2.39999H400.692ZM401.692 61H397.292V63H401.692V61ZM398.113 61.4288L361.873 9.34882L360.231 10.4912L396.471 62.5712L398.113 61.4288ZM361.052 10.92H362.892V8.92H361.052V10.92ZM361.892 9.92V62H363.892V9.92H361.892ZM362.892 61H357.692V63H362.892V61ZM416.676 62H415.676V63H416.676V62ZM416.676 2.39999V1.39999H415.676V2.39999H416.676ZM451.156 6.07999L450.658 6.9469L450.664 6.95057L450.671 6.95415L451.156 6.07999ZM461.156 16.4L460.27 16.864L460.273 16.8684L461.156 16.4ZM461.156 47.92L462.042 48.384L461.156 47.92ZM451.156 58.32L450.662 57.4504L450.658 57.4531L451.156 58.32ZM421.876 57.2H420.876V58.2H421.876V57.2ZM448.196 54.08L447.688 53.2191L447.682 53.2225L448.196 54.08ZM456.356 45.36L455.469 44.8979L455.467 44.9026L456.356 45.36ZM456.356 18.96L455.467 19.4174L455.472 19.4273L456.356 18.96ZM448.196 10.32L447.688 11.181L447.697 11.1866L448.196 10.32ZM421.876 7.2V6.2H420.876V7.2H421.876ZM417.676 62V2.39999H415.676V62H417.676ZM416.676 3.39999H435.956V1.39999H416.676V3.39999ZM435.956 3.39999C441.682 3.39999 446.57 4.59615 450.658 6.9469L451.655 5.21309C447.21 2.65718 441.964 1.39999 435.956 1.39999V3.39999ZM450.671 6.95415C454.816 9.25708 458.012 12.5525 460.27 16.864L462.042 15.936C459.607 11.2874 456.137 7.70291 451.642 5.20584L450.671 6.95415ZM460.273 16.8684C462.528 21.1231 463.676 26.2088 463.676 32.16H465.676C465.676 25.9512 464.478 20.5303 462.04 15.9316L460.273 16.8684ZM463.676 32.16C463.676 38.0559 462.529 43.1442 460.27 47.456L462.042 48.384C464.477 43.7358 465.676 38.3175 465.676 32.16H463.676ZM460.27 47.456C458.011 51.7692 454.812 55.0937 450.662 57.4504L451.65 59.1896C456.14 56.6397 459.608 53.0308 462.042 48.384L460.27 47.456ZM450.658 57.4531C446.57 59.8038 441.682 61 435.956 61V63C441.964 63 447.21 61.7428 451.655 59.1869L450.658 57.4531ZM435.956 61H416.676V63H435.956V61ZM421.876 58.2H435.876V56.2H421.876V58.2ZM435.876 58.2C440.772 58.2 445.063 57.1259 448.711 54.9375L447.682 53.2225C444.396 55.1941 440.474 56.2 435.876 56.2V58.2ZM448.705 54.9409C452.392 52.7623 455.242 49.7137 457.246 45.8173L455.467 44.9026C453.631 48.473 451.041 51.2377 447.688 53.2191L448.705 54.9409ZM457.243 45.8221C459.303 41.8699 460.316 37.3062 460.316 32.16H458.316C458.316 37.0404 457.356 41.2768 455.469 44.8979L457.243 45.8221ZM460.316 32.16C460.316 26.9628 459.304 22.3961 457.24 18.4927L455.472 19.4273C457.356 22.9905 458.316 27.2239 458.316 32.16H460.316ZM457.246 18.5026C455.241 14.6042 452.388 11.5794 448.695 9.45337L447.697 11.1866C451.045 13.1139 453.632 15.8491 455.467 19.4173L457.246 18.5026ZM448.705 9.45907C445.009 7.27525 440.722 6.2 435.876 6.2V8.2C440.418 8.2 444.343 9.20475 447.688 11.1809L448.705 9.45907ZM435.876 6.2H421.876V8.2H435.876V6.2ZM420.876 7.2V57.2H422.876V7.2H420.876Z" fill="url(#paint0_linear_404_12368)" mask="url(#path-1-outside-1_404_12368)"/>
<defs>
<linearGradient id="paint0_linear_404_12368" x1="231.5" y1="-21" x2="231.5" y2="80" gradientUnits="userSpaceOnUse">
<stop stop-color="#1D0DB1"/>
<stop offset="1" stop-color="#F8F8F8"/>
</linearGradient>
</defs>
</svg>
