<svg width="41" height="46" viewBox="0 0 41 46" fill="none" xmlns="http://www.w3.org/2000/svg">
<path d="M20.4908 46C19.876 46 19.252 45.8357 18.7106 45.5253L13.0488 42.1937C12.2046 41.719 12.6175 41.5547 12.8928 41.4634C14.0215 41.0709 14.2509 40.9888 15.453 40.3042C15.5815 40.2312 15.7466 40.2586 15.8751 40.3407L20.2247 42.9056C20.3807 42.9969 20.6009 42.9969 20.7478 42.9056L37.6965 33.1753C37.8525 33.084 37.9534 32.9015 37.9534 32.7189V13.2583C37.9534 13.0666 37.8525 12.8931 37.6873 12.7927L20.7478 3.07153C20.5918 2.98026 20.3807 2.98026 20.2247 3.07153L3.29431 12.8019C3.12914 12.8931 3.0282 13.0757 3.0282 13.2674V32.7189C3.0282 32.9015 3.12914 33.084 3.29431 33.1662L7.93756 35.8315C10.4611 37.0821 12.0027 35.6125 12.0027 34.1246V14.9195C12.0027 14.6457 12.2229 14.4358 12.4982 14.4358H14.6455C14.9116 14.4358 15.141 14.6457 15.141 14.9195V34.1337C15.141 37.4746 13.3057 39.3914 10.1215 39.3914C9.13966 39.3914 8.36884 39.3914 6.22158 38.3326L1.78021 35.7859C0.679051 35.1561 0 33.9786 0 32.7098V13.2583C0 11.9986 0.679051 10.812 1.78021 10.1822L18.7106 0.451831C19.7842 -0.15061 21.2066 -0.15061 22.271 0.451831L39.2198 10.1913C40.3209 10.8211 41 11.9986 41 13.2674V32.7189C41 33.9786 40.3209 35.1561 39.2198 35.795L22.271 45.5253C21.7296 45.8357 21.1148 46 20.4908 46ZM34.1728 26.8223C34.1728 23.1803 31.6952 22.2127 26.4922 21.5281C21.2249 20.8344 20.6927 20.4784 20.6927 19.2553C20.6927 18.2421 21.1423 16.8912 25.0423 16.8912C28.5201 16.8912 29.8048 17.6396 30.3371 19.9764C30.3829 20.1955 30.5848 20.3598 30.8142 20.3598H33.0166C33.1542 20.3598 33.2827 20.305 33.3744 20.2046C33.4662 20.1042 33.5121 19.9673 33.5029 19.8303C33.1634 15.8049 30.4747 13.9337 25.0423 13.9337C20.2064 13.9337 17.325 15.9601 17.325 19.3648C17.325 23.0525 20.1972 24.0748 24.8312 24.5312C30.3829 25.0697 30.8142 25.8821 30.8142 26.9684C30.8142 28.8487 29.291 29.6519 25.7214 29.6519C21.2341 29.6519 20.2522 28.5292 19.9219 26.3111C19.8852 26.0738 19.6833 25.9004 19.4355 25.9004H17.2424C16.9671 25.9004 16.756 26.1195 16.756 26.3842C16.756 29.2229 18.3068 32.6094 25.7305 32.6094C31.0895 32.6003 34.1728 30.4917 34.1728 26.8223Z" fill="white" fill-opacity="0.25"/>
</svg>
