<svg width="52" height="28" viewBox="0 0 52 28" fill="none" xmlns="http://www.w3.org/2000/svg">
<path d="M26 1.3975C39.9262 1.3975 50.635 7.40345 50.635 14C50.635 20.5966 39.9181 26.6025 26 26.6025C12.0738 26.6025 1.365 20.5966 1.365 14C1.365 7.40345 12.0819 1.3975 26 1.3975ZM26 0C11.6431 0 0 6.26382 0 14C0 21.7362 11.6431 28 26 28C40.3569 28 52 21.7362 52 14C52 6.26382 40.3569 0 26 0ZM17.7287 12.877C17.0869 16.246 14.82 15.8966 12.0331 15.8966L13.1462 10.0238C16.2337 10.0238 18.33 9.68271 17.7287 12.877ZM7.91375 21.8443H10.8956L11.6025 18.1176C14.9419 18.1176 17.0138 18.3672 18.9312 16.5288C21.0519 14.5324 21.6044 10.9804 20.0931 9.20024C19.305 8.26857 18.0375 7.81105 16.315 7.81105H10.5706L7.91375 21.8443ZM23.0019 4.07606H25.9675L25.2606 7.80273C27.82 7.80273 30.1925 7.61141 31.3381 8.69281C32.5406 9.82412 31.9637 11.2715 30.6637 18.101H27.6575C28.9087 11.4961 29.1444 10.9471 28.6894 10.448C28.2506 9.96554 27.2512 10.0654 24.8381 10.0654L23.3106 18.101H20.345L23.0019 4.07606ZM41.0312 12.877C40.3812 16.2959 38.0494 15.8966 35.3356 15.8966L36.4487 10.0238C39.5525 10.0238 41.6325 9.68271 41.0312 12.877ZM31.2162 21.8443H34.2062L34.9131 18.1176C38.4231 18.1176 40.365 18.3256 42.2419 16.5288C44.3625 14.5324 44.915 10.9804 43.4037 9.20024C42.6156 8.26857 41.3481 7.81105 39.6256 7.81105H33.8812L31.2162 21.8443Z" fill="white" fill-opacity="0.25"/>
</svg>
