<svg width="41" height="40" viewBox="0 0 41 40" fill="none" xmlns="http://www.w3.org/2000/svg">
<path d="M40.2483 15.0442C39.5437 12.2854 38.2076 10.2051 35.3614 10.2051H31.6917V14.4371C31.6917 17.7227 28.8364 20.4905 25.5785 20.4905H15.8047C13.1325 20.4905 10.9178 22.7226 10.9178 25.3385V34.4275C10.9178 37.0167 13.224 38.5345 15.8047 39.2756C18.8979 40.1595 21.8721 40.3202 25.5785 39.2756C28.0402 38.5792 30.4654 37.1774 30.4654 34.4275V30.7937H20.7007V29.5795H35.3614C38.2076 29.5795 39.26 27.642 40.2483 24.7403C41.2733 21.7494 41.2275 18.8745 40.2483 15.0442ZM26.1916 33.2133C27.2075 33.2133 28.0311 34.0257 28.0311 35.0257C28.0311 36.0346 27.2075 36.8471 26.1916 36.8471C25.185 36.8471 24.3522 36.0257 24.3522 35.0257C24.3613 34.0168 25.185 33.2133 26.1916 33.2133ZM15.3563 19.2941H25.1301C27.8481 19.2941 30.017 17.1067 30.017 14.4461V5.34815C30.017 2.75895 27.784 0.821516 25.1301 0.384031C21.8538 -0.142737 18.2939 -0.115952 15.3563 0.392959C11.2198 1.10722 10.4694 2.59824 10.4694 5.35708V8.99088H20.2523V10.2051H6.79963C3.95351 10.2051 1.46431 11.8747 0.686431 15.0442C-0.210416 18.6781 -0.247022 20.9458 0.686431 24.7403C1.38194 27.5617 3.03836 29.5795 5.88448 29.5795H9.24308V25.2225C9.24308 22.0708 12.0343 19.2941 15.3563 19.2941ZM14.7431 6.56239C13.7273 6.56239 12.9037 5.74992 12.9037 4.74995C12.9128 3.74106 13.7273 2.92859 14.7431 2.92859C15.7498 2.92859 16.5826 3.74999 16.5826 4.74995C16.5826 5.74992 15.7589 6.56239 14.7431 6.56239Z" fill="white" fill-opacity="0.25"/>
</svg>
