<svg width="55" height="48" viewBox="0 0 55 48" fill="none" xmlns="http://www.w3.org/2000/svg">
<path d="M44.9238 15.555C44.3438 15.3621 43.7637 15.18 43.1836 15.0086C43.2803 14.6122 43.3662 14.2158 43.4521 13.8194C44.7734 7.43398 43.9033 2.30211 40.9707 0.609342C38.1455 -1.00843 33.5371 0.673624 28.875 4.72341C28.4131 5.11982 27.9619 5.53765 27.5322 5.95548C27.2422 5.67693 26.9414 5.39837 26.6406 5.13053C21.7529 0.802189 16.8545 -1.01914 13.9219 0.684338C11.1074 2.31282 10.2695 7.14471 11.4512 13.1872C11.5693 13.7872 11.6982 14.3765 11.8486 14.9764C11.1611 15.1693 10.4844 15.3836 9.85059 15.6085C4.11426 17.5906 0 20.719 0 23.9545C0 27.2972 4.38281 30.6506 10.3447 32.6862C10.8281 32.8469 11.3115 33.0076 11.8057 33.1469C11.6445 33.7897 11.5049 34.4218 11.376 35.0754C10.248 41.0215 11.1289 45.7355 13.9434 47.3533C16.8438 49.0246 21.7207 47.3104 26.4688 43.1642C26.8447 42.8321 27.2207 42.4892 27.5967 42.125C28.0693 42.5857 28.5635 43.0249 29.0576 43.4535C33.6553 47.3961 38.1992 48.9925 41.0029 47.3747C43.9033 45.7034 44.8486 40.6358 43.624 34.4647C43.5273 33.9933 43.4199 33.5112 43.3018 33.0183C43.6455 32.9219 43.9785 32.8148 44.3115 32.7076C50.5098 30.6613 55 27.3508 55 23.9545C55 20.7083 50.7676 17.5584 44.9238 15.555ZM30.3896 6.45903C34.3857 2.98779 38.1133 1.62714 39.8105 2.60209C41.626 3.64132 42.3242 7.8411 41.1855 13.3587C41.1104 13.7229 41.0352 14.0765 40.9385 14.43C38.5537 13.8943 36.1367 13.5087 33.709 13.2944C32.3125 11.3016 30.7871 9.39459 29.1328 7.6054C29.5518 7.20899 29.96 6.83401 30.3896 6.45903ZM17.9609 29.5149C18.5088 30.447 19.0674 31.3791 19.6582 32.2898C17.9824 32.1077 16.3174 31.8398 14.6738 31.4863C15.1465 29.9435 15.7373 28.3471 16.4248 26.7187C16.9189 27.6615 17.4238 28.5936 17.9609 29.5149ZM14.7061 16.6263C16.2529 16.2835 17.8965 16.0049 19.6045 15.7907C19.0352 16.6799 18.4766 17.5906 17.9502 18.512C17.4238 19.4226 16.9082 20.3547 16.4248 21.2975C15.748 19.7012 15.1787 18.137 14.7061 16.6263ZM17.6494 24.0081C18.3584 22.5296 19.1318 21.0832 19.9482 19.6583C20.7646 18.2334 21.6455 16.8513 22.5693 15.4907C24.1807 15.3728 25.8242 15.3086 27.5 15.3086C29.1758 15.3086 30.8301 15.3728 32.4307 15.4907C33.3438 16.8406 34.2139 18.2227 35.041 19.6369C35.8682 21.0511 36.6416 22.4975 37.3721 23.9652C36.6523 25.4437 35.8789 26.9008 35.0518 28.3364C34.2354 29.7614 33.3652 31.1434 32.4521 32.5148C30.8516 32.6326 29.1865 32.6862 27.5 32.6862C25.8135 32.6862 24.1807 32.6326 22.6016 32.5362C21.667 31.1756 20.7861 29.7828 19.959 28.3579C19.1318 26.9329 18.3691 25.4866 17.6494 24.0081ZM37.0498 29.4935C37.5977 28.5507 38.1133 27.5972 38.6182 26.633C39.3057 28.1864 39.9072 29.7614 40.4336 31.3791C38.7686 31.7541 37.082 32.0434 35.3848 32.2362C35.9648 31.3363 36.5127 30.4149 37.0498 29.4935ZM38.5967 21.2975C38.0918 20.3547 37.5762 19.4119 37.0391 18.4905C36.5127 17.5799 35.9648 16.6799 35.3955 15.7907C37.125 16.0049 38.7793 16.2942 40.3262 16.6478C39.832 18.2334 39.252 19.7762 38.5967 21.2975ZM27.5215 9.2446C28.6494 10.466 29.7129 11.7516 30.7012 13.0801C28.5742 12.9837 26.4365 12.9837 24.3096 13.0801C25.3623 11.698 26.4473 10.4124 27.5215 9.2446ZM15.0605 2.67709C16.8652 1.62714 20.8721 3.12706 25.0938 6.85544C25.3623 7.09114 25.6309 7.34827 25.9102 7.6054C24.2451 9.39459 22.709 11.3016 21.3018 13.2944C18.874 13.5087 16.4678 13.8836 14.083 14.4086C13.9434 13.8622 13.8252 13.3051 13.707 12.748C12.6973 7.56254 13.3633 3.65204 15.0605 2.67709ZM12.4287 30.9184C11.9775 30.7899 11.5371 30.6506 11.0967 30.5006C8.80859 29.7828 6.20898 28.6471 4.3291 27.1579C3.24414 26.408 2.51367 25.2509 2.30957 23.9545C2.30957 21.9939 5.7041 19.4869 10.6025 17.7834C11.2148 17.5692 11.8379 17.3763 12.4609 17.1942C13.1914 19.519 14.0723 21.8011 15.0928 24.0081C14.0615 26.2473 13.1699 28.5614 12.4287 30.9184ZM24.9541 41.4179C23.1816 43.0356 21.1299 44.3213 18.8955 45.1998C17.7031 45.7676 16.3281 45.8212 15.1035 45.3391C13.3955 44.3534 12.6865 40.5715 13.6533 35.4825C13.7715 34.8825 13.9004 34.2825 14.0508 33.6933C16.457 34.2075 18.8848 34.5611 21.3447 34.7432C22.7627 36.7467 24.3203 38.6645 25.9854 40.4644C25.6416 40.7965 25.2979 41.1179 24.9541 41.4179ZM27.5859 38.8144C26.4902 37.6359 25.3945 36.3289 24.3311 34.9254C25.3623 34.9682 26.4258 34.9896 27.5 34.9896C28.6064 34.9896 29.6914 34.9682 30.7656 34.9146C29.7773 36.2753 28.7139 37.5717 27.5859 38.8144ZM41.626 42.0286C41.5293 43.3356 40.8848 44.557 39.8535 45.382C38.1455 46.3676 34.5039 45.082 30.5723 41.7179C30.1211 41.3322 29.6699 40.9143 29.208 40.4858C30.8516 38.6752 32.3662 36.7574 33.7412 34.7432C36.2012 34.5397 38.6504 34.1647 41.0674 33.6183C41.1748 34.0576 41.2715 34.4968 41.3574 34.9254C41.8838 37.2395 41.9697 39.6501 41.626 42.0286ZM43.5811 30.5113C43.2803 30.6077 42.9795 30.7042 42.668 30.7899C41.916 28.4543 40.9922 26.1723 39.9287 23.9545C40.96 21.7689 41.8301 19.519 42.5605 17.2156C43.1191 17.3763 43.6562 17.5477 44.1719 17.7191C49.1777 19.4333 52.6904 21.9832 52.6904 23.9331C52.6904 26.033 48.9414 28.7436 43.5811 30.5113ZM27.5 28.9043C30.2178 28.9043 32.4199 26.7079 32.4199 23.9974C32.4199 21.2868 30.2178 19.0905 27.5 19.0905C24.7822 19.0905 22.5801 21.2868 22.5801 23.9974C22.5801 26.7079 24.7822 28.9043 27.5 28.9043Z" fill="white" fill-opacity="0.25"/>
</svg>
