<svg width="50" height="38" viewBox="0 0 50 38" fill="none" xmlns="http://www.w3.org/2000/svg">
<path d="M23.5812 28.7285C23.5344 28.814 23.5578 28.776 23.5812 28.7285V28.7285ZM43.0448 21.8416C41.4734 21.841 39.923 22.2067 38.5135 22.9102C38.0525 21.9682 37.5759 21.1449 37.4978 20.5275C37.4041 19.8071 37.3025 19.3797 37.4119 18.5247C37.5213 17.6698 38.0134 16.4587 38.0056 16.3716C37.9978 16.2845 37.8963 15.8491 36.8884 15.8412C35.8806 15.8333 35.0134 16.0391 34.9126 16.3083C34.7346 16.8001 34.5962 17.3057 34.4986 17.8202C34.3189 18.7464 32.4837 22.0553 31.4446 23.781C31.1009 23.1081 30.8118 22.5144 30.7493 22.0395C30.6555 21.3191 30.554 20.8916 30.6634 20.0367C30.7727 19.1818 31.2649 17.9706 31.2571 17.8835C31.2493 17.7965 31.1477 17.3611 30.1407 17.3532C29.1337 17.3453 28.2657 17.5511 28.1641 17.8202C28.0625 18.0894 27.9532 18.7226 27.75 19.3322C27.5469 19.9417 25.1024 25.4513 24.4625 26.8841C24.1344 27.6123 23.8531 28.1981 23.65 28.5939C23.6187 28.6572 23.5953 28.6968 23.5797 28.7285C23.6031 28.6889 23.6187 28.6493 23.6187 28.6652C23.4469 29.0055 23.3453 29.1955 23.3453 29.1955V29.2035C23.2125 29.4568 23.0641 29.6863 22.9937 29.6863C22.9469 29.6863 22.8453 29.0214 23.0172 28.111C23.3844 26.1954 24.2516 23.2189 24.2438 23.116C24.2359 23.0606 24.4078 22.5461 23.6734 22.269C22.9625 22.0078 22.7047 22.4432 22.6422 22.4432C22.5797 22.4432 22.5328 22.6015 22.5328 22.6015C22.5328 22.6015 23.3219 19.2451 21.0179 19.2451C19.5804 19.2451 17.5804 20.8441 16.5976 22.2928C15.9804 22.6332 14.6444 23.3693 13.2382 24.153C12.6991 24.4538 12.1444 24.7626 11.6209 25.0555C11.5819 25.0159 11.5506 24.9763 11.5116 24.9367C8.71545 21.9128 3.55289 19.7755 3.77164 15.7146C3.84977 14.2343 4.35758 10.3475 13.6991 5.62954C21.3554 1.76652 27.4766 2.82727 28.5305 5.18624C30.0462 8.55055 25.2578 14.8121 17.307 15.7146C14.2764 16.0549 12.6835 14.8675 12.285 14.4242C11.871 13.9572 11.8085 13.9334 11.6522 14.0205C11.3944 14.163 11.5584 14.5746 11.6522 14.82C11.8866 15.4454 12.8632 16.5536 14.5265 17.1078C15.9874 17.5906 19.5406 17.8598 23.8367 16.1737C28.6633 14.2897 32.4204 9.04134 31.3188 4.64795C30.1969 0.183316 22.8906 -1.28115 15.9819 1.20448C11.8655 2.68478 7.41387 5.01209 4.21149 8.04393C0.407539 11.6536 -0.201062 14.7963 0.048941 16.1104C0.938795 20.7729 7.28106 23.8126 9.81937 26.0608C9.69437 26.132 9.57718 26.1954 9.4678 26.2587C8.19513 26.8999 3.35992 29.4647 2.14975 32.172C0.782543 35.2434 2.37631 37.444 3.42242 37.7448C6.6873 38.6631 10.0303 37.0086 11.8264 34.2935C13.6225 31.5783 13.4046 28.0319 12.5764 26.417C12.5686 26.3933 12.553 26.3774 12.5452 26.3537C12.8733 26.1558 13.2093 25.9579 13.5452 25.76C14.1929 25.3721 14.8257 25.0159 15.3804 24.7071C15.0679 25.5621 14.8413 26.5912 14.7241 28.0794C14.5835 29.8209 15.2944 32.077 16.2163 32.9636C16.6226 33.3514 17.114 33.3594 17.4187 33.3594C18.4968 33.3594 18.9812 32.4569 19.5195 31.3804C20.1835 30.0663 20.7695 28.5385 20.7695 28.5385C20.7695 28.5385 20.0351 32.6707 22.0429 32.6707C22.7765 32.6707 23.5109 31.7128 23.8398 31.222V31.2299C23.8398 31.2299 23.8555 31.1983 23.8945 31.135C23.9727 31.0162 24.0117 30.945 24.0117 30.945V30.9212C24.3086 30.4067 24.957 29.2272 25.9328 27.2799C27.1985 24.7626 28.4086 21.6199 28.4086 21.6199C28.5256 22.3107 28.6874 22.993 28.893 23.6622C29.1118 24.4143 29.5727 25.2375 29.9399 26.037C29.643 26.4487 29.4633 26.6862 29.4633 26.6862C29.4639 26.6922 29.4667 26.6979 29.4712 26.702C29.2368 27.0186 28.9712 27.359 28.6977 27.6915C27.6985 28.8947 26.5102 30.2721 26.3539 30.6679C26.1664 31.135 26.2133 31.4833 26.5727 31.7524C26.8383 31.9582 27.3071 31.9899 27.7985 31.9503C28.6969 31.887 29.3298 31.6653 29.6344 31.5228C30.1961 31.3188 30.727 31.0363 31.2118 30.6837C32.1884 29.9555 32.7821 28.9106 32.7274 27.5332C32.6962 26.7732 32.454 26.0133 32.1571 25.3009C32.2431 25.1742 32.3368 25.0396 32.4228 24.9051C33.9689 22.6173 35.1642 20.1064 35.1642 20.1064C35.2811 20.7972 35.4429 21.4795 35.6486 22.1487C35.8361 22.7899 36.2025 23.4944 36.5384 24.1831C35.0861 25.3784 34.1876 26.7637 33.8751 27.6741C33.297 29.3602 33.7501 30.1201 34.6017 30.2943C34.9845 30.3734 35.5314 30.1914 35.9376 30.0172C36.541 29.8136 37.1099 29.5172 37.6244 29.1385C38.601 28.4103 39.5455 27.3891 39.483 26.0038C39.4596 25.3784 39.2877 24.7531 39.0611 24.1514C40.2877 23.629 41.8807 23.344 43.912 23.5815C48.262 24.096 49.1136 26.8508 48.9495 27.9986C48.7854 29.1465 47.8714 29.7877 47.5667 29.9776C47.262 30.1676 47.1682 30.2389 47.1917 30.3814C47.2307 30.5872 47.3714 30.5793 47.6292 30.5318C47.9886 30.4684 49.9097 29.5977 49.9956 27.4683C50.1206 24.7768 47.5667 21.8162 43.0424 21.84L43.0448 21.8416ZM9.51468 33.296C8.07794 34.8872 6.06229 35.4888 5.19588 34.9821C4.26618 34.4344 4.63337 32.0928 6.40605 30.3972C7.48418 29.3681 8.87404 28.4182 9.79593 27.8324C10.0069 27.7057 10.3116 27.5158 10.6866 27.2862C10.7491 27.2466 10.7803 27.2308 10.7803 27.2308C10.8506 27.1833 10.9288 27.1437 11.0069 27.0962C11.6545 29.5027 11.0303 31.6242 9.51468 33.2944V33.296ZM20.0117 26.0608C19.5117 27.3036 18.4577 30.47 17.8171 30.3038C17.2702 30.1613 16.9343 27.7469 17.7077 25.3721C18.0984 24.1768 18.9265 22.7519 19.4187 22.1978C20.207 21.3033 21.0742 21.0183 21.2773 21.3745C21.5508 21.8415 20.3242 25.285 20.0117 26.0608ZM28.6836 30.2563C28.4727 30.3671 28.2774 30.4384 28.1836 30.3829C28.1133 30.3434 28.2696 30.193 28.2696 30.193C28.2696 30.193 29.3555 29.0135 29.7852 28.4752C30.0352 28.1585 30.3243 27.7865 30.636 27.3748C30.636 27.4144 30.6438 27.454 30.6438 27.5015C30.6337 28.9185 29.2907 29.8763 28.6813 30.2563H28.6836ZM35.3697 28.7127C35.2134 28.6018 35.2369 28.2298 35.7603 27.074C35.9634 26.6228 36.4314 25.8629 37.2447 25.1346C37.3368 25.4103 37.3868 25.6986 37.3931 25.9895C37.3853 27.7707 36.1275 28.4356 35.3704 28.7127H35.3697Z" fill="white" fill-opacity="0.25"/>
</svg>
